<svg xmlns="http://www.w3.org/2000/svg" xmlns:xlink="http://www.w3.org/1999/xlink" width="500" zoomAndPan="magnify" viewBox="0 0 375 374.999991" height="500" preserveAspectRatio="xMidYMid meet" version="1.0"><defs><g/><clipPath id="2d8d3b52cf"><path d="M 123.800781 113.4375 L 251.300781 113.4375 L 251.300781 191.4375 L 123.800781 191.4375 Z M 123.800781 113.4375 " clip-rule="nonzero"/></clipPath></defs><path fill="#3b4651" d="M 159.027344 152.335938 C 160.628906 152.335938 161.832031 150.730469 161.832031 148.71875 C 161.832031 147.3125 160.429688 146.109375 159.628906 145.503906 C 159.628906 142.289062 159.628906 140.078125 159.628906 136.863281 C 161.628906 137.265625 166.835938 138.472656 168.636719 138.875 C 168.636719 140.683594 168.636719 137.667969 168.636719 147.113281 C 178.242188 155.152344 198.859375 154.949219 208.265625 147.113281 C 208.265625 137.867188 208.265625 141.085938 208.265625 138.875 C 209.265625 138.671875 217.472656 136.863281 218.675781 136.664062 C 198.257812 132.242188 212.269531 135.257812 188.449219 130.230469 C 186.851562 130.632812 180.445312 132.039062 158.226562 136.664062 L 158.425781 136.664062 C 158.425781 139.675781 158.425781 142.089844 158.425781 145.503906 C 157.625 146.109375 156.226562 147.3125 156.226562 148.71875 C 156.226562 150.730469 157.625 152.335938 159.027344 152.335938 Z M 171.636719 137.265625 C 180.042969 143.292969 197.257812 143.09375 205.464844 137.265625 L 205.464844 141.285156 C 197.457031 147.515625 180.644531 148.320312 171.636719 141.285156 Z M 171.636719 137.265625 " fill-opacity="1" fill-rule="nonzero"/><g clip-path="url(#2d8d3b52cf)"><path fill="#2b7abf" d="M 230.484375 169.015625 L 230.484375 118.578125 C 230.484375 115.761719 228.28125 113.554688 225.480469 113.554688 L 147.820312 113.554688 C 145.015625 113.554688 142.816406 115.761719 142.816406 118.578125 L 142.816406 169.015625 L 123.800781 188.109375 C 123.800781 189.917969 125.203125 191.523438 127.203125 191.523438 L 247.898438 191.523438 C 249.699219 191.523438 251.300781 190.117188 251.300781 188.109375 Z M 146.019531 116.96875 L 227.082031 116.96875 L 227.082031 166.003906 L 146.019531 166.003906 Z M 142.414062 189.917969 L 139.414062 189.917969 C 138.613281 189.917969 137.8125 189.113281 137.8125 188.308594 C 137.8125 187.503906 138.613281 186.703125 139.414062 186.703125 L 142.414062 186.703125 C 143.214844 186.703125 144.015625 187.503906 144.015625 188.308594 C 144.015625 189.113281 143.214844 189.917969 142.414062 189.917969 Z M 150.222656 189.917969 L 147.21875 189.917969 C 146.417969 189.917969 145.617188 189.113281 145.617188 188.308594 C 145.617188 187.503906 146.417969 186.703125 147.21875 186.703125 L 150.222656 186.703125 C 151.023438 186.703125 151.820312 187.503906 151.820312 188.308594 C 151.820312 189.3125 151.023438 189.917969 150.222656 189.917969 Z M 191.253906 189.917969 L 188.25 189.917969 C 187.449219 189.917969 186.648438 189.113281 186.648438 188.308594 C 186.648438 187.503906 187.449219 186.703125 188.25 186.703125 L 191.253906 186.703125 C 192.054688 186.703125 192.855469 187.503906 192.855469 188.308594 C 192.855469 189.3125 192.054688 189.917969 191.253906 189.917969 Z M 132.007812 184.691406 L 145.015625 171.628906 L 228.082031 171.628906 L 242.292969 184.691406 Z M 132.007812 184.691406 " fill-opacity="1" fill-rule="nonzero"/></g><path fill="#2b7abf" d="M 146.21875 173.640625 L 137.210938 182.683594 L 237.691406 182.683594 L 227.882812 173.640625 Z M 146.21875 173.640625 " fill-opacity="1" fill-rule="nonzero"/><g fill="#000000" fill-opacity="1"><g transform="translate(114.398434, 230.011816)"><g><path d="M 2.605469 -16.101562 C 2.605469 -15.804688 2.640625 -15.507812 2.605469 -15.175781 C 2.605469 -14.878906 2.671875 -14.582031 2.671875 -14.253906 C 2.671875 -13.988281 2.605469 -13.660156 2.605469 -13.363281 C 2.605469 -13.066406 2.671875 -12.769531 2.671875 -12.4375 C 2.671875 -12.140625 2.640625 -11.84375 2.640625 -11.546875 C 2.640625 -11.21875 2.539062 -10.921875 2.539062 -10.625 C 2.539062 -10.328125 2.574219 -9.996094 2.574219 -9.699219 C 2.574219 -9.402344 2.574219 -9.105469 2.574219 -8.808594 C 2.574219 -8.511719 2.539062 -8.183594 2.539062 -7.886719 C 2.507812 -7.589844 2.605469 -7.292969 2.605469 -6.996094 C 2.605469 -6.664062 2.640625 -6.367188 2.640625 -6.105469 C 2.640625 -5.773438 2.605469 -5.476562 2.605469 -5.179688 C 2.605469 -4.851562 2.605469 -4.554688 2.605469 -4.289062 C 2.640625 -3.925781 2.574219 -3.628906 2.574219 -3.367188 C 2.605469 -3.101562 2.640625 -2.769531 2.640625 -2.441406 C 2.640625 -2.113281 2.574219 -1.78125 2.574219 -1.484375 C 2.574219 -1.121094 2.574219 -0.792969 2.574219 -0.527344 C 2.539062 -0.230469 2.804688 0.03125 3.132812 0.03125 C 3.398438 0.03125 3.726562 0 4.058594 0 C 4.386719 0 4.683594 0 5.015625 0 C 5.34375 0 5.675781 -0.03125 5.972656 -0.03125 C 6.269531 0 6.566406 0 6.863281 0.03125 C 7.160156 0.03125 7.488281 0 7.785156 0 C 8.082031 0 8.378906 0.0664062 8.675781 0.0664062 C 9.007812 0.0664062 9.304688 0 9.601562 0 C 9.898438 0 10.195312 0 10.523438 0 C 10.820312 -0.03125 11.117188 0.03125 11.414062 0 C 11.710938 0 12.042969 -0.0664062 12.339844 -0.0976562 C 12.667969 -0.0976562 13 -0.03125 13.296875 -0.03125 C 13.625 -0.0664062 13.957031 -0.03125 14.253906 -0.0976562 C 14.550781 -0.132812 14.847656 -0.265625 15.175781 -0.394531 C 15.375 -0.460938 15.539062 -0.691406 15.574219 -0.988281 C 15.636719 -1.222656 15.605469 -1.519531 15.605469 -1.75 C 15.605469 -1.945312 15.574219 -2.308594 15.574219 -2.605469 C 15.574219 -2.96875 15.507812 -3.300781 15.277344 -3.398438 C 15.011719 -3.53125 14.683594 -3.628906 14.320312 -3.664062 C 13.988281 -3.695312 13.660156 -3.726562 13.328125 -3.726562 C 13.03125 -3.726562 12.769531 -3.628906 12.503906 -3.628906 C 12.238281 -3.628906 11.976562 -3.695312 11.679688 -3.695312 C 11.414062 -3.664062 11.152344 -3.597656 10.886719 -3.597656 C 10.625 -3.597656 10.359375 -3.5625 10.0625 -3.5625 C 9.796875 -3.5625 9.535156 -3.628906 9.269531 -3.628906 C 9.007812 -3.628906 8.710938 -3.628906 8.445312 -3.628906 C 8.183594 -3.628906 7.886719 -3.664062 7.621094 -3.664062 C 7.324219 -3.664062 7.058594 -3.597656 6.828125 -3.628906 C 6.335938 -3.628906 6.300781 -3.332031 6.070312 -3.664062 C 5.773438 -4.089844 6.003906 -4.058594 6.003906 -4.652344 C 6.039062 -4.949219 6.105469 -5.3125 6.136719 -5.675781 C 6.136719 -6.003906 6.136719 -6.367188 6.136719 -6.699219 C 6.136719 -6.996094 6.167969 -7.292969 6.203125 -7.621094 C 6.203125 -7.917969 6.136719 -8.214844 6.136719 -8.511719 C 6.136719 -8.84375 6.167969 -9.140625 6.203125 -9.4375 C 6.203125 -9.734375 6.167969 -10.0625 6.167969 -10.359375 C 6.167969 -10.65625 6.269531 -10.953125 6.300781 -11.285156 C 6.300781 -11.582031 6.167969 -11.878906 6.203125 -12.175781 C 6.203125 -12.503906 6.269531 -12.800781 6.269531 -13.097656 C 6.269531 -13.394531 6.300781 -13.726562 6.300781 -14.023438 C 6.300781 -14.320312 6.269531 -14.617188 6.269531 -14.945312 C 6.269531 -15.242188 6.300781 -15.539062 6.300781 -15.835938 C 6.300781 -16.167969 6.335938 -16.464844 6.335938 -16.761719 C 6.335938 -17.058594 6.300781 -17.386719 6.300781 -17.683594 C 6.300781 -17.949219 6.367188 -18.210938 6.367188 -18.476562 C 6.367188 -18.738281 6.367188 -19.003906 6.367188 -19.269531 C 6.402344 -19.53125 6.300781 -19.796875 6.300781 -20.058594 C 6.269531 -20.355469 6.105469 -20.488281 5.839844 -20.585938 C 5.609375 -20.6875 5.34375 -20.816406 5.082031 -20.816406 C 4.785156 -20.851562 4.488281 -20.785156 4.320312 -20.753906 C 4.058594 -20.71875 3.628906 -20.785156 3.265625 -20.652344 C 2.96875 -20.585938 2.738281 -20.421875 2.707031 -19.960938 C 2.671875 -19.664062 2.640625 -19.332031 2.671875 -18.96875 C 2.671875 -18.640625 2.671875 -18.3125 2.671875 -17.980469 C 2.671875 -17.652344 2.640625 -17.289062 2.640625 -16.992188 C 2.640625 -16.761719 2.640625 -16.464844 2.605469 -16.101562 Z M 2.605469 -16.101562 "/></g></g></g><g fill="#000000" fill-opacity="1"><g transform="translate(130.793628, 230.011816)"><g><path d="M 7.226562 -17.089844 C 7.554688 -17.089844 7.851562 -17.125 8.183594 -17.125 C 8.480469 -17.125 8.777344 -17.058594 9.105469 -17.058594 C 9.402344 -17.058594 9.699219 -17.089844 10.03125 -17.089844 C 10.328125 -17.089844 10.65625 -17.058594 10.953125 -17.058594 C 11.25 -17.058594 11.582031 -17.058594 11.878906 -17.058594 C 12.175781 -17.058594 12.503906 -17.125 12.800781 -17.125 C 13.097656 -17.125 13.429688 -17.125 13.726562 -17.125 C 14.121094 -17.125 14.449219 -17.089844 14.714844 -17.15625 C 15.078125 -17.222656 15.277344 -17.355469 15.441406 -17.683594 C 15.574219 -17.914062 15.671875 -18.210938 15.703125 -18.640625 C 15.703125 -18.96875 15.738281 -19.300781 15.738281 -19.566406 C 15.738281 -19.925781 15.703125 -20.222656 15.507812 -20.457031 C 15.308594 -20.585938 15.078125 -20.785156 14.648438 -20.851562 C 14.382812 -20.882812 14.054688 -20.816406 13.691406 -20.816406 C 13.394531 -20.816406 13.097656 -20.851562 12.835938 -20.816406 C 12.539062 -20.816406 12.238281 -20.917969 11.976562 -20.882812 C 11.679688 -20.882812 11.382812 -20.816406 11.085938 -20.816406 C 10.820312 -20.785156 10.523438 -20.753906 10.226562 -20.71875 C 9.964844 -20.71875 9.667969 -20.753906 9.371094 -20.753906 C 9.074219 -20.71875 8.742188 -20.652344 8.445312 -20.652344 C 8.117188 -20.652344 7.785156 -20.652344 7.488281 -20.6875 C 7.160156 -20.6875 6.863281 -20.753906 6.53125 -20.785156 C 6.234375 -20.816406 5.90625 -20.816406 5.609375 -20.851562 C 5.277344 -20.851562 4.949219 -20.851562 4.652344 -20.851562 C 4.320312 -20.851562 4.023438 -20.949219 3.695312 -20.949219 C 3.367188 -20.949219 3.101562 -20.851562 2.769531 -20.816406 C 2.769531 -20.554688 2.738281 -20.289062 2.738281 -19.992188 C 2.738281 -19.695312 2.671875 -19.398438 2.640625 -19.101562 C 2.640625 -18.804688 2.707031 -18.507812 2.707031 -18.246094 C 2.707031 -17.949219 2.671875 -17.652344 2.671875 -17.355469 C 2.640625 -17.058594 2.640625 -16.761719 2.640625 -16.464844 C 2.640625 -16.167969 2.671875 -15.871094 2.671875 -15.605469 C 2.671875 -15.308594 2.671875 -15.011719 2.671875 -14.714844 C 2.671875 -14.417969 2.574219 -14.121094 2.574219 -13.824219 C 2.574219 -13.558594 2.640625 -13.261719 2.640625 -12.964844 C 2.640625 -12.667969 2.605469 -12.371094 2.605469 -12.074219 C 2.605469 -11.8125 2.671875 -11.515625 2.640625 -11.21875 C 2.640625 -10.921875 2.539062 -10.625 2.507812 -10.328125 C 2.507812 -10.0625 2.605469 -9.765625 2.574219 -9.46875 C 2.574219 -9.171875 2.539062 -8.875 2.507812 -8.609375 C 2.507812 -8.3125 2.539062 -8.015625 2.539062 -7.71875 C 2.539062 -7.421875 2.539062 -7.125 2.539062 -6.863281 C 2.539062 -6.566406 2.539062 -6.269531 2.539062 -5.972656 C 2.539062 -5.707031 2.507812 -5.410156 2.507812 -5.113281 C 2.472656 -4.816406 2.605469 -4.519531 2.605469 -4.222656 C 2.605469 -3.960938 2.507812 -3.664062 2.507812 -3.367188 C 2.507812 -3.066406 2.574219 -2.769531 2.574219 -2.507812 C 2.574219 -2.210938 2.507812 -1.914062 2.507812 -1.617188 C 2.507812 -1.386719 2.738281 -1.023438 3.035156 -0.726562 C 3.332031 -0.429688 3.695312 -0.230469 3.960938 -0.199219 C 4.222656 -0.199219 4.519531 -0.164062 4.816406 -0.164062 C 5.082031 -0.132812 5.378906 -0.164062 5.675781 -0.132812 C 5.9375 -0.132812 6.234375 -0.03125 6.53125 0 C 6.796875 0 7.09375 -0.0976562 7.390625 -0.0976562 C 7.6875 -0.0976562 7.953125 -0.0664062 8.25 -0.0664062 C 8.546875 -0.0664062 8.84375 0.03125 9.105469 0.0664062 C 9.402344 0.0664062 9.699219 -0.03125 9.964844 -0.03125 C 10.261719 0 10.558594 0.03125 10.855469 0.03125 C 11.117188 0.03125 11.414062 0.0664062 11.710938 0.0664062 C 11.976562 0.0664062 12.273438 0.03125 12.570312 0.03125 C 12.867188 0.03125 13.132812 -0.03125 13.429688 -0.03125 C 13.726562 -0.03125 13.988281 0.03125 14.285156 0.03125 C 14.617188 0.03125 14.878906 -0.0664062 15.042969 -0.230469 C 15.277344 -0.394531 15.339844 -0.625 15.40625 -0.921875 C 15.441406 -1.15625 15.40625 -1.417969 15.308594 -1.683594 C 15.242188 -1.945312 15.175781 -2.210938 15.042969 -2.441406 C 14.878906 -2.707031 14.683594 -2.9375 14.515625 -3.132812 C 14.320312 -3.332031 14.085938 -3.464844 13.726562 -3.496094 C 13.429688 -3.53125 13.097656 -3.496094 12.769531 -3.496094 C 12.4375 -3.496094 12.109375 -3.5625 11.777344 -3.5625 C 11.449219 -3.5625 11.117188 -3.597656 10.789062 -3.597656 C 10.457031 -3.597656 10.160156 -3.53125 9.832031 -3.53125 C 9.5 -3.53125 9.171875 -3.464844 8.84375 -3.496094 C 8.511719 -3.496094 8.214844 -3.496094 7.886719 -3.496094 C 7.554688 -3.496094 7.226562 -3.464844 6.929688 -3.464844 C 6.367188 -3.464844 6.402344 -3.265625 6.039062 -3.5625 C 5.707031 -3.792969 5.90625 -3.828125 5.871094 -4.320312 C 5.871094 -4.554688 5.90625 -4.851562 5.90625 -5.148438 C 5.90625 -5.378906 5.871094 -5.675781 5.871094 -5.9375 C 5.871094 -6.203125 5.871094 -6.5 5.90625 -6.730469 C 5.90625 -7.027344 5.871094 -7.324219 5.90625 -7.621094 C 5.9375 -7.886719 5.972656 -8.148438 6.070312 -8.480469 C 6.335938 -8.480469 6.632812 -8.445312 6.929688 -8.445312 C 7.226562 -8.414062 7.523438 -8.445312 7.785156 -8.445312 C 8.082031 -8.445312 8.378906 -8.414062 8.675781 -8.414062 C 8.972656 -8.414062 9.238281 -8.414062 9.535156 -8.414062 C 9.832031 -8.414062 10.097656 -8.445312 10.394531 -8.480469 C 10.691406 -8.480469 10.953125 -8.445312 11.25 -8.445312 C 11.582031 -8.445312 11.84375 -8.546875 12.074219 -8.546875 C 12.40625 -8.578125 12.703125 -8.546875 12.898438 -8.644531 C 13.195312 -8.742188 13.394531 -8.941406 13.492188 -9.238281 C 13.558594 -9.4375 13.460938 -9.734375 13.429688 -10.0625 C 13.429688 -10.292969 13.460938 -10.589844 13.394531 -10.886719 C 13.363281 -11.152344 13.296875 -11.449219 13.230469 -11.746094 C 12.933594 -11.777344 12.570312 -11.710938 12.273438 -11.710938 C 11.941406 -11.746094 11.644531 -11.8125 11.316406 -11.8125 C 10.988281 -11.8125 10.691406 -11.878906 10.359375 -11.878906 C 10.03125 -11.910156 9.734375 -11.8125 9.402344 -11.84375 C 9.074219 -11.878906 8.777344 -12.007812 8.445312 -12.042969 C 8.214844 -12.042969 7.917969 -11.976562 7.652344 -11.976562 C 7.390625 -11.976562 7.125 -12.007812 6.863281 -12.007812 C 6.402344 -12.007812 6.300781 -11.679688 6.039062 -11.976562 C 5.742188 -12.304688 6.070312 -12.40625 6.039062 -12.898438 C 6.039062 -13.164062 5.972656 -13.492188 5.972656 -13.789062 C 5.972656 -14.085938 6.039062 -14.417969 6.039062 -14.683594 C 6.039062 -14.945312 6.070312 -15.175781 6.105469 -15.472656 C 6.136719 -15.703125 6.105469 -15.96875 6.136719 -16.265625 C 6.167969 -16.527344 6.269531 -16.761719 6.300781 -17.058594 C 6.632812 -17.058594 6.929688 -17.089844 7.226562 -17.089844 Z M 7.226562 -17.089844 "/></g></g></g><g fill="#000000" fill-opacity="1"><g transform="translate(148.013529, 230.011816)"><g><path d="M 6.632812 -3.726562 C 6.929688 -3.695312 7.226562 -3.628906 7.523438 -3.628906 C 7.851562 -3.628906 8.148438 -3.628906 8.445312 -3.628906 C 8.742188 -3.628906 9.039062 -3.664062 9.335938 -3.664062 C 9.632812 -3.664062 9.929688 -3.664062 10.226562 -3.664062 C 10.523438 -3.695312 10.855469 -3.761719 11.183594 -3.761719 C 11.546875 -3.726562 11.878906 -3.695312 12.175781 -3.695312 C 12.734375 -3.664062 12.734375 -3.859375 13.164062 -3.664062 C 13.527344 -3.496094 13.296875 -3.332031 13.558594 -2.9375 C 13.691406 -2.738281 13.890625 -2.539062 14.023438 -2.277344 C 14.152344 -2.046875 14.253906 -1.816406 14.351562 -1.550781 C 14.484375 -1.320312 14.617188 -1.054688 14.648438 -0.824219 C 14.746094 -0.460938 14.914062 -0.296875 15.078125 -0.164062 C 15.277344 -0.03125 15.507812 -0.03125 15.835938 -0.03125 C 16.066406 -0.03125 16.363281 0 16.660156 0 C 16.992188 0 17.253906 -0.0664062 17.484375 -0.0976562 C 17.847656 -0.164062 18.078125 -0.265625 18.179688 -0.460938 C 18.277344 -0.660156 18.246094 -0.921875 18.113281 -1.285156 C 18.015625 -1.519531 17.914062 -1.816406 17.78125 -2.113281 C 17.683594 -2.375 17.652344 -2.707031 17.519531 -2.96875 C 17.421875 -3.265625 17.222656 -3.496094 17.125 -3.792969 C 16.992188 -4.089844 16.890625 -4.355469 16.761719 -4.652344 C 16.660156 -4.914062 16.628906 -5.246094 16.527344 -5.507812 C 16.398438 -5.808594 16.230469 -6.070312 16.132812 -6.335938 C 16.035156 -6.632812 15.871094 -6.894531 15.769531 -7.160156 C 15.671875 -7.421875 15.605469 -7.71875 15.507812 -7.984375 C 15.40625 -8.25 15.242188 -8.511719 15.144531 -8.777344 C 15.042969 -9.074219 14.914062 -9.335938 14.8125 -9.601562 C 14.714844 -9.863281 14.648438 -10.160156 14.550781 -10.425781 C 14.449219 -10.722656 14.351562 -10.988281 14.253906 -11.25 C 14.121094 -11.515625 14.023438 -11.777344 13.890625 -12.074219 C 13.789062 -12.339844 13.757812 -12.636719 13.660156 -12.898438 C 13.558594 -13.195312 13.363281 -13.429688 13.261719 -13.691406 C 13.164062 -13.957031 13.097656 -14.253906 13 -14.515625 C 12.867188 -14.8125 12.835938 -15.078125 12.734375 -15.375 C 12.636719 -15.636719 12.472656 -15.902344 12.339844 -16.167969 C 12.238281 -16.429688 12.175781 -16.726562 12.074219 -16.992188 C 11.941406 -17.253906 11.84375 -17.519531 11.746094 -17.816406 C 11.644531 -18.078125 11.480469 -18.34375 11.382812 -18.609375 C 11.285156 -18.871094 11.152344 -19.136719 11.050781 -19.398438 C 10.886719 -19.828125 10.855469 -20.160156 10.722656 -20.355469 C 10.457031 -20.753906 10.195312 -20.816406 9.863281 -20.851562 C 9.601562 -20.882812 9.304688 -20.882812 8.875 -20.851562 C 8.578125 -20.851562 8.414062 -20.816406 8.148438 -20.621094 C 8.015625 -20.488281 7.785156 -20.355469 7.589844 -20.058594 C 7.488281 -19.863281 7.457031 -19.597656 7.324219 -19.300781 C 7.226562 -19.070312 7.09375 -18.839844 6.996094 -18.574219 C 6.894531 -18.3125 6.828125 -18.015625 6.730469 -17.71875 C 6.632812 -17.453125 6.53125 -17.1875 6.433594 -16.890625 C 6.335938 -16.628906 6.234375 -16.332031 6.136719 -16.066406 C 6.039062 -15.769531 5.90625 -15.507812 5.808594 -15.210938 C 5.707031 -14.945312 5.707031 -14.617188 5.609375 -14.351562 C 5.507812 -14.054688 5.34375 -13.824219 5.246094 -13.527344 C 5.148438 -13.261719 5.113281 -12.964844 5.015625 -12.667969 C 4.914062 -12.371094 4.75 -12.140625 4.652344 -11.84375 C 4.585938 -11.582031 4.488281 -11.285156 4.386719 -10.988281 C 4.289062 -10.722656 4.222656 -10.425781 4.125 -10.160156 C 4.023438 -9.863281 3.925781 -9.601562 3.828125 -9.304688 C 3.726562 -9.039062 3.664062 -8.742188 3.5625 -8.445312 C 3.464844 -8.183594 3.265625 -7.917969 3.167969 -7.652344 C 3.066406 -7.390625 3.101562 -7.058594 3.003906 -6.761719 C 2.902344 -6.5 2.804688 -6.234375 2.707031 -5.9375 C 2.605469 -5.675781 2.410156 -5.410156 2.308594 -5.148438 C 2.210938 -4.851562 2.210938 -4.554688 2.113281 -4.289062 C 2.011719 -3.992188 1.878906 -3.726562 1.78125 -3.464844 C 1.714844 -3.300781 1.582031 -2.9375 1.417969 -2.539062 C 1.320312 -2.242188 1.222656 -1.914062 1.089844 -1.617188 C 0.957031 -1.1875 0.890625 -0.824219 0.890625 -0.660156 C 0.824219 -0.0976562 1.023438 0.03125 1.453125 0.03125 C 1.75 0.0664062 2.113281 0 2.539062 0.03125 C 2.835938 0.0664062 3.234375 0.0664062 3.597656 0 C 3.960938 -0.0664062 4.222656 -0.199219 4.421875 -0.527344 C 4.554688 -0.792969 4.71875 -1.023438 4.816406 -1.285156 C 4.914062 -1.550781 5.015625 -1.816406 5.113281 -2.078125 C 5.210938 -2.34375 5.277344 -2.605469 5.410156 -2.871094 C 5.507812 -3.132812 5.574219 -3.429688 5.707031 -3.695312 C 6.003906 -3.695312 6.335938 -3.726562 6.632812 -3.726562 Z M 7.058594 -8.117188 C 7.160156 -8.414062 7.257812 -8.675781 7.355469 -8.941406 C 7.457031 -9.238281 7.554688 -9.5 7.652344 -9.796875 C 7.753906 -10.0625 7.851562 -10.328125 7.984375 -10.589844 C 8.082031 -10.886719 8.148438 -11.152344 8.28125 -11.414062 C 8.378906 -11.710938 8.578125 -11.941406 8.675781 -12.207031 C 8.777344 -12.472656 8.777344 -12.800781 8.875 -13.097656 C 8.972656 -13.363281 9.140625 -13.660156 9.238281 -13.957031 C 9.402344 -13.660156 9.5 -13.328125 9.632812 -13.097656 C 9.796875 -12.800781 9.996094 -12.570312 10.128906 -12.304688 C 10.292969 -12.042969 10.394531 -11.746094 10.492188 -11.480469 C 10.625 -11.21875 10.722656 -10.921875 10.820312 -10.65625 C 10.953125 -10.359375 11.085938 -10.097656 11.183594 -9.796875 C 11.316406 -9.535156 11.480469 -9.269531 11.582031 -9.007812 C 11.710938 -8.710938 11.746094 -8.414062 11.84375 -8.117188 C 11.976562 -7.851562 12.109375 -7.589844 12.238281 -7.292969 C 11.910156 -7.292969 11.644531 -7.257812 11.347656 -7.257812 C 11.019531 -7.257812 10.722656 -7.257812 10.425781 -7.257812 C 10.097656 -7.257812 9.796875 -7.324219 9.5 -7.324219 C 9.203125 -7.324219 8.90625 -7.292969 8.578125 -7.292969 C 8.28125 -7.292969 7.984375 -7.292969 7.652344 -7.292969 C 7.355469 -7.292969 7.027344 -7.257812 6.699219 -7.257812 C 6.796875 -7.554688 6.960938 -7.851562 7.058594 -8.117188 Z M 7.058594 -8.117188 "/></g></g></g><g fill="#000000" fill-opacity="1"><g transform="translate(167.146745, 230.011816)"><g><path d="M 7.09375 -8.148438 C 7.421875 -8.214844 7.71875 -8.378906 7.984375 -8.414062 C 8.347656 -8.445312 8.675781 -8.414062 8.941406 -8.378906 C 9.304688 -8.378906 9.566406 -8.3125 9.832031 -8.148438 C 10.0625 -8.015625 10.292969 -7.820312 10.492188 -7.523438 C 10.625 -7.292969 10.753906 -6.996094 10.921875 -6.664062 C 11.019531 -6.402344 11.117188 -6.105469 11.285156 -5.808594 C 11.382812 -5.542969 11.582031 -5.277344 11.710938 -4.980469 C 11.84375 -4.683594 11.910156 -4.386719 12.042969 -4.089844 C 12.175781 -3.792969 12.304688 -3.53125 12.4375 -3.234375 C 12.570312 -2.9375 12.769531 -2.707031 12.898438 -2.410156 C 13.03125 -2.144531 13.195312 -1.847656 13.296875 -1.582031 C 13.460938 -1.253906 13.527344 -0.957031 13.660156 -0.726562 C 13.855469 -0.394531 14.121094 -0.265625 14.320312 -0.132812 C 14.582031 0 14.8125 0 15.175781 0 C 15.441406 -0.03125 15.738281 -0.03125 16.101562 -0.03125 C 16.429688 -0.03125 16.726562 0 16.925781 -0.03125 C 17.289062 -0.0976562 17.453125 -0.230469 17.421875 -0.5625 C 17.386719 -0.757812 17.355469 -1.054688 17.222656 -1.386719 C 17.15625 -1.617188 16.957031 -1.847656 16.828125 -2.144531 C 16.726562 -2.410156 16.628906 -2.671875 16.496094 -2.96875 C 16.398438 -3.234375 16.199219 -3.496094 16.066406 -3.792969 C 15.96875 -4.058594 15.835938 -4.320312 15.738281 -4.617188 C 15.605469 -4.882812 15.472656 -5.148438 15.339844 -5.410156 C 15.210938 -5.707031 15.109375 -5.972656 14.980469 -6.234375 C 14.847656 -6.53125 14.746094 -6.796875 14.617188 -7.058594 C 14.484375 -7.355469 14.351562 -7.621094 14.253906 -7.886719 C 14.121094 -8.148438 14.054688 -8.480469 13.957031 -8.742188 C 13.855469 -8.941406 13.855469 -9.203125 14.054688 -9.371094 C 14.351562 -9.632812 14.617188 -9.898438 14.847656 -10.097656 C 15.144531 -10.359375 15.472656 -10.523438 15.738281 -10.789062 C 15.933594 -11.019531 16.066406 -11.285156 16.230469 -11.515625 C 16.398438 -11.746094 16.5625 -12.007812 16.695312 -12.273438 C 16.792969 -12.539062 16.859375 -12.835938 16.957031 -13.097656 C 17.023438 -13.394531 17.089844 -13.660156 17.125 -13.957031 C 17.15625 -14.21875 17.222656 -14.515625 17.222656 -14.8125 C 17.222656 -15.109375 17.253906 -15.40625 17.222656 -15.703125 C 17.1875 -15.96875 17.058594 -16.265625 16.957031 -16.527344 C 16.890625 -16.828125 16.761719 -17.089844 16.660156 -17.355469 C 16.527344 -17.617188 16.429688 -17.882812 16.265625 -18.113281 C 16.101562 -18.34375 15.933594 -18.574219 15.738281 -18.804688 C 15.539062 -19.003906 15.308594 -19.203125 15.078125 -19.367188 C 14.847656 -19.566406 14.648438 -19.730469 14.382812 -19.894531 C 14.121094 -20.027344 13.855469 -20.125 13.59375 -20.222656 C 13.328125 -20.324219 13.066406 -20.488281 12.769531 -20.519531 C 12.4375 -20.585938 12.140625 -20.554688 11.8125 -20.621094 C 11.515625 -20.652344 11.21875 -20.71875 10.886719 -20.753906 C 10.589844 -20.785156 10.261719 -20.785156 9.964844 -20.816406 C 9.632812 -20.816406 9.335938 -20.851562 9.007812 -20.882812 C 8.710938 -20.882812 8.378906 -20.851562 8.082031 -20.882812 C 7.785156 -20.882812 7.457031 -20.882812 7.160156 -20.882812 C 6.828125 -20.882812 6.53125 -20.917969 6.203125 -20.917969 C 5.90625 -20.882812 5.574219 -20.851562 5.277344 -20.851562 C 4.914062 -20.851562 4.585938 -20.882812 4.289062 -20.882812 C 3.894531 -20.882812 3.597656 -20.816406 3.332031 -20.71875 C 3.035156 -20.585938 2.871094 -20.390625 2.769531 -19.992188 C 2.738281 -19.730469 2.707031 -19.398438 2.707031 -19.003906 C 2.671875 -18.707031 2.671875 -18.410156 2.671875 -18.113281 C 2.671875 -17.847656 2.671875 -17.550781 2.671875 -17.253906 C 2.671875 -16.957031 2.671875 -16.660156 2.671875 -16.363281 C 2.671875 -16.066406 2.671875 -15.769531 2.671875 -15.472656 C 2.671875 -15.175781 2.640625 -14.878906 2.605469 -14.582031 C 2.605469 -14.285156 2.539062 -13.988281 2.539062 -13.691406 C 2.539062 -13.394531 2.605469 -13.097656 2.605469 -12.800781 C 2.605469 -12.503906 2.574219 -12.207031 2.574219 -11.910156 C 2.574219 -11.613281 2.574219 -11.316406 2.574219 -11.019531 C 2.574219 -10.722656 2.574219 -10.425781 2.574219 -10.128906 C 2.574219 -9.832031 2.605469 -9.535156 2.605469 -9.238281 C 2.605469 -8.941406 2.539062 -8.675781 2.539062 -8.378906 C 2.539062 -8.082031 2.539062 -7.785156 2.539062 -7.488281 C 2.539062 -7.191406 2.574219 -6.894531 2.574219 -6.597656 C 2.574219 -6.300781 2.539062 -6.003906 2.539062 -5.742188 C 2.574219 -5.445312 2.574219 -5.148438 2.574219 -4.851562 C 2.574219 -4.554688 2.574219 -4.257812 2.574219 -3.960938 C 2.574219 -3.664062 2.640625 -3.367188 2.640625 -3.066406 C 2.640625 -2.804688 2.574219 -2.507812 2.539062 -2.175781 C 2.507812 -1.847656 2.539062 -1.550781 2.539062 -1.253906 C 2.574219 -0.890625 2.539062 -0.5625 2.671875 -0.328125 C 2.769531 -0.0976562 3.167969 -0.0664062 3.53125 0 C 3.894531 0.0664062 4.289062 0.0664062 4.488281 0.03125 C 4.75 -0.03125 5.046875 0 5.3125 -0.03125 C 5.640625 -0.0976562 5.9375 -0.164062 6.039062 -0.429688 C 6.136719 -0.691406 6.167969 -1.054688 6.167969 -1.417969 C 6.203125 -1.75 6.203125 -2.113281 6.203125 -2.441406 C 6.167969 -2.835938 6.167969 -3.167969 6.167969 -3.464844 C 6.167969 -3.761719 6.167969 -4.089844 6.167969 -4.386719 C 6.167969 -4.683594 6.167969 -5.015625 6.167969 -5.3125 C 6.167969 -5.609375 6.105469 -5.9375 6.105469 -6.234375 C 6.105469 -6.53125 6.203125 -6.863281 6.203125 -7.160156 C 6.203125 -7.457031 6.105469 -7.785156 6.105469 -8.082031 C 6.464844 -8.148438 6.796875 -8.117188 7.09375 -8.148438 Z M 6.269531 -12.734375 C 6.269531 -13.066406 6.300781 -13.363281 6.300781 -13.660156 C 6.300781 -13.988281 6.300781 -14.285156 6.300781 -14.582031 C 6.300781 -14.878906 6.269531 -15.210938 6.269531 -15.507812 C 6.269531 -15.804688 6.300781 -16.132812 6.300781 -16.429688 C 6.300781 -16.726562 6.300781 -16.992188 6.300781 -17.320312 C 6.632812 -17.320312 6.894531 -17.355469 7.191406 -17.355469 C 7.488281 -17.355469 7.785156 -17.355469 8.082031 -17.355469 C 8.414062 -17.355469 8.710938 -17.386719 9.007812 -17.386719 C 9.304688 -17.386719 9.601562 -17.386719 9.898438 -17.386719 C 10.195312 -17.355469 10.523438 -17.386719 10.820312 -17.386719 C 11.117188 -17.355469 11.382812 -17.289062 11.613281 -17.1875 C 11.910156 -17.125 12.207031 -17.089844 12.4375 -16.957031 C 12.667969 -16.828125 12.867188 -16.59375 13.066406 -16.429688 C 13.261719 -16.230469 13.492188 -16.035156 13.59375 -15.804688 C 13.726562 -15.539062 13.789062 -15.242188 13.789062 -14.980469 C 13.824219 -14.648438 13.726562 -14.351562 13.625 -14.023438 C 13.527344 -13.726562 13.296875 -13.492188 13.097656 -13.230469 C 12.898438 -13 12.703125 -12.734375 12.4375 -12.539062 C 12.207031 -12.371094 11.910156 -12.207031 11.613281 -12.109375 C 11.316406 -11.976562 11.019531 -11.910156 10.691406 -11.878906 C 10.425781 -11.878906 10.128906 -11.8125 9.832031 -11.8125 C 9.535156 -11.8125 9.238281 -11.8125 8.941406 -11.8125 C 8.644531 -11.8125 8.347656 -11.746094 8.050781 -11.746094 C 7.753906 -11.746094 7.457031 -11.84375 7.160156 -11.84375 C 6.863281 -11.878906 6.566406 -11.777344 6.234375 -11.777344 C 6.234375 -12.109375 6.300781 -12.4375 6.269531 -12.734375 Z M 6.269531 -12.734375 "/></g></g></g><g fill="#000000" fill-opacity="1"><g transform="translate(186.312954, 230.011816)"><g><path d="M 6.367188 -12.140625 C 6.5 -12.140625 6.730469 -11.8125 6.996094 -11.382812 C 7.125 -11.152344 7.355469 -10.886719 7.523438 -10.589844 C 7.6875 -10.328125 7.820312 -10.03125 7.953125 -9.734375 C 8.117188 -9.4375 8.214844 -9.105469 8.347656 -8.875 C 8.511719 -8.609375 8.710938 -8.378906 8.875 -8.117188 C 9.007812 -7.851562 9.171875 -7.589844 9.335938 -7.324219 C 9.5 -7.09375 9.601562 -6.796875 9.765625 -6.566406 C 9.929688 -6.300781 10.195312 -6.105469 10.328125 -5.839844 C 10.492188 -5.574219 10.691406 -5.34375 10.855469 -5.082031 C 11.019531 -4.851562 11.152344 -4.585938 11.316406 -4.320312 C 11.515625 -4.058594 11.679688 -3.828125 11.84375 -3.5625 C 12.007812 -3.300781 12.109375 -3.035156 12.273438 -2.769531 C 12.4375 -2.507812 12.636719 -2.277344 12.800781 -2.011719 C 12.964844 -1.75 13.097656 -1.453125 13.261719 -1.1875 C 13.460938 -0.957031 13.691406 -0.726562 13.921875 -0.527344 C 14.152344 -0.363281 14.417969 -0.199219 14.714844 -0.0976562 C 15.011719 0 15.308594 0 15.671875 0 C 16.035156 0 16.296875 0 16.496094 -0.03125 C 16.859375 -0.132812 16.957031 -0.328125 17.023438 -0.625 C 17.058594 -0.859375 17.058594 -1.121094 17.089844 -1.484375 C 17.089844 -1.78125 17.058594 -2.078125 17.089844 -2.375 C 17.089844 -2.671875 17.15625 -2.96875 17.1875 -3.265625 C 17.1875 -3.5625 17.125 -3.859375 17.125 -4.15625 C 17.125 -4.453125 17.15625 -4.75 17.15625 -5.046875 C 17.15625 -5.34375 17.222656 -5.640625 17.222656 -5.9375 C 17.222656 -6.234375 17.15625 -6.53125 17.1875 -6.863281 C 17.1875 -7.160156 17.253906 -7.457031 17.253906 -7.753906 C 17.253906 -8.050781 17.289062 -8.347656 17.289062 -8.644531 C 17.289062 -8.941406 17.222656 -9.238281 17.222656 -9.535156 C 17.222656 -9.832031 17.320312 -10.128906 17.320312 -10.425781 C 17.320312 -10.753906 17.320312 -11.050781 17.320312 -11.347656 C 17.355469 -11.644531 17.289062 -11.941406 17.289062 -12.238281 C 17.289062 -12.539062 17.289062 -12.835938 17.289062 -13.132812 C 17.289062 -13.429688 17.355469 -13.726562 17.355469 -14.023438 C 17.355469 -14.320312 17.386719 -14.617188 17.386719 -14.878906 C 17.386719 -15.210938 17.320312 -15.507812 17.320312 -15.769531 C 17.320312 -16.101562 17.421875 -16.398438 17.421875 -16.695312 C 17.421875 -16.992188 17.386719 -17.289062 17.386719 -17.585938 C 17.386719 -17.882812 17.386719 -18.179688 17.386719 -18.476562 C 17.386719 -18.804688 17.453125 -19.070312 17.421875 -19.332031 C 17.386719 -19.664062 17.355469 -19.960938 17.253906 -20.191406 C 17.125 -20.488281 16.925781 -20.6875 16.628906 -20.785156 C 16.398438 -20.882812 16.101562 -20.816406 15.769531 -20.816406 C 15.507812 -20.785156 15.210938 -20.785156 14.878906 -20.71875 C 14.648438 -20.6875 14.382812 -20.554688 14.085938 -20.457031 C 14.085938 -20.191406 14.023438 -19.960938 14.023438 -19.628906 C 13.988281 -19.367188 14.023438 -19.070312 14.023438 -18.773438 C 14.023438 -18.476562 13.957031 -18.179688 13.957031 -17.882812 C 13.957031 -17.585938 14.023438 -17.289062 14.023438 -16.992188 C 14.023438 -16.726562 13.957031 -16.429688 13.957031 -16.132812 C 13.957031 -15.835938 13.988281 -15.539062 13.988281 -15.242188 C 13.988281 -14.945312 13.890625 -14.648438 13.890625 -14.351562 C 13.890625 -14.085938 13.988281 -13.789062 13.988281 -13.492188 C 13.988281 -13.195312 13.921875 -12.898438 13.921875 -12.601562 C 13.921875 -12.304688 13.890625 -12.007812 13.890625 -11.746094 C 13.890625 -11.449219 13.921875 -11.152344 13.921875 -10.855469 C 13.921875 -10.558594 13.890625 -10.261719 13.890625 -9.996094 C 13.855469 -9.667969 13.824219 -9.371094 13.824219 -9.140625 C 13.789062 -8.578125 13.789062 -8.25 13.757812 -8.28125 C 13.460938 -8.3125 13.230469 -8.609375 13 -8.941406 C 12.800781 -9.269531 12.636719 -9.667969 12.503906 -9.863281 C 12.339844 -10.097656 12.109375 -10.328125 11.976562 -10.558594 C 11.8125 -10.820312 11.644531 -11.085938 11.480469 -11.347656 C 11.316406 -11.582031 11.25 -11.878906 11.085938 -12.140625 C 10.921875 -12.40625 10.691406 -12.601562 10.523438 -12.867188 C 10.394531 -13.132812 10.226562 -13.363281 10.0625 -13.625 C 9.898438 -13.890625 9.765625 -14.152344 9.601562 -14.417969 C 9.4375 -14.683594 9.304688 -14.945312 9.171875 -15.210938 C 9.007812 -15.441406 8.84375 -15.703125 8.675781 -15.96875 C 8.511719 -16.230469 8.414062 -16.496094 8.25 -16.761719 C 8.117188 -17.023438 7.886719 -17.222656 7.71875 -17.484375 C 7.554688 -17.71875 7.457031 -18.015625 7.292969 -18.246094 C 7.125 -18.507812 6.929688 -18.738281 6.761719 -19.003906 C 6.632812 -19.269531 6.464844 -19.53125 6.335938 -19.761719 C 6.136719 -20.125 5.972656 -20.324219 5.773438 -20.519531 C 5.542969 -20.71875 5.3125 -20.785156 4.949219 -20.816406 C 4.71875 -20.851562 4.386719 -20.851562 4.023438 -20.816406 C 3.496094 -20.851562 3.199219 -20.851562 3.003906 -20.851562 C 2.605469 -20.816406 2.574219 -20.6875 2.574219 -20.09375 C 2.574219 -19.796875 2.640625 -19.5 2.640625 -19.203125 C 2.640625 -18.90625 2.640625 -18.609375 2.640625 -18.3125 C 2.640625 -18.015625 2.539062 -17.71875 2.539062 -17.421875 C 2.539062 -17.125 2.574219 -16.828125 2.574219 -16.527344 C 2.574219 -16.230469 2.539062 -15.933594 2.574219 -15.636719 C 2.574219 -15.339844 2.605469 -15.042969 2.605469 -14.746094 C 2.605469 -14.449219 2.640625 -14.152344 2.640625 -13.855469 C 2.640625 -13.558594 2.605469 -13.261719 2.605469 -12.964844 C 2.605469 -12.667969 2.539062 -12.371094 2.539062 -12.109375 C 2.574219 -11.8125 2.640625 -11.515625 2.640625 -11.21875 C 2.640625 -10.921875 2.671875 -10.625 2.671875 -10.328125 C 2.671875 -10.03125 2.640625 -9.734375 2.640625 -9.4375 C 2.640625 -9.140625 2.640625 -8.84375 2.640625 -8.546875 C 2.640625 -8.28125 2.671875 -7.953125 2.671875 -7.652344 C 2.671875 -7.355469 2.640625 -7.058594 2.640625 -6.730469 C 2.640625 -6.433594 2.640625 -6.136719 2.640625 -5.808594 C 2.640625 -5.507812 2.574219 -5.210938 2.574219 -4.882812 C 2.574219 -4.585938 2.640625 -4.289062 2.640625 -3.992188 C 2.640625 -3.664062 2.605469 -3.367188 2.574219 -3.066406 C 2.574219 -2.769531 2.605469 -2.441406 2.605469 -2.144531 C 2.605469 -1.847656 2.574219 -1.519531 2.574219 -1.253906 C 2.574219 -0.859375 2.640625 -0.59375 2.769531 -0.394531 C 2.902344 -0.164062 3.132812 0 3.464844 0.0664062 C 3.695312 0.132812 3.992188 0.164062 4.320312 0.164062 C 4.683594 0.164062 4.980469 0.132812 5.246094 0.0664062 C 5.574219 0 5.839844 -0.132812 6.003906 -0.394531 C 6.136719 -0.59375 6.167969 -0.890625 6.203125 -1.253906 C 6.203125 -1.484375 6.203125 -1.78125 6.167969 -2.078125 C 6.167969 -2.375 6.167969 -2.640625 6.167969 -2.9375 C 6.136719 -3.234375 6.136719 -3.53125 6.136719 -3.761719 C 6.136719 -4.089844 6.136719 -4.421875 6.136719 -4.71875 C 6.105469 -5.046875 6.105469 -5.34375 6.105469 -5.640625 C 6.105469 -5.972656 6.105469 -6.300781 6.105469 -6.597656 C 6.105469 -6.929688 6.136719 -7.226562 6.136719 -7.554688 C 6.136719 -7.851562 6.203125 -8.183594 6.203125 -8.480469 C 6.203125 -8.808594 6.136719 -9.105469 6.136719 -9.4375 C 6.136719 -9.734375 6.136719 -10.0625 6.136719 -10.394531 C 6.136719 -10.691406 6.136719 -10.988281 6.105469 -11.347656 C 6.136719 -11.710938 6.003906 -12.207031 6.367188 -12.140625 Z M 6.367188 -12.140625 "/></g></g></g><g fill="#000000" fill-opacity="1"><g transform="translate(206.204901, 230.011816)"><g><path d="M 7.226562 -17.089844 C 7.554688 -17.089844 7.851562 -17.125 8.183594 -17.125 C 8.480469 -17.125 8.777344 -17.058594 9.105469 -17.058594 C 9.402344 -17.058594 9.699219 -17.089844 10.03125 -17.089844 C 10.328125 -17.089844 10.65625 -17.058594 10.953125 -17.058594 C 11.25 -17.058594 11.582031 -17.058594 11.878906 -17.058594 C 12.175781 -17.058594 12.503906 -17.125 12.800781 -17.125 C 13.097656 -17.125 13.429688 -17.125 13.726562 -17.125 C 14.121094 -17.125 14.449219 -17.089844 14.714844 -17.15625 C 15.078125 -17.222656 15.277344 -17.355469 15.441406 -17.683594 C 15.574219 -17.914062 15.671875 -18.210938 15.703125 -18.640625 C 15.703125 -18.96875 15.738281 -19.300781 15.738281 -19.566406 C 15.738281 -19.925781 15.703125 -20.222656 15.507812 -20.457031 C 15.308594 -20.585938 15.078125 -20.785156 14.648438 -20.851562 C 14.382812 -20.882812 14.054688 -20.816406 13.691406 -20.816406 C 13.394531 -20.816406 13.097656 -20.851562 12.835938 -20.816406 C 12.539062 -20.816406 12.238281 -20.917969 11.976562 -20.882812 C 11.679688 -20.882812 11.382812 -20.816406 11.085938 -20.816406 C 10.820312 -20.785156 10.523438 -20.753906 10.226562 -20.71875 C 9.964844 -20.71875 9.667969 -20.753906 9.371094 -20.753906 C 9.074219 -20.71875 8.742188 -20.652344 8.445312 -20.652344 C 8.117188 -20.652344 7.785156 -20.652344 7.488281 -20.6875 C 7.160156 -20.6875 6.863281 -20.753906 6.53125 -20.785156 C 6.234375 -20.816406 5.90625 -20.816406 5.609375 -20.851562 C 5.277344 -20.851562 4.949219 -20.851562 4.652344 -20.851562 C 4.320312 -20.851562 4.023438 -20.949219 3.695312 -20.949219 C 3.367188 -20.949219 3.101562 -20.851562 2.769531 -20.816406 C 2.769531 -20.554688 2.738281 -20.289062 2.738281 -19.992188 C 2.738281 -19.695312 2.671875 -19.398438 2.640625 -19.101562 C 2.640625 -18.804688 2.707031 -18.507812 2.707031 -18.246094 C 2.707031 -17.949219 2.671875 -17.652344 2.671875 -17.355469 C 2.640625 -17.058594 2.640625 -16.761719 2.640625 -16.464844 C 2.640625 -16.167969 2.671875 -15.871094 2.671875 -15.605469 C 2.671875 -15.308594 2.671875 -15.011719 2.671875 -14.714844 C 2.671875 -14.417969 2.574219 -14.121094 2.574219 -13.824219 C 2.574219 -13.558594 2.640625 -13.261719 2.640625 -12.964844 C 2.640625 -12.667969 2.605469 -12.371094 2.605469 -12.074219 C 2.605469 -11.8125 2.671875 -11.515625 2.640625 -11.21875 C 2.640625 -10.921875 2.539062 -10.625 2.507812 -10.328125 C 2.507812 -10.0625 2.605469 -9.765625 2.574219 -9.46875 C 2.574219 -9.171875 2.539062 -8.875 2.507812 -8.609375 C 2.507812 -8.3125 2.539062 -8.015625 2.539062 -7.71875 C 2.539062 -7.421875 2.539062 -7.125 2.539062 -6.863281 C 2.539062 -6.566406 2.539062 -6.269531 2.539062 -5.972656 C 2.539062 -5.707031 2.507812 -5.410156 2.507812 -5.113281 C 2.472656 -4.816406 2.605469 -4.519531 2.605469 -4.222656 C 2.605469 -3.960938 2.507812 -3.664062 2.507812 -3.367188 C 2.507812 -3.066406 2.574219 -2.769531 2.574219 -2.507812 C 2.574219 -2.210938 2.507812 -1.914062 2.507812 -1.617188 C 2.507812 -1.386719 2.738281 -1.023438 3.035156 -0.726562 C 3.332031 -0.429688 3.695312 -0.230469 3.960938 -0.199219 C 4.222656 -0.199219 4.519531 -0.164062 4.816406 -0.164062 C 5.082031 -0.132812 5.378906 -0.164062 5.675781 -0.132812 C 5.9375 -0.132812 6.234375 -0.03125 6.53125 0 C 6.796875 0 7.09375 -0.0976562 7.390625 -0.0976562 C 7.6875 -0.0976562 7.953125 -0.0664062 8.25 -0.0664062 C 8.546875 -0.0664062 8.84375 0.03125 9.105469 0.0664062 C 9.402344 0.0664062 9.699219 -0.03125 9.964844 -0.03125 C 10.261719 0 10.558594 0.03125 10.855469 0.03125 C 11.117188 0.03125 11.414062 0.0664062 11.710938 0.0664062 C 11.976562 0.0664062 12.273438 0.03125 12.570312 0.03125 C 12.867188 0.03125 13.132812 -0.03125 13.429688 -0.03125 C 13.726562 -0.03125 13.988281 0.03125 14.285156 0.03125 C 14.617188 0.03125 14.878906 -0.0664062 15.042969 -0.230469 C 15.277344 -0.394531 15.339844 -0.625 15.40625 -0.921875 C 15.441406 -1.15625 15.40625 -1.417969 15.308594 -1.683594 C 15.242188 -1.945312 15.175781 -2.210938 15.042969 -2.441406 C 14.878906 -2.707031 14.683594 -2.9375 14.515625 -3.132812 C 14.320312 -3.332031 14.085938 -3.464844 13.726562 -3.496094 C 13.429688 -3.53125 13.097656 -3.496094 12.769531 -3.496094 C 12.4375 -3.496094 12.109375 -3.5625 11.777344 -3.5625 C 11.449219 -3.5625 11.117188 -3.597656 10.789062 -3.597656 C 10.457031 -3.597656 10.160156 -3.53125 9.832031 -3.53125 C 9.5 -3.53125 9.171875 -3.464844 8.84375 -3.496094 C 8.511719 -3.496094 8.214844 -3.496094 7.886719 -3.496094 C 7.554688 -3.496094 7.226562 -3.464844 6.929688 -3.464844 C 6.367188 -3.464844 6.402344 -3.265625 6.039062 -3.5625 C 5.707031 -3.792969 5.90625 -3.828125 5.871094 -4.320312 C 5.871094 -4.554688 5.90625 -4.851562 5.90625 -5.148438 C 5.90625 -5.378906 5.871094 -5.675781 5.871094 -5.9375 C 5.871094 -6.203125 5.871094 -6.5 5.90625 -6.730469 C 5.90625 -7.027344 5.871094 -7.324219 5.90625 -7.621094 C 5.9375 -7.886719 5.972656 -8.148438 6.070312 -8.480469 C 6.335938 -8.480469 6.632812 -8.445312 6.929688 -8.445312 C 7.226562 -8.414062 7.523438 -8.445312 7.785156 -8.445312 C 8.082031 -8.445312 8.378906 -8.414062 8.675781 -8.414062 C 8.972656 -8.414062 9.238281 -8.414062 9.535156 -8.414062 C 9.832031 -8.414062 10.097656 -8.445312 10.394531 -8.480469 C 10.691406 -8.480469 10.953125 -8.445312 11.25 -8.445312 C 11.582031 -8.445312 11.84375 -8.546875 12.074219 -8.546875 C 12.40625 -8.578125 12.703125 -8.546875 12.898438 -8.644531 C 13.195312 -8.742188 13.394531 -8.941406 13.492188 -9.238281 C 13.558594 -9.4375 13.460938 -9.734375 13.429688 -10.0625 C 13.429688 -10.292969 13.460938 -10.589844 13.394531 -10.886719 C 13.363281 -11.152344 13.296875 -11.449219 13.230469 -11.746094 C 12.933594 -11.777344 12.570312 -11.710938 12.273438 -11.710938 C 11.941406 -11.746094 11.644531 -11.8125 11.316406 -11.8125 C 10.988281 -11.8125 10.691406 -11.878906 10.359375 -11.878906 C 10.03125 -11.910156 9.734375 -11.8125 9.402344 -11.84375 C 9.074219 -11.878906 8.777344 -12.007812 8.445312 -12.042969 C 8.214844 -12.042969 7.917969 -11.976562 7.652344 -11.976562 C 7.390625 -11.976562 7.125 -12.007812 6.863281 -12.007812 C 6.402344 -12.007812 6.300781 -11.679688 6.039062 -11.976562 C 5.742188 -12.304688 6.070312 -12.40625 6.039062 -12.898438 C 6.039062 -13.164062 5.972656 -13.492188 5.972656 -13.789062 C 5.972656 -14.085938 6.039062 -14.417969 6.039062 -14.683594 C 6.039062 -14.945312 6.070312 -15.175781 6.105469 -15.472656 C 6.136719 -15.703125 6.105469 -15.96875 6.136719 -16.265625 C 6.167969 -16.527344 6.269531 -16.761719 6.300781 -17.058594 C 6.632812 -17.058594 6.929688 -17.089844 7.226562 -17.089844 Z M 7.226562 -17.089844 "/></g></g></g><g fill="#000000" fill-opacity="1"><g transform="translate(223.424802, 230.011816)"><g><path d="M 7.09375 -8.148438 C 7.421875 -8.214844 7.71875 -8.378906 7.984375 -8.414062 C 8.347656 -8.445312 8.675781 -8.414062 8.941406 -8.378906 C 9.304688 -8.378906 9.566406 -8.3125 9.832031 -8.148438 C 10.0625 -8.015625 10.292969 -7.820312 10.492188 -7.523438 C 10.625 -7.292969 10.753906 -6.996094 10.921875 -6.664062 C 11.019531 -6.402344 11.117188 -6.105469 11.285156 -5.808594 C 11.382812 -5.542969 11.582031 -5.277344 11.710938 -4.980469 C 11.84375 -4.683594 11.910156 -4.386719 12.042969 -4.089844 C 12.175781 -3.792969 12.304688 -3.53125 12.4375 -3.234375 C 12.570312 -2.9375 12.769531 -2.707031 12.898438 -2.410156 C 13.03125 -2.144531 13.195312 -1.847656 13.296875 -1.582031 C 13.460938 -1.253906 13.527344 -0.957031 13.660156 -0.726562 C 13.855469 -0.394531 14.121094 -0.265625 14.320312 -0.132812 C 14.582031 0 14.8125 0 15.175781 0 C 15.441406 -0.03125 15.738281 -0.03125 16.101562 -0.03125 C 16.429688 -0.03125 16.726562 0 16.925781 -0.03125 C 17.289062 -0.0976562 17.453125 -0.230469 17.421875 -0.5625 C 17.386719 -0.757812 17.355469 -1.054688 17.222656 -1.386719 C 17.15625 -1.617188 16.957031 -1.847656 16.828125 -2.144531 C 16.726562 -2.410156 16.628906 -2.671875 16.496094 -2.96875 C 16.398438 -3.234375 16.199219 -3.496094 16.066406 -3.792969 C 15.96875 -4.058594 15.835938 -4.320312 15.738281 -4.617188 C 15.605469 -4.882812 15.472656 -5.148438 15.339844 -5.410156 C 15.210938 -5.707031 15.109375 -5.972656 14.980469 -6.234375 C 14.847656 -6.53125 14.746094 -6.796875 14.617188 -7.058594 C 14.484375 -7.355469 14.351562 -7.621094 14.253906 -7.886719 C 14.121094 -8.148438 14.054688 -8.480469 13.957031 -8.742188 C 13.855469 -8.941406 13.855469 -9.203125 14.054688 -9.371094 C 14.351562 -9.632812 14.617188 -9.898438 14.847656 -10.097656 C 15.144531 -10.359375 15.472656 -10.523438 15.738281 -10.789062 C 15.933594 -11.019531 16.066406 -11.285156 16.230469 -11.515625 C 16.398438 -11.746094 16.5625 -12.007812 16.695312 -12.273438 C 16.792969 -12.539062 16.859375 -12.835938 16.957031 -13.097656 C 17.023438 -13.394531 17.089844 -13.660156 17.125 -13.957031 C 17.15625 -14.21875 17.222656 -14.515625 17.222656 -14.8125 C 17.222656 -15.109375 17.253906 -15.40625 17.222656 -15.703125 C 17.1875 -15.96875 17.058594 -16.265625 16.957031 -16.527344 C 16.890625 -16.828125 16.761719 -17.089844 16.660156 -17.355469 C 16.527344 -17.617188 16.429688 -17.882812 16.265625 -18.113281 C 16.101562 -18.34375 15.933594 -18.574219 15.738281 -18.804688 C 15.539062 -19.003906 15.308594 -19.203125 15.078125 -19.367188 C 14.847656 -19.566406 14.648438 -19.730469 14.382812 -19.894531 C 14.121094 -20.027344 13.855469 -20.125 13.59375 -20.222656 C 13.328125 -20.324219 13.066406 -20.488281 12.769531 -20.519531 C 12.4375 -20.585938 12.140625 -20.554688 11.8125 -20.621094 C 11.515625 -20.652344 11.21875 -20.71875 10.886719 -20.753906 C 10.589844 -20.785156 10.261719 -20.785156 9.964844 -20.816406 C 9.632812 -20.816406 9.335938 -20.851562 9.007812 -20.882812 C 8.710938 -20.882812 8.378906 -20.851562 8.082031 -20.882812 C 7.785156 -20.882812 7.457031 -20.882812 7.160156 -20.882812 C 6.828125 -20.882812 6.53125 -20.917969 6.203125 -20.917969 C 5.90625 -20.882812 5.574219 -20.851562 5.277344 -20.851562 C 4.914062 -20.851562 4.585938 -20.882812 4.289062 -20.882812 C 3.894531 -20.882812 3.597656 -20.816406 3.332031 -20.71875 C 3.035156 -20.585938 2.871094 -20.390625 2.769531 -19.992188 C 2.738281 -19.730469 2.707031 -19.398438 2.707031 -19.003906 C 2.671875 -18.707031 2.671875 -18.410156 2.671875 -18.113281 C 2.671875 -17.847656 2.671875 -17.550781 2.671875 -17.253906 C 2.671875 -16.957031 2.671875 -16.660156 2.671875 -16.363281 C 2.671875 -16.066406 2.671875 -15.769531 2.671875 -15.472656 C 2.671875 -15.175781 2.640625 -14.878906 2.605469 -14.582031 C 2.605469 -14.285156 2.539062 -13.988281 2.539062 -13.691406 C 2.539062 -13.394531 2.605469 -13.097656 2.605469 -12.800781 C 2.605469 -12.503906 2.574219 -12.207031 2.574219 -11.910156 C 2.574219 -11.613281 2.574219 -11.316406 2.574219 -11.019531 C 2.574219 -10.722656 2.574219 -10.425781 2.574219 -10.128906 C 2.574219 -9.832031 2.605469 -9.535156 2.605469 -9.238281 C 2.605469 -8.941406 2.539062 -8.675781 2.539062 -8.378906 C 2.539062 -8.082031 2.539062 -7.785156 2.539062 -7.488281 C 2.539062 -7.191406 2.574219 -6.894531 2.574219 -6.597656 C 2.574219 -6.300781 2.539062 -6.003906 2.539062 -5.742188 C 2.574219 -5.445312 2.574219 -5.148438 2.574219 -4.851562 C 2.574219 -4.554688 2.574219 -4.257812 2.574219 -3.960938 C 2.574219 -3.664062 2.640625 -3.367188 2.640625 -3.066406 C 2.640625 -2.804688 2.574219 -2.507812 2.539062 -2.175781 C 2.507812 -1.847656 2.539062 -1.550781 2.539062 -1.253906 C 2.574219 -0.890625 2.539062 -0.5625 2.671875 -0.328125 C 2.769531 -0.0976562 3.167969 -0.0664062 3.53125 0 C 3.894531 0.0664062 4.289062 0.0664062 4.488281 0.03125 C 4.75 -0.03125 5.046875 0 5.3125 -0.03125 C 5.640625 -0.0976562 5.9375 -0.164062 6.039062 -0.429688 C 6.136719 -0.691406 6.167969 -1.054688 6.167969 -1.417969 C 6.203125 -1.75 6.203125 -2.113281 6.203125 -2.441406 C 6.167969 -2.835938 6.167969 -3.167969 6.167969 -3.464844 C 6.167969 -3.761719 6.167969 -4.089844 6.167969 -4.386719 C 6.167969 -4.683594 6.167969 -5.015625 6.167969 -5.3125 C 6.167969 -5.609375 6.105469 -5.9375 6.105469 -6.234375 C 6.105469 -6.53125 6.203125 -6.863281 6.203125 -7.160156 C 6.203125 -7.457031 6.105469 -7.785156 6.105469 -8.082031 C 6.464844 -8.148438 6.796875 -8.117188 7.09375 -8.148438 Z M 6.269531 -12.734375 C 6.269531 -13.066406 6.300781 -13.363281 6.300781 -13.660156 C 6.300781 -13.988281 6.300781 -14.285156 6.300781 -14.582031 C 6.300781 -14.878906 6.269531 -15.210938 6.269531 -15.507812 C 6.269531 -15.804688 6.300781 -16.132812 6.300781 -16.429688 C 6.300781 -16.726562 6.300781 -16.992188 6.300781 -17.320312 C 6.632812 -17.320312 6.894531 -17.355469 7.191406 -17.355469 C 7.488281 -17.355469 7.785156 -17.355469 8.082031 -17.355469 C 8.414062 -17.355469 8.710938 -17.386719 9.007812 -17.386719 C 9.304688 -17.386719 9.601562 -17.386719 9.898438 -17.386719 C 10.195312 -17.355469 10.523438 -17.386719 10.820312 -17.386719 C 11.117188 -17.355469 11.382812 -17.289062 11.613281 -17.1875 C 11.910156 -17.125 12.207031 -17.089844 12.4375 -16.957031 C 12.667969 -16.828125 12.867188 -16.59375 13.066406 -16.429688 C 13.261719 -16.230469 13.492188 -16.035156 13.59375 -15.804688 C 13.726562 -15.539062 13.789062 -15.242188 13.789062 -14.980469 C 13.824219 -14.648438 13.726562 -14.351562 13.625 -14.023438 C 13.527344 -13.726562 13.296875 -13.492188 13.097656 -13.230469 C 12.898438 -13 12.703125 -12.734375 12.4375 -12.539062 C 12.207031 -12.371094 11.910156 -12.207031 11.613281 -12.109375 C 11.316406 -11.976562 11.019531 -11.910156 10.691406 -11.878906 C 10.425781 -11.878906 10.128906 -11.8125 9.832031 -11.8125 C 9.535156 -11.8125 9.238281 -11.8125 8.941406 -11.8125 C 8.644531 -11.8125 8.347656 -11.746094 8.050781 -11.746094 C 7.753906 -11.746094 7.457031 -11.84375 7.160156 -11.84375 C 6.863281 -11.878906 6.566406 -11.777344 6.234375 -11.777344 C 6.234375 -12.109375 6.300781 -12.4375 6.269531 -12.734375 Z M 6.269531 -12.734375 "/></g></g></g><g fill="#000000" fill-opacity="1"><g transform="translate(242.591011, 230.011816)"><g><path d="M 5.742188 -15.738281 C 5.839844 -16.035156 5.972656 -16.296875 6.136719 -16.527344 C 6.300781 -16.761719 6.53125 -16.925781 6.761719 -17.089844 C 6.996094 -17.253906 7.191406 -17.484375 7.488281 -17.585938 C 7.753906 -17.683594 8.050781 -17.71875 8.347656 -17.75 C 8.675781 -17.816406 9.007812 -17.847656 9.304688 -17.78125 C 9.632812 -17.71875 9.929688 -17.617188 10.226562 -17.484375 C 10.523438 -17.355469 10.820312 -17.222656 11.117188 -17.058594 C 11.382812 -16.890625 11.679688 -16.695312 11.941406 -16.527344 C 12.238281 -16.363281 12.503906 -16.167969 12.769531 -16.035156 C 13.097656 -15.835938 13.328125 -15.769531 13.527344 -15.738281 C 13.824219 -15.703125 14.054688 -15.769531 14.320312 -16 C 14.484375 -16.167969 14.617188 -16.429688 14.847656 -16.695312 C 15.011719 -16.890625 15.210938 -17.222656 15.375 -17.585938 C 15.507812 -17.980469 15.636719 -18.410156 15.40625 -18.609375 C 14.945312 -18.96875 14.746094 -19.101562 14.515625 -19.269531 C 14.320312 -19.398438 14.085938 -19.566406 13.59375 -19.863281 C 13.296875 -20.058594 12.964844 -20.160156 12.703125 -20.289062 C 12.40625 -20.421875 12.109375 -20.554688 11.8125 -20.652344 C 11.515625 -20.753906 11.21875 -20.882812 10.886719 -20.949219 C 10.589844 -21.015625 10.261719 -21.113281 9.929688 -21.148438 C 9.632812 -21.179688 9.304688 -21.113281 8.972656 -21.113281 C 8.644531 -21.113281 8.347656 -21.082031 8.082031 -21.050781 C 7.753906 -21.015625 7.457031 -21.015625 7.160156 -20.949219 C 6.863281 -20.882812 6.597656 -20.785156 6.300781 -20.6875 C 6.039062 -20.585938 5.773438 -20.457031 5.507812 -20.324219 C 5.210938 -20.191406 4.949219 -20.058594 4.71875 -19.894531 C 4.453125 -19.730469 4.222656 -19.53125 4.023438 -19.332031 C 3.792969 -19.101562 3.53125 -18.9375 3.367188 -18.707031 C 3.167969 -18.476562 3.066406 -18.179688 2.902344 -17.914062 C 2.769531 -17.652344 2.605469 -17.421875 2.472656 -17.125 C 2.375 -16.859375 2.308594 -16.5625 2.242188 -16.265625 C 2.175781 -15.96875 2.113281 -15.671875 2.078125 -15.375 C 2.046875 -15.078125 2.046875 -14.78125 2.046875 -14.449219 C 2.046875 -14.152344 2.046875 -13.824219 2.113281 -13.527344 C 2.144531 -13.230469 2.242188 -12.898438 2.34375 -12.636719 C 2.441406 -12.339844 2.640625 -12.074219 2.769531 -11.8125 C 2.9375 -11.546875 3.132812 -11.285156 3.332031 -11.050781 C 3.53125 -10.820312 3.792969 -10.65625 4.058594 -10.457031 C 4.289062 -10.261719 4.554688 -10.097656 4.816406 -9.964844 C 5.082031 -9.832031 5.378906 -9.699219 5.675781 -9.601562 C 5.9375 -9.5 6.234375 -9.402344 6.5 -9.304688 C 6.796875 -9.203125 7.058594 -9.105469 7.355469 -9.007812 C 7.621094 -8.90625 7.917969 -8.808594 8.183594 -8.710938 C 8.480469 -8.609375 8.742188 -8.546875 9.039062 -8.414062 C 9.304688 -8.3125 9.566406 -8.183594 9.832031 -8.082031 C 10.128906 -7.984375 10.359375 -7.785156 10.65625 -7.6875 C 10.921875 -7.589844 11.21875 -7.523438 11.480469 -7.390625 C 11.746094 -7.226562 11.976562 -7.058594 12.175781 -6.863281 C 12.371094 -6.632812 12.539062 -6.402344 12.601562 -6.105469 C 12.636719 -5.839844 12.667969 -5.542969 12.601562 -5.210938 C 12.539062 -4.949219 12.40625 -4.652344 12.207031 -4.355469 C 12.042969 -4.125 11.777344 -3.960938 11.515625 -3.761719 C 11.285156 -3.5625 10.988281 -3.429688 10.722656 -3.300781 C 10.425781 -3.167969 10.160156 -3.035156 9.863281 -2.96875 C 9.535156 -2.902344 9.238281 -2.9375 8.941406 -2.96875 C 8.609375 -3.003906 8.3125 -3.066406 7.984375 -3.167969 C 7.6875 -3.265625 7.390625 -3.398438 7.09375 -3.5625 C 6.796875 -3.695312 6.5 -3.828125 6.234375 -3.992188 C 5.9375 -4.15625 5.707031 -4.386719 5.445312 -4.585938 C 5.179688 -4.816406 4.882812 -4.980469 4.71875 -5.210938 C 4.453125 -5.507812 4.289062 -5.707031 4.058594 -5.773438 C 3.792969 -5.839844 3.597656 -5.675781 3.300781 -5.445312 C 3.101562 -5.3125 2.902344 -5.113281 2.671875 -4.882812 C 2.410156 -4.617188 2.144531 -4.386719 1.980469 -4.191406 C 1.75 -3.894531 1.550781 -3.597656 1.648438 -3.300781 C 1.75 -3.066406 1.945312 -2.804688 2.277344 -2.539062 C 2.410156 -2.375 2.605469 -2.144531 2.9375 -1.878906 C 3.132812 -1.683594 3.367188 -1.484375 3.628906 -1.285156 C 3.859375 -1.121094 4.15625 -0.988281 4.421875 -0.824219 C 4.683594 -0.660156 4.949219 -0.527344 5.246094 -0.394531 C 5.542969 -0.265625 5.839844 -0.230469 6.136719 -0.164062 C 6.433594 -0.0664062 6.699219 0.132812 7.027344 0.164062 C 7.292969 0.230469 7.621094 0.199219 7.953125 0.230469 C 8.25 0.265625 8.546875 0.363281 8.875 0.363281 C 9.171875 0.363281 9.46875 0.328125 9.734375 0.328125 C 10.0625 0.296875 10.328125 0.230469 10.625 0.199219 C 10.921875 0.164062 11.183594 0.0664062 11.480469 0 C 11.777344 -0.0664062 12.042969 -0.132812 12.304688 -0.230469 C 12.601562 -0.328125 12.867188 -0.429688 13.132812 -0.5625 C 13.394531 -0.691406 13.660156 -0.824219 13.890625 -0.988281 C 14.152344 -1.15625 14.351562 -1.386719 14.550781 -1.582031 C 14.78125 -1.75 15.042969 -1.914062 15.210938 -2.144531 C 15.40625 -2.375 15.539062 -2.640625 15.671875 -2.902344 C 15.804688 -3.167969 15.96875 -3.398438 16.066406 -3.695312 C 16.167969 -3.960938 16.230469 -4.257812 16.296875 -4.554688 C 16.332031 -4.816406 16.332031 -5.113281 16.332031 -5.410156 C 16.332031 -5.707031 16.332031 -6.003906 16.296875 -6.300781 C 16.265625 -6.566406 16.199219 -6.863281 16.132812 -7.125 C 16.066406 -7.421875 15.933594 -7.6875 15.835938 -7.953125 C 15.738281 -8.214844 15.671875 -8.480469 15.507812 -8.742188 C 15.375 -8.972656 15.175781 -9.203125 15.011719 -9.4375 C 14.8125 -9.632812 14.582031 -9.832031 14.382812 -10.03125 C 14.152344 -10.195312 13.988281 -10.425781 13.726562 -10.589844 C 13.492188 -10.753906 13.261719 -10.886719 13 -11.019531 C 12.734375 -11.152344 12.472656 -11.25 12.175781 -11.347656 C 11.910156 -11.414062 11.644531 -11.480469 11.382812 -11.582031 C 11.152344 -11.644531 10.886719 -11.777344 10.625 -11.84375 C 10.394531 -11.941406 10.128906 -12.007812 9.863281 -12.109375 C 9.601562 -12.207031 9.335938 -12.238281 9.074219 -12.339844 C 8.808594 -12.4375 8.511719 -12.503906 8.214844 -12.636719 C 7.953125 -12.734375 7.6875 -12.898438 7.421875 -13.03125 C 7.125 -13.132812 6.863281 -13.261719 6.597656 -13.429688 C 6.335938 -13.625 6.136719 -13.824219 5.972656 -14.054688 C 5.773438 -14.285156 5.609375 -14.582031 5.574219 -14.878906 C 5.574219 -15.175781 5.675781 -15.472656 5.742188 -15.738281 Z M 5.742188 -15.738281 "/></g></g></g><g fill="#000000" fill-opacity="1"><g transform="translate(159.744523, 255.761863)"><g><path d="M 3.414062 -1.921875 C 3.570312 -1.902344 3.722656 -1.871094 3.875 -1.871094 C 4.042969 -1.871094 4.199219 -1.871094 4.351562 -1.871094 C 4.503906 -1.871094 4.65625 -1.886719 4.808594 -1.886719 C 4.960938 -1.886719 5.117188 -1.886719 5.269531 -1.886719 C 5.421875 -1.902344 5.589844 -1.9375 5.761719 -1.9375 C 5.949219 -1.921875 6.117188 -1.902344 6.269531 -1.902344 C 6.558594 -1.886719 6.558594 -1.988281 6.78125 -1.886719 C 6.96875 -1.800781 6.847656 -1.714844 6.984375 -1.511719 C 7.054688 -1.410156 7.15625 -1.308594 7.222656 -1.171875 C 7.289062 -1.054688 7.34375 -0.933594 7.394531 -0.796875 C 7.460938 -0.679688 7.527344 -0.542969 7.546875 -0.425781 C 7.597656 -0.238281 7.683594 -0.152344 7.765625 -0.0859375 C 7.867188 -0.015625 7.988281 -0.015625 8.15625 -0.015625 C 8.277344 -0.015625 8.429688 0 8.582031 0 C 8.753906 0 8.886719 -0.0351562 9.007812 -0.0507812 C 9.195312 -0.0859375 9.3125 -0.136719 9.363281 -0.238281 C 9.414062 -0.339844 9.398438 -0.476562 9.332031 -0.664062 C 9.277344 -0.78125 9.226562 -0.933594 9.160156 -1.085938 C 9.109375 -1.222656 9.09375 -1.394531 9.023438 -1.53125 C 8.972656 -1.683594 8.871094 -1.800781 8.820312 -1.953125 C 8.753906 -2.105469 8.703125 -2.242188 8.632812 -2.394531 C 8.582031 -2.53125 8.566406 -2.703125 8.515625 -2.839844 C 8.445312 -2.992188 8.363281 -3.128906 8.3125 -3.261719 C 8.257812 -3.414062 8.175781 -3.550781 8.125 -3.6875 C 8.074219 -3.824219 8.039062 -3.976562 7.988281 -4.113281 C 7.9375 -4.25 7.851562 -4.382812 7.800781 -4.519531 C 7.75 -4.671875 7.683594 -4.808594 7.628906 -4.945312 C 7.578125 -5.082031 7.546875 -5.234375 7.496094 -5.371094 C 7.445312 -5.523438 7.394531 -5.660156 7.34375 -5.796875 C 7.273438 -5.929688 7.222656 -6.066406 7.15625 -6.21875 C 7.105469 -6.355469 7.085938 -6.507812 7.035156 -6.644531 C 6.984375 -6.796875 6.882812 -6.917969 6.832031 -7.054688 C 6.78125 -7.1875 6.746094 -7.34375 6.695312 -7.476562 C 6.628906 -7.628906 6.609375 -7.765625 6.558594 -7.917969 C 6.507812 -8.054688 6.425781 -8.191406 6.355469 -8.328125 C 6.304688 -8.464844 6.269531 -8.617188 6.21875 -8.753906 C 6.152344 -8.886719 6.101562 -9.023438 6.050781 -9.175781 C 6 -9.3125 5.914062 -9.449219 5.863281 -9.585938 C 5.8125 -9.722656 5.746094 -9.855469 5.691406 -9.992188 C 5.609375 -10.214844 5.589844 -10.382812 5.523438 -10.484375 C 5.386719 -10.691406 5.25 -10.722656 5.082031 -10.742188 C 4.945312 -10.757812 4.792969 -10.757812 4.570312 -10.742188 C 4.417969 -10.742188 4.332031 -10.722656 4.199219 -10.621094 C 4.128906 -10.554688 4.011719 -10.484375 3.910156 -10.332031 C 3.859375 -10.230469 3.839844 -10.09375 3.773438 -9.941406 C 3.722656 -9.824219 3.652344 -9.703125 3.601562 -9.566406 C 3.550781 -9.433594 3.519531 -9.277344 3.46875 -9.125 C 3.414062 -8.992188 3.363281 -8.855469 3.3125 -8.703125 C 3.261719 -8.566406 3.210938 -8.414062 3.160156 -8.277344 C 3.109375 -8.125 3.042969 -7.988281 2.992188 -7.835938 C 2.941406 -7.699219 2.941406 -7.527344 2.890625 -7.394531 C 2.839844 -7.238281 2.753906 -7.121094 2.703125 -6.96875 C 2.652344 -6.832031 2.632812 -6.679688 2.582031 -6.527344 C 2.53125 -6.375 2.449219 -6.253906 2.394531 -6.101562 C 2.363281 -5.964844 2.3125 -5.8125 2.261719 -5.660156 C 2.210938 -5.523438 2.175781 -5.371094 2.125 -5.234375 C 2.074219 -5.082031 2.023438 -4.945312 1.972656 -4.792969 C 1.921875 -4.65625 1.886719 -4.503906 1.835938 -4.351562 C 1.785156 -4.214844 1.683594 -4.078125 1.632812 -3.941406 C 1.582031 -3.808594 1.597656 -3.636719 1.546875 -3.484375 C 1.496094 -3.347656 1.445312 -3.210938 1.394531 -3.058594 C 1.34375 -2.921875 1.242188 -2.789062 1.191406 -2.652344 C 1.136719 -2.5 1.136719 -2.34375 1.085938 -2.210938 C 1.035156 -2.054688 0.96875 -1.921875 0.917969 -1.785156 C 0.882812 -1.699219 0.816406 -1.511719 0.730469 -1.308594 C 0.679688 -1.15625 0.628906 -0.984375 0.5625 -0.832031 C 0.492188 -0.613281 0.457031 -0.425781 0.457031 -0.339844 C 0.425781 -0.0507812 0.527344 0.015625 0.746094 0.015625 C 0.902344 0.0351562 1.085938 0 1.308594 0.015625 C 1.460938 0.0351562 1.664062 0.0351562 1.851562 0 C 2.039062 -0.0351562 2.175781 -0.101562 2.277344 -0.273438 C 2.34375 -0.40625 2.429688 -0.527344 2.480469 -0.664062 C 2.53125 -0.796875 2.582031 -0.933594 2.632812 -1.070312 C 2.683594 -1.207031 2.71875 -1.34375 2.789062 -1.480469 C 2.839844 -1.613281 2.871094 -1.765625 2.941406 -1.902344 C 3.09375 -1.902344 3.261719 -1.921875 3.414062 -1.921875 Z M 3.636719 -4.179688 C 3.6875 -4.332031 3.738281 -4.46875 3.789062 -4.605469 C 3.839844 -4.757812 3.890625 -4.894531 3.941406 -5.046875 C 3.992188 -5.183594 4.042969 -5.320312 4.113281 -5.457031 C 4.164062 -5.609375 4.199219 -5.746094 4.265625 -5.878906 C 4.316406 -6.035156 4.417969 -6.152344 4.46875 -6.289062 C 4.519531 -6.425781 4.519531 -6.59375 4.570312 -6.746094 C 4.621094 -6.882812 4.707031 -7.035156 4.757812 -7.1875 C 4.84375 -7.035156 4.894531 -6.867188 4.960938 -6.746094 C 5.046875 -6.59375 5.148438 -6.476562 5.21875 -6.339844 C 5.300781 -6.203125 5.351562 -6.050781 5.40625 -5.914062 C 5.472656 -5.777344 5.523438 -5.625 5.574219 -5.488281 C 5.640625 -5.335938 5.710938 -5.199219 5.761719 -5.046875 C 5.828125 -4.910156 5.914062 -4.777344 5.964844 -4.640625 C 6.035156 -4.488281 6.050781 -4.332031 6.101562 -4.179688 C 6.167969 -4.042969 6.238281 -3.910156 6.304688 -3.757812 C 6.136719 -3.757812 6 -3.738281 5.847656 -3.738281 C 5.675781 -3.738281 5.523438 -3.738281 5.371094 -3.738281 C 5.199219 -3.738281 5.046875 -3.773438 4.894531 -3.773438 C 4.742188 -3.773438 4.589844 -3.757812 4.417969 -3.757812 C 4.265625 -3.757812 4.113281 -3.757812 3.941406 -3.757812 C 3.789062 -3.757812 3.621094 -3.738281 3.449219 -3.738281 C 3.5 -3.890625 3.585938 -4.042969 3.636719 -4.179688 Z M 3.636719 -4.179688 "/></g></g></g><g fill="#000000" fill-opacity="1"><g transform="translate(171.299963, 255.761863)"><g><path d="M 3.652344 -4.199219 C 3.824219 -4.230469 3.976562 -4.316406 4.113281 -4.332031 C 4.300781 -4.351562 4.46875 -4.332031 4.605469 -4.316406 C 4.792969 -4.316406 4.929688 -4.28125 5.066406 -4.199219 C 5.183594 -4.128906 5.300781 -4.027344 5.40625 -3.875 C 5.472656 -3.757812 5.539062 -3.601562 5.625 -3.433594 C 5.675781 -3.296875 5.726562 -3.144531 5.8125 -2.992188 C 5.863281 -2.855469 5.964844 -2.71875 6.035156 -2.566406 C 6.101562 -2.414062 6.136719 -2.261719 6.203125 -2.105469 C 6.269531 -1.953125 6.339844 -1.820312 6.40625 -1.664062 C 6.476562 -1.511719 6.578125 -1.394531 6.644531 -1.242188 C 6.714844 -1.105469 6.796875 -0.953125 6.847656 -0.816406 C 6.933594 -0.644531 6.96875 -0.492188 7.035156 -0.375 C 7.136719 -0.203125 7.273438 -0.136719 7.375 -0.0664062 C 7.511719 0 7.628906 0 7.816406 0 C 7.953125 -0.015625 8.105469 -0.015625 8.292969 -0.015625 C 8.464844 -0.015625 8.617188 0 8.71875 -0.015625 C 8.90625 -0.0507812 8.992188 -0.117188 8.972656 -0.289062 C 8.957031 -0.390625 8.9375 -0.542969 8.871094 -0.714844 C 8.835938 -0.832031 8.734375 -0.953125 8.667969 -1.105469 C 8.617188 -1.242188 8.566406 -1.375 8.496094 -1.53125 C 8.445312 -1.664062 8.34375 -1.800781 8.277344 -1.953125 C 8.226562 -2.089844 8.15625 -2.226562 8.105469 -2.378906 C 8.039062 -2.515625 7.96875 -2.652344 7.902344 -2.789062 C 7.835938 -2.941406 7.785156 -3.074219 7.714844 -3.210938 C 7.648438 -3.363281 7.597656 -3.5 7.527344 -3.636719 C 7.460938 -3.789062 7.394531 -3.925781 7.34375 -4.0625 C 7.273438 -4.199219 7.238281 -4.367188 7.1875 -4.503906 C 7.136719 -4.605469 7.136719 -4.742188 7.238281 -4.828125 C 7.394531 -4.960938 7.527344 -5.097656 7.648438 -5.199219 C 7.800781 -5.335938 7.96875 -5.421875 8.105469 -5.558594 C 8.207031 -5.675781 8.277344 -5.8125 8.363281 -5.929688 C 8.445312 -6.050781 8.53125 -6.1875 8.597656 -6.320312 C 8.652344 -6.457031 8.683594 -6.609375 8.734375 -6.746094 C 8.769531 -6.898438 8.804688 -7.035156 8.820312 -7.1875 C 8.835938 -7.324219 8.871094 -7.476562 8.871094 -7.628906 C 8.871094 -7.785156 8.886719 -7.9375 8.871094 -8.089844 C 8.855469 -8.226562 8.785156 -8.378906 8.734375 -8.515625 C 8.703125 -8.667969 8.632812 -8.804688 8.582031 -8.9375 C 8.515625 -9.074219 8.464844 -9.210938 8.378906 -9.332031 C 8.292969 -9.449219 8.207031 -9.566406 8.105469 -9.6875 C 8.003906 -9.789062 7.886719 -9.890625 7.765625 -9.976562 C 7.648438 -10.078125 7.546875 -10.164062 7.410156 -10.246094 C 7.273438 -10.316406 7.136719 -10.367188 7 -10.417969 C 6.867188 -10.46875 6.730469 -10.554688 6.578125 -10.570312 C 6.40625 -10.605469 6.253906 -10.585938 6.085938 -10.621094 C 5.929688 -10.640625 5.777344 -10.671875 5.609375 -10.691406 C 5.457031 -10.707031 5.285156 -10.707031 5.132812 -10.722656 C 4.960938 -10.722656 4.808594 -10.742188 4.640625 -10.757812 C 4.488281 -10.757812 4.316406 -10.742188 4.164062 -10.757812 C 4.011719 -10.757812 3.839844 -10.757812 3.6875 -10.757812 C 3.519531 -10.757812 3.363281 -10.773438 3.195312 -10.773438 C 3.042969 -10.757812 2.871094 -10.742188 2.71875 -10.742188 C 2.53125 -10.742188 2.363281 -10.757812 2.210938 -10.757812 C 2.003906 -10.757812 1.851562 -10.722656 1.714844 -10.671875 C 1.5625 -10.605469 1.480469 -10.503906 1.425781 -10.300781 C 1.410156 -10.164062 1.394531 -9.992188 1.394531 -9.789062 C 1.375 -9.636719 1.375 -9.484375 1.375 -9.332031 C 1.375 -9.195312 1.375 -9.042969 1.375 -8.886719 C 1.375 -8.734375 1.375 -8.582031 1.375 -8.429688 C 1.375 -8.277344 1.375 -8.125 1.375 -7.96875 C 1.375 -7.816406 1.359375 -7.664062 1.34375 -7.511719 C 1.34375 -7.359375 1.308594 -7.207031 1.308594 -7.054688 C 1.308594 -6.898438 1.34375 -6.746094 1.34375 -6.59375 C 1.34375 -6.441406 1.324219 -6.289062 1.324219 -6.136719 C 1.324219 -5.980469 1.324219 -5.828125 1.324219 -5.675781 C 1.324219 -5.523438 1.324219 -5.371094 1.324219 -5.21875 C 1.324219 -5.066406 1.34375 -4.910156 1.34375 -4.757812 C 1.34375 -4.605469 1.308594 -4.46875 1.308594 -4.316406 C 1.308594 -4.164062 1.308594 -4.011719 1.308594 -3.859375 C 1.308594 -3.703125 1.324219 -3.550781 1.324219 -3.398438 C 1.324219 -3.246094 1.308594 -3.09375 1.308594 -2.957031 C 1.324219 -2.804688 1.324219 -2.652344 1.324219 -2.5 C 1.324219 -2.34375 1.324219 -2.191406 1.324219 -2.039062 C 1.324219 -1.886719 1.359375 -1.734375 1.359375 -1.582031 C 1.359375 -1.445312 1.324219 -1.292969 1.308594 -1.121094 C 1.292969 -0.953125 1.308594 -0.796875 1.308594 -0.644531 C 1.324219 -0.457031 1.308594 -0.289062 1.375 -0.171875 C 1.425781 -0.0507812 1.632812 -0.0351562 1.820312 0 C 2.003906 0.0351562 2.210938 0.0351562 2.3125 0.015625 C 2.449219 -0.015625 2.601562 0 2.734375 -0.015625 C 2.90625 -0.0507812 3.058594 -0.0859375 3.109375 -0.222656 C 3.160156 -0.355469 3.179688 -0.542969 3.179688 -0.730469 C 3.195312 -0.902344 3.195312 -1.085938 3.195312 -1.257812 C 3.179688 -1.460938 3.179688 -1.632812 3.179688 -1.785156 C 3.179688 -1.9375 3.179688 -2.105469 3.179688 -2.261719 C 3.179688 -2.414062 3.179688 -2.582031 3.179688 -2.734375 C 3.179688 -2.890625 3.144531 -3.058594 3.144531 -3.210938 C 3.144531 -3.363281 3.195312 -3.535156 3.195312 -3.6875 C 3.195312 -3.839844 3.144531 -4.011719 3.144531 -4.164062 C 3.332031 -4.199219 3.5 -4.179688 3.652344 -4.199219 Z M 3.230469 -6.558594 C 3.230469 -6.730469 3.246094 -6.882812 3.246094 -7.035156 C 3.246094 -7.207031 3.246094 -7.359375 3.246094 -7.511719 C 3.246094 -7.664062 3.230469 -7.835938 3.230469 -7.988281 C 3.230469 -8.140625 3.246094 -8.3125 3.246094 -8.464844 C 3.246094 -8.617188 3.246094 -8.753906 3.246094 -8.921875 C 3.414062 -8.921875 3.550781 -8.9375 3.703125 -8.9375 C 3.859375 -8.9375 4.011719 -8.9375 4.164062 -8.9375 C 4.332031 -8.9375 4.488281 -8.957031 4.640625 -8.957031 C 4.792969 -8.957031 4.945312 -8.957031 5.097656 -8.957031 C 5.25 -8.9375 5.421875 -8.957031 5.574219 -8.957031 C 5.726562 -8.9375 5.863281 -8.90625 5.980469 -8.855469 C 6.136719 -8.820312 6.289062 -8.804688 6.40625 -8.734375 C 6.527344 -8.667969 6.628906 -8.546875 6.730469 -8.464844 C 6.832031 -8.363281 6.949219 -8.257812 7 -8.140625 C 7.070312 -8.003906 7.105469 -7.851562 7.105469 -7.714844 C 7.121094 -7.546875 7.070312 -7.394531 7.019531 -7.222656 C 6.96875 -7.070312 6.847656 -6.949219 6.746094 -6.816406 C 6.644531 -6.695312 6.542969 -6.558594 6.40625 -6.457031 C 6.289062 -6.375 6.136719 -6.289062 5.980469 -6.238281 C 5.828125 -6.167969 5.675781 -6.136719 5.507812 -6.117188 C 5.371094 -6.117188 5.21875 -6.085938 5.066406 -6.085938 C 4.910156 -6.085938 4.757812 -6.085938 4.605469 -6.085938 C 4.453125 -6.085938 4.300781 -6.050781 4.148438 -6.050781 C 3.992188 -6.050781 3.839844 -6.101562 3.6875 -6.101562 C 3.535156 -6.117188 3.382812 -6.066406 3.210938 -6.066406 C 3.210938 -6.238281 3.246094 -6.40625 3.230469 -6.558594 Z M 3.230469 -6.558594 "/></g></g></g><g fill="#000000" fill-opacity="1"><g transform="translate(182.872397, 255.761863)"><g><path d="M 3.722656 -8.804688 C 3.890625 -8.804688 4.042969 -8.820312 4.214844 -8.820312 C 4.367188 -8.820312 4.519531 -8.785156 4.691406 -8.785156 C 4.84375 -8.785156 4.996094 -8.804688 5.167969 -8.804688 C 5.320312 -8.804688 5.488281 -8.785156 5.640625 -8.785156 C 5.796875 -8.785156 5.964844 -8.785156 6.117188 -8.785156 C 6.269531 -8.785156 6.441406 -8.820312 6.59375 -8.820312 C 6.746094 -8.820312 6.917969 -8.820312 7.070312 -8.820312 C 7.273438 -8.820312 7.445312 -8.804688 7.578125 -8.835938 C 7.765625 -8.871094 7.867188 -8.9375 7.953125 -9.109375 C 8.023438 -9.226562 8.074219 -9.382812 8.089844 -9.601562 C 8.089844 -9.773438 8.105469 -9.941406 8.105469 -10.078125 C 8.105469 -10.265625 8.089844 -10.417969 7.988281 -10.535156 C 7.886719 -10.605469 7.765625 -10.707031 7.546875 -10.742188 C 7.410156 -10.757812 7.238281 -10.722656 7.054688 -10.722656 C 6.898438 -10.722656 6.746094 -10.742188 6.609375 -10.722656 C 6.457031 -10.722656 6.304688 -10.773438 6.167969 -10.757812 C 6.015625 -10.757812 5.863281 -10.722656 5.710938 -10.722656 C 5.574219 -10.707031 5.421875 -10.691406 5.269531 -10.671875 C 5.132812 -10.671875 4.980469 -10.691406 4.828125 -10.691406 C 4.671875 -10.671875 4.503906 -10.640625 4.351562 -10.640625 C 4.179688 -10.640625 4.011719 -10.640625 3.859375 -10.65625 C 3.6875 -10.65625 3.535156 -10.691406 3.363281 -10.707031 C 3.210938 -10.722656 3.042969 -10.722656 2.890625 -10.742188 C 2.71875 -10.742188 2.550781 -10.742188 2.394531 -10.742188 C 2.226562 -10.742188 2.074219 -10.792969 1.902344 -10.792969 C 1.734375 -10.792969 1.597656 -10.742188 1.425781 -10.722656 C 1.425781 -10.585938 1.410156 -10.453125 1.410156 -10.300781 C 1.410156 -10.144531 1.375 -9.992188 1.359375 -9.839844 C 1.359375 -9.6875 1.394531 -9.535156 1.394531 -9.398438 C 1.394531 -9.246094 1.375 -9.09375 1.375 -8.9375 C 1.359375 -8.785156 1.359375 -8.632812 1.359375 -8.480469 C 1.359375 -8.328125 1.375 -8.175781 1.375 -8.039062 C 1.375 -7.886719 1.375 -7.734375 1.375 -7.578125 C 1.375 -7.425781 1.324219 -7.273438 1.324219 -7.121094 C 1.324219 -6.984375 1.359375 -6.832031 1.359375 -6.679688 C 1.359375 -6.527344 1.34375 -6.375 1.34375 -6.21875 C 1.34375 -6.085938 1.375 -5.929688 1.359375 -5.777344 C 1.359375 -5.625 1.308594 -5.472656 1.292969 -5.320312 C 1.292969 -5.183594 1.34375 -5.03125 1.324219 -4.878906 C 1.324219 -4.726562 1.308594 -4.570312 1.292969 -4.4375 C 1.292969 -4.28125 1.308594 -4.128906 1.308594 -3.976562 C 1.308594 -3.824219 1.308594 -3.671875 1.308594 -3.535156 C 1.308594 -3.382812 1.308594 -3.230469 1.308594 -3.074219 C 1.308594 -2.941406 1.292969 -2.789062 1.292969 -2.632812 C 1.273438 -2.480469 1.34375 -2.328125 1.34375 -2.175781 C 1.34375 -2.039062 1.292969 -1.886719 1.292969 -1.734375 C 1.292969 -1.582031 1.324219 -1.425781 1.324219 -1.292969 C 1.324219 -1.136719 1.292969 -0.984375 1.292969 -0.832031 C 1.292969 -0.714844 1.410156 -0.527344 1.5625 -0.375 C 1.714844 -0.222656 1.902344 -0.117188 2.039062 -0.101562 C 2.175781 -0.101562 2.328125 -0.0859375 2.480469 -0.0859375 C 2.617188 -0.0664062 2.769531 -0.0859375 2.921875 -0.0664062 C 3.058594 -0.0664062 3.210938 -0.015625 3.363281 0 C 3.5 0 3.652344 -0.0507812 3.808594 -0.0507812 C 3.960938 -0.0507812 4.097656 -0.0351562 4.25 -0.0351562 C 4.402344 -0.0351562 4.554688 0.015625 4.691406 0.0351562 C 4.84375 0.0351562 4.996094 -0.015625 5.132812 -0.015625 C 5.285156 0 5.4375 0.015625 5.589844 0.015625 C 5.726562 0.015625 5.878906 0.0351562 6.035156 0.0351562 C 6.167969 0.0351562 6.320312 0.015625 6.476562 0.015625 C 6.628906 0.015625 6.765625 -0.015625 6.917969 -0.015625 C 7.070312 -0.015625 7.207031 0.015625 7.359375 0.015625 C 7.527344 0.015625 7.664062 -0.0351562 7.75 -0.117188 C 7.867188 -0.203125 7.902344 -0.324219 7.9375 -0.476562 C 7.953125 -0.59375 7.9375 -0.730469 7.886719 -0.867188 C 7.851562 -1.003906 7.816406 -1.136719 7.75 -1.257812 C 7.664062 -1.394531 7.5625 -1.511719 7.476562 -1.613281 C 7.375 -1.714844 7.257812 -1.785156 7.070312 -1.800781 C 6.917969 -1.820312 6.746094 -1.800781 6.578125 -1.800781 C 6.40625 -1.800781 6.238281 -1.835938 6.066406 -1.835938 C 5.898438 -1.835938 5.726562 -1.851562 5.558594 -1.851562 C 5.386719 -1.851562 5.234375 -1.820312 5.066406 -1.820312 C 4.894531 -1.820312 4.726562 -1.785156 4.554688 -1.800781 C 4.382812 -1.800781 4.230469 -1.800781 4.0625 -1.800781 C 3.890625 -1.800781 3.722656 -1.785156 3.570312 -1.785156 C 3.28125 -1.785156 3.296875 -1.683594 3.109375 -1.835938 C 2.941406 -1.953125 3.042969 -1.972656 3.023438 -2.226562 C 3.023438 -2.34375 3.042969 -2.5 3.042969 -2.652344 C 3.042969 -2.769531 3.023438 -2.921875 3.023438 -3.058594 C 3.023438 -3.195312 3.023438 -3.347656 3.042969 -3.46875 C 3.042969 -3.621094 3.023438 -3.773438 3.042969 -3.925781 C 3.058594 -4.0625 3.074219 -4.199219 3.128906 -4.367188 C 3.261719 -4.367188 3.414062 -4.351562 3.570312 -4.351562 C 3.722656 -4.332031 3.875 -4.351562 4.011719 -4.351562 C 4.164062 -4.351562 4.316406 -4.332031 4.46875 -4.332031 C 4.621094 -4.332031 4.757812 -4.332031 4.910156 -4.332031 C 5.066406 -4.332031 5.199219 -4.351562 5.351562 -4.367188 C 5.507812 -4.367188 5.640625 -4.351562 5.796875 -4.351562 C 5.964844 -4.351562 6.101562 -4.402344 6.21875 -4.402344 C 6.390625 -4.417969 6.542969 -4.402344 6.644531 -4.453125 C 6.796875 -4.503906 6.898438 -4.605469 6.949219 -4.757812 C 6.984375 -4.859375 6.933594 -5.011719 6.917969 -5.183594 C 6.917969 -5.300781 6.933594 -5.457031 6.898438 -5.609375 C 6.882812 -5.746094 6.847656 -5.898438 6.816406 -6.050781 C 6.660156 -6.066406 6.476562 -6.035156 6.320312 -6.035156 C 6.152344 -6.050781 6 -6.085938 5.828125 -6.085938 C 5.660156 -6.085938 5.507812 -6.117188 5.335938 -6.117188 C 5.167969 -6.136719 5.011719 -6.085938 4.84375 -6.101562 C 4.671875 -6.117188 4.519531 -6.1875 4.351562 -6.203125 C 4.230469 -6.203125 4.078125 -6.167969 3.941406 -6.167969 C 3.808594 -6.167969 3.671875 -6.1875 3.535156 -6.1875 C 3.296875 -6.1875 3.246094 -6.015625 3.109375 -6.167969 C 2.957031 -6.339844 3.128906 -6.390625 3.109375 -6.644531 C 3.109375 -6.78125 3.074219 -6.949219 3.074219 -7.105469 C 3.074219 -7.257812 3.109375 -7.425781 3.109375 -7.5625 C 3.109375 -7.699219 3.128906 -7.816406 3.144531 -7.96875 C 3.160156 -8.089844 3.144531 -8.226562 3.160156 -8.378906 C 3.179688 -8.515625 3.230469 -8.632812 3.246094 -8.785156 C 3.414062 -8.785156 3.570312 -8.804688 3.722656 -8.804688 Z M 3.722656 -8.804688 "/></g></g></g><g fill="#000000" fill-opacity="1"><g transform="translate(193.442295, 255.761863)"><g><path d="M 3.28125 -6.253906 C 3.347656 -6.253906 3.46875 -6.085938 3.601562 -5.863281 C 3.671875 -5.746094 3.789062 -5.609375 3.875 -5.457031 C 3.960938 -5.320312 4.027344 -5.167969 4.097656 -5.011719 C 4.179688 -4.859375 4.230469 -4.691406 4.300781 -4.570312 C 4.382812 -4.4375 4.488281 -4.316406 4.570312 -4.179688 C 4.640625 -4.042969 4.726562 -3.910156 4.808594 -3.773438 C 4.894531 -3.652344 4.945312 -3.5 5.03125 -3.382812 C 5.117188 -3.246094 5.25 -3.144531 5.320312 -3.007812 C 5.40625 -2.871094 5.507812 -2.753906 5.589844 -2.617188 C 5.675781 -2.5 5.746094 -2.363281 5.828125 -2.226562 C 5.929688 -2.089844 6.015625 -1.972656 6.101562 -1.835938 C 6.1875 -1.699219 6.238281 -1.5625 6.320312 -1.425781 C 6.40625 -1.292969 6.507812 -1.171875 6.59375 -1.035156 C 6.679688 -0.902344 6.746094 -0.746094 6.832031 -0.613281 C 6.933594 -0.492188 7.054688 -0.375 7.171875 -0.273438 C 7.289062 -0.1875 7.425781 -0.101562 7.578125 -0.0507812 C 7.734375 0 7.886719 0 8.074219 0 C 8.257812 0 8.394531 0 8.496094 -0.015625 C 8.683594 -0.0664062 8.734375 -0.171875 8.769531 -0.324219 C 8.785156 -0.441406 8.785156 -0.578125 8.804688 -0.765625 C 8.804688 -0.917969 8.785156 -1.070312 8.804688 -1.222656 C 8.804688 -1.375 8.835938 -1.53125 8.855469 -1.683594 C 8.855469 -1.835938 8.820312 -1.988281 8.820312 -2.140625 C 8.820312 -2.292969 8.835938 -2.449219 8.835938 -2.601562 C 8.835938 -2.753906 8.871094 -2.90625 8.871094 -3.058594 C 8.871094 -3.210938 8.835938 -3.363281 8.855469 -3.535156 C 8.855469 -3.6875 8.886719 -3.839844 8.886719 -3.992188 C 8.886719 -4.148438 8.90625 -4.300781 8.90625 -4.453125 C 8.90625 -4.605469 8.871094 -4.757812 8.871094 -4.910156 C 8.871094 -5.066406 8.921875 -5.21875 8.921875 -5.371094 C 8.921875 -5.539062 8.921875 -5.691406 8.921875 -5.847656 C 8.9375 -6 8.90625 -6.152344 8.90625 -6.304688 C 8.90625 -6.457031 8.90625 -6.609375 8.90625 -6.765625 C 8.90625 -6.917969 8.9375 -7.070312 8.9375 -7.222656 C 8.9375 -7.375 8.957031 -7.527344 8.957031 -7.664062 C 8.957031 -7.835938 8.921875 -7.988281 8.921875 -8.125 C 8.921875 -8.292969 8.972656 -8.445312 8.972656 -8.597656 C 8.972656 -8.753906 8.957031 -8.90625 8.957031 -9.058594 C 8.957031 -9.210938 8.957031 -9.363281 8.957031 -9.515625 C 8.957031 -9.6875 8.992188 -9.824219 8.972656 -9.960938 C 8.957031 -10.128906 8.9375 -10.28125 8.886719 -10.402344 C 8.820312 -10.554688 8.71875 -10.65625 8.566406 -10.707031 C 8.445312 -10.757812 8.292969 -10.722656 8.125 -10.722656 C 7.988281 -10.707031 7.835938 -10.707031 7.664062 -10.671875 C 7.546875 -10.65625 7.410156 -10.585938 7.257812 -10.535156 C 7.257812 -10.402344 7.222656 -10.28125 7.222656 -10.113281 C 7.207031 -9.976562 7.222656 -9.824219 7.222656 -9.671875 C 7.222656 -9.515625 7.1875 -9.363281 7.1875 -9.210938 C 7.1875 -9.058594 7.222656 -8.90625 7.222656 -8.753906 C 7.222656 -8.617188 7.1875 -8.464844 7.1875 -8.3125 C 7.1875 -8.15625 7.207031 -8.003906 7.207031 -7.851562 C 7.207031 -7.699219 7.15625 -7.546875 7.15625 -7.394531 C 7.15625 -7.257812 7.207031 -7.105469 7.207031 -6.949219 C 7.207031 -6.796875 7.171875 -6.644531 7.171875 -6.492188 C 7.171875 -6.339844 7.15625 -6.1875 7.15625 -6.050781 C 7.15625 -5.898438 7.171875 -5.746094 7.171875 -5.589844 C 7.171875 -5.4375 7.15625 -5.285156 7.15625 -5.148438 C 7.136719 -4.980469 7.121094 -4.828125 7.121094 -4.707031 C 7.105469 -4.417969 7.105469 -4.25 7.085938 -4.265625 C 6.933594 -4.28125 6.816406 -4.4375 6.695312 -4.605469 C 6.59375 -4.777344 6.507812 -4.980469 6.441406 -5.082031 C 6.355469 -5.199219 6.238281 -5.320312 6.167969 -5.4375 C 6.085938 -5.574219 6 -5.710938 5.914062 -5.847656 C 5.828125 -5.964844 5.796875 -6.117188 5.710938 -6.253906 C 5.625 -6.390625 5.507812 -6.492188 5.421875 -6.628906 C 5.351562 -6.765625 5.269531 -6.882812 5.183594 -7.019531 C 5.097656 -7.15625 5.03125 -7.289062 4.945312 -7.425781 C 4.859375 -7.5625 4.792969 -7.699219 4.726562 -7.835938 C 4.640625 -7.953125 4.554688 -8.089844 4.46875 -8.226562 C 4.382812 -8.363281 4.332031 -8.496094 4.25 -8.632812 C 4.179688 -8.769531 4.0625 -8.871094 3.976562 -9.007812 C 3.890625 -9.125 3.839844 -9.277344 3.757812 -9.398438 C 3.671875 -9.535156 3.570312 -9.652344 3.484375 -9.789062 C 3.414062 -9.925781 3.332031 -10.0625 3.261719 -10.179688 C 3.160156 -10.367188 3.074219 -10.46875 2.972656 -10.570312 C 2.855469 -10.671875 2.734375 -10.707031 2.550781 -10.722656 C 2.429688 -10.742188 2.261719 -10.742188 2.074219 -10.722656 C 1.800781 -10.742188 1.648438 -10.742188 1.546875 -10.742188 C 1.34375 -10.722656 1.324219 -10.65625 1.324219 -10.351562 C 1.324219 -10.195312 1.359375 -10.042969 1.359375 -9.890625 C 1.359375 -9.738281 1.359375 -9.585938 1.359375 -9.433594 C 1.359375 -9.277344 1.308594 -9.125 1.308594 -8.972656 C 1.308594 -8.820312 1.324219 -8.667969 1.324219 -8.515625 C 1.324219 -8.363281 1.308594 -8.207031 1.324219 -8.054688 C 1.324219 -7.902344 1.34375 -7.75 1.34375 -7.597656 C 1.34375 -7.445312 1.359375 -7.289062 1.359375 -7.136719 C 1.359375 -6.984375 1.34375 -6.832031 1.34375 -6.679688 C 1.34375 -6.527344 1.308594 -6.375 1.308594 -6.238281 C 1.324219 -6.085938 1.359375 -5.929688 1.359375 -5.777344 C 1.359375 -5.625 1.375 -5.472656 1.375 -5.320312 C 1.375 -5.167969 1.359375 -5.011719 1.359375 -4.859375 C 1.359375 -4.707031 1.359375 -4.554688 1.359375 -4.402344 C 1.359375 -4.265625 1.375 -4.097656 1.375 -3.941406 C 1.375 -3.789062 1.359375 -3.636719 1.359375 -3.46875 C 1.359375 -3.3125 1.359375 -3.160156 1.359375 -2.992188 C 1.359375 -2.839844 1.324219 -2.683594 1.324219 -2.515625 C 1.324219 -2.363281 1.359375 -2.210938 1.359375 -2.054688 C 1.359375 -1.886719 1.34375 -1.734375 1.324219 -1.582031 C 1.324219 -1.425781 1.34375 -1.257812 1.34375 -1.105469 C 1.34375 -0.953125 1.324219 -0.78125 1.324219 -0.644531 C 1.324219 -0.441406 1.359375 -0.304688 1.425781 -0.203125 C 1.496094 -0.0859375 1.613281 0 1.785156 0.0351562 C 1.902344 0.0664062 2.054688 0.0859375 2.226562 0.0859375 C 2.414062 0.0859375 2.566406 0.0664062 2.703125 0.0351562 C 2.871094 0 3.007812 -0.0664062 3.09375 -0.203125 C 3.160156 -0.304688 3.179688 -0.457031 3.195312 -0.644531 C 3.195312 -0.765625 3.195312 -0.917969 3.179688 -1.070312 C 3.179688 -1.222656 3.179688 -1.359375 3.179688 -1.511719 C 3.160156 -1.664062 3.160156 -1.820312 3.160156 -1.9375 C 3.160156 -2.105469 3.160156 -2.277344 3.160156 -2.429688 C 3.144531 -2.601562 3.144531 -2.753906 3.144531 -2.90625 C 3.144531 -3.074219 3.144531 -3.246094 3.144531 -3.398438 C 3.144531 -3.570312 3.160156 -3.722656 3.160156 -3.890625 C 3.160156 -4.042969 3.195312 -4.214844 3.195312 -4.367188 C 3.195312 -4.539062 3.160156 -4.691406 3.160156 -4.859375 C 3.160156 -5.011719 3.160156 -5.183594 3.160156 -5.351562 C 3.160156 -5.507812 3.160156 -5.660156 3.144531 -5.847656 C 3.160156 -6.035156 3.09375 -6.289062 3.28125 -6.253906 Z M 3.28125 -6.253906 "/></g></g></g><g fill="#000000" fill-opacity="1"><g transform="translate(205.388562, 255.761863)"><g><path d="M 3.414062 -1.921875 C 3.570312 -1.902344 3.722656 -1.871094 3.875 -1.871094 C 4.042969 -1.871094 4.199219 -1.871094 4.351562 -1.871094 C 4.503906 -1.871094 4.65625 -1.886719 4.808594 -1.886719 C 4.960938 -1.886719 5.117188 -1.886719 5.269531 -1.886719 C 5.421875 -1.902344 5.589844 -1.9375 5.761719 -1.9375 C 5.949219 -1.921875 6.117188 -1.902344 6.269531 -1.902344 C 6.558594 -1.886719 6.558594 -1.988281 6.78125 -1.886719 C 6.96875 -1.800781 6.847656 -1.714844 6.984375 -1.511719 C 7.054688 -1.410156 7.15625 -1.308594 7.222656 -1.171875 C 7.289062 -1.054688 7.34375 -0.933594 7.394531 -0.796875 C 7.460938 -0.679688 7.527344 -0.542969 7.546875 -0.425781 C 7.597656 -0.238281 7.683594 -0.152344 7.765625 -0.0859375 C 7.867188 -0.015625 7.988281 -0.015625 8.15625 -0.015625 C 8.277344 -0.015625 8.429688 0 8.582031 0 C 8.753906 0 8.886719 -0.0351562 9.007812 -0.0507812 C 9.195312 -0.0859375 9.3125 -0.136719 9.363281 -0.238281 C 9.414062 -0.339844 9.398438 -0.476562 9.332031 -0.664062 C 9.277344 -0.78125 9.226562 -0.933594 9.160156 -1.085938 C 9.109375 -1.222656 9.09375 -1.394531 9.023438 -1.53125 C 8.972656 -1.683594 8.871094 -1.800781 8.820312 -1.953125 C 8.753906 -2.105469 8.703125 -2.242188 8.632812 -2.394531 C 8.582031 -2.53125 8.566406 -2.703125 8.515625 -2.839844 C 8.445312 -2.992188 8.363281 -3.128906 8.3125 -3.261719 C 8.257812 -3.414062 8.175781 -3.550781 8.125 -3.6875 C 8.074219 -3.824219 8.039062 -3.976562 7.988281 -4.113281 C 7.9375 -4.25 7.851562 -4.382812 7.800781 -4.519531 C 7.75 -4.671875 7.683594 -4.808594 7.628906 -4.945312 C 7.578125 -5.082031 7.546875 -5.234375 7.496094 -5.371094 C 7.445312 -5.523438 7.394531 -5.660156 7.34375 -5.796875 C 7.273438 -5.929688 7.222656 -6.066406 7.15625 -6.21875 C 7.105469 -6.355469 7.085938 -6.507812 7.035156 -6.644531 C 6.984375 -6.796875 6.882812 -6.917969 6.832031 -7.054688 C 6.78125 -7.1875 6.746094 -7.34375 6.695312 -7.476562 C 6.628906 -7.628906 6.609375 -7.765625 6.558594 -7.917969 C 6.507812 -8.054688 6.425781 -8.191406 6.355469 -8.328125 C 6.304688 -8.464844 6.269531 -8.617188 6.21875 -8.753906 C 6.152344 -8.886719 6.101562 -9.023438 6.050781 -9.175781 C 6 -9.3125 5.914062 -9.449219 5.863281 -9.585938 C 5.8125 -9.722656 5.746094 -9.855469 5.691406 -9.992188 C 5.609375 -10.214844 5.589844 -10.382812 5.523438 -10.484375 C 5.386719 -10.691406 5.25 -10.722656 5.082031 -10.742188 C 4.945312 -10.757812 4.792969 -10.757812 4.570312 -10.742188 C 4.417969 -10.742188 4.332031 -10.722656 4.199219 -10.621094 C 4.128906 -10.554688 4.011719 -10.484375 3.910156 -10.332031 C 3.859375 -10.230469 3.839844 -10.09375 3.773438 -9.941406 C 3.722656 -9.824219 3.652344 -9.703125 3.601562 -9.566406 C 3.550781 -9.433594 3.519531 -9.277344 3.46875 -9.125 C 3.414062 -8.992188 3.363281 -8.855469 3.3125 -8.703125 C 3.261719 -8.566406 3.210938 -8.414062 3.160156 -8.277344 C 3.109375 -8.125 3.042969 -7.988281 2.992188 -7.835938 C 2.941406 -7.699219 2.941406 -7.527344 2.890625 -7.394531 C 2.839844 -7.238281 2.753906 -7.121094 2.703125 -6.96875 C 2.652344 -6.832031 2.632812 -6.679688 2.582031 -6.527344 C 2.53125 -6.375 2.449219 -6.253906 2.394531 -6.101562 C 2.363281 -5.964844 2.3125 -5.8125 2.261719 -5.660156 C 2.210938 -5.523438 2.175781 -5.371094 2.125 -5.234375 C 2.074219 -5.082031 2.023438 -4.945312 1.972656 -4.792969 C 1.921875 -4.65625 1.886719 -4.503906 1.835938 -4.351562 C 1.785156 -4.214844 1.683594 -4.078125 1.632812 -3.941406 C 1.582031 -3.808594 1.597656 -3.636719 1.546875 -3.484375 C 1.496094 -3.347656 1.445312 -3.210938 1.394531 -3.058594 C 1.34375 -2.921875 1.242188 -2.789062 1.191406 -2.652344 C 1.136719 -2.5 1.136719 -2.34375 1.085938 -2.210938 C 1.035156 -2.054688 0.96875 -1.921875 0.917969 -1.785156 C 0.882812 -1.699219 0.816406 -1.511719 0.730469 -1.308594 C 0.679688 -1.15625 0.628906 -0.984375 0.5625 -0.832031 C 0.492188 -0.613281 0.457031 -0.425781 0.457031 -0.339844 C 0.425781 -0.0507812 0.527344 0.015625 0.746094 0.015625 C 0.902344 0.0351562 1.085938 0 1.308594 0.015625 C 1.460938 0.0351562 1.664062 0.0351562 1.851562 0 C 2.039062 -0.0351562 2.175781 -0.101562 2.277344 -0.273438 C 2.34375 -0.40625 2.429688 -0.527344 2.480469 -0.664062 C 2.53125 -0.796875 2.582031 -0.933594 2.632812 -1.070312 C 2.683594 -1.207031 2.71875 -1.34375 2.789062 -1.480469 C 2.839844 -1.613281 2.871094 -1.765625 2.941406 -1.902344 C 3.09375 -1.902344 3.261719 -1.921875 3.414062 -1.921875 Z M 3.636719 -4.179688 C 3.6875 -4.332031 3.738281 -4.46875 3.789062 -4.605469 C 3.839844 -4.757812 3.890625 -4.894531 3.941406 -5.046875 C 3.992188 -5.183594 4.042969 -5.320312 4.113281 -5.457031 C 4.164062 -5.609375 4.199219 -5.746094 4.265625 -5.878906 C 4.316406 -6.035156 4.417969 -6.152344 4.46875 -6.289062 C 4.519531 -6.425781 4.519531 -6.59375 4.570312 -6.746094 C 4.621094 -6.882812 4.707031 -7.035156 4.757812 -7.1875 C 4.84375 -7.035156 4.894531 -6.867188 4.960938 -6.746094 C 5.046875 -6.59375 5.148438 -6.476562 5.21875 -6.339844 C 5.300781 -6.203125 5.351562 -6.050781 5.40625 -5.914062 C 5.472656 -5.777344 5.523438 -5.625 5.574219 -5.488281 C 5.640625 -5.335938 5.710938 -5.199219 5.761719 -5.046875 C 5.828125 -4.910156 5.914062 -4.777344 5.964844 -4.640625 C 6.035156 -4.488281 6.050781 -4.332031 6.101562 -4.179688 C 6.167969 -4.042969 6.238281 -3.910156 6.304688 -3.757812 C 6.136719 -3.757812 6 -3.738281 5.847656 -3.738281 C 5.675781 -3.738281 5.523438 -3.738281 5.371094 -3.738281 C 5.199219 -3.738281 5.046875 -3.773438 4.894531 -3.773438 C 4.742188 -3.773438 4.589844 -3.757812 4.417969 -3.757812 C 4.265625 -3.757812 4.113281 -3.757812 3.941406 -3.757812 C 3.789062 -3.757812 3.621094 -3.738281 3.449219 -3.738281 C 3.5 -3.890625 3.585938 -4.042969 3.636719 -4.179688 Z M 3.636719 -4.179688 "/></g></g></g></svg>