<svg xmlns="http://www.w3.org/2000/svg" xmlns:xlink="http://www.w3.org/1999/xlink" width="250" zoomAndPan="magnify" viewBox="0 0 187.5 135.000003" height="180" preserveAspectRatio="xMidYMid meet" version="1.0"><defs><g/><clipPath id="29ca5d8a23"><path d="M 0.441406 0 L 184.820312 0 L 184.820312 112.71875 L 0.441406 112.71875 Z M 0.441406 0 " clip-rule="nonzero"/></clipPath></defs><path fill="#000000" d="M 51.382812 56.214844 C 53.699219 56.214844 55.4375 53.890625 55.4375 50.988281 C 55.4375 48.953125 53.410156 47.210938 52.253906 46.339844 C 52.253906 41.695312 52.253906 38.5 52.253906 33.855469 C 55.148438 34.433594 62.671875 36.175781 65.277344 36.757812 C 65.277344 39.371094 65.277344 35.015625 65.277344 48.664062 C 79.171875 60.277344 108.984375 59.988281 122.589844 48.664062 C 122.589844 35.304688 122.589844 39.953125 122.589844 36.757812 C 124.035156 36.46875 135.902344 33.855469 137.640625 33.5625 C 108.117188 27.175781 128.378906 31.53125 93.933594 24.269531 C 91.617188 24.851562 82.355469 26.882812 50.226562 33.5625 L 50.515625 33.5625 C 50.515625 37.917969 50.515625 41.402344 50.515625 46.339844 C 49.359375 47.210938 47.332031 48.953125 47.332031 50.988281 C 47.332031 53.890625 49.359375 56.214844 51.382812 56.214844 Z M 69.621094 34.433594 C 81.777344 43.144531 106.667969 42.855469 118.535156 34.433594 L 118.535156 40.242188 C 106.957031 49.246094 82.644531 50.40625 69.621094 40.242188 Z M 69.621094 34.433594 " fill-opacity="1" fill-rule="nonzero"/><g clip-path="url(#29ca5d8a23)"><path fill="#6998ab" d="M 154.71875 80.316406 L 154.71875 7.429688 C 154.71875 3.363281 151.53125 0.167969 147.480469 0.167969 L 35.175781 0.167969 C 31.121094 0.167969 27.9375 3.363281 27.9375 7.429688 L 27.9375 80.316406 L 0.441406 107.902344 C 0.441406 110.515625 2.46875 112.835938 5.363281 112.835938 L 179.898438 112.835938 C 182.503906 112.835938 184.820312 110.804688 184.820312 107.902344 Z M 32.570312 5.105469 L 149.796875 5.105469 L 149.796875 75.960938 L 32.570312 75.960938 Z M 27.359375 110.515625 L 23.019531 110.515625 C 21.859375 110.515625 20.703125 109.351562 20.703125 108.191406 C 20.703125 107.03125 21.859375 105.867188 23.019531 105.867188 L 27.359375 105.867188 C 28.519531 105.867188 29.675781 107.03125 29.675781 108.191406 C 29.675781 109.351562 28.519531 110.515625 27.359375 110.515625 Z M 38.648438 110.515625 L 34.304688 110.515625 C 33.148438 110.515625 31.992188 109.351562 31.992188 108.191406 C 31.992188 107.03125 33.148438 105.867188 34.304688 105.867188 L 38.648438 105.867188 C 39.804688 105.867188 40.964844 107.03125 40.964844 108.191406 C 40.964844 109.644531 39.804688 110.515625 38.648438 110.515625 Z M 97.984375 110.515625 L 93.644531 110.515625 C 92.484375 110.515625 91.328125 109.351562 91.328125 108.191406 C 91.328125 107.03125 92.484375 105.867188 93.644531 105.867188 L 97.984375 105.867188 C 99.144531 105.867188 100.300781 107.03125 100.300781 108.191406 C 100.300781 109.644531 99.144531 110.515625 97.984375 110.515625 Z M 12.308594 102.964844 L 31.121094 84.089844 L 151.242188 84.089844 L 171.792969 102.964844 Z M 12.308594 102.964844 " fill-opacity="1" fill-rule="nonzero"/></g><path fill="#6998ab" d="M 32.859375 86.992188 L 19.835938 100.0625 L 165.136719 100.0625 L 150.953125 86.992188 Z M 32.859375 86.992188 " fill-opacity="1" fill-rule="nonzero"/><g fill="#000000" fill-opacity="1"><g transform="translate(30.324378, 128.582407)"><g><path d="M 1.199219 -7.410156 C 1.199219 -7.273438 1.214844 -7.136719 1.199219 -6.984375 C 1.199219 -6.847656 1.230469 -6.710938 1.230469 -6.558594 C 1.230469 -6.4375 1.199219 -6.285156 1.199219 -6.148438 C 1.199219 -6.011719 1.230469 -5.875 1.230469 -5.722656 C 1.230469 -5.585938 1.214844 -5.449219 1.214844 -5.3125 C 1.214844 -5.164062 1.167969 -5.027344 1.167969 -4.890625 C 1.167969 -4.753906 1.183594 -4.601562 1.183594 -4.464844 C 1.183594 -4.328125 1.183594 -4.191406 1.183594 -4.054688 C 1.183594 -3.917969 1.167969 -3.765625 1.167969 -3.628906 C 1.152344 -3.492188 1.199219 -3.355469 1.199219 -3.21875 C 1.199219 -3.066406 1.214844 -2.929688 1.214844 -2.808594 C 1.214844 -2.65625 1.199219 -2.519531 1.199219 -2.382812 C 1.199219 -2.230469 1.199219 -2.09375 1.199219 -1.972656 C 1.214844 -1.808594 1.183594 -1.671875 1.183594 -1.546875 C 1.199219 -1.425781 1.214844 -1.273438 1.214844 -1.125 C 1.214844 -0.972656 1.183594 -0.820312 1.183594 -0.683594 C 1.183594 -0.515625 1.183594 -0.363281 1.183594 -0.242188 C 1.167969 -0.105469 1.289062 0.015625 1.441406 0.015625 C 1.5625 0.015625 1.714844 0 1.867188 0 C 2.019531 0 2.15625 0 2.308594 0 C 2.460938 0 2.613281 -0.015625 2.75 -0.015625 C 2.886719 0 3.019531 0 3.15625 0.015625 C 3.292969 0.015625 3.445312 0 3.582031 0 C 3.71875 0 3.855469 0.03125 3.992188 0.03125 C 4.144531 0.03125 4.28125 0 4.417969 0 C 4.554688 0 4.691406 0 4.84375 0 C 4.980469 -0.015625 5.117188 0.015625 5.253906 0 C 5.390625 0 5.542969 -0.03125 5.679688 -0.046875 C 5.832031 -0.046875 5.980469 -0.015625 6.117188 -0.015625 C 6.269531 -0.03125 6.421875 -0.015625 6.558594 -0.046875 C 6.695312 -0.0625 6.832031 -0.121094 6.984375 -0.183594 C 7.074219 -0.210938 7.152344 -0.320312 7.167969 -0.457031 C 7.195312 -0.5625 7.183594 -0.699219 7.183594 -0.804688 C 7.183594 -0.894531 7.167969 -1.0625 7.167969 -1.199219 C 7.167969 -1.367188 7.136719 -1.519531 7.03125 -1.5625 C 6.910156 -1.625 6.757812 -1.671875 6.589844 -1.683594 C 6.4375 -1.699219 6.285156 -1.714844 6.132812 -1.714844 C 5.996094 -1.714844 5.875 -1.671875 5.753906 -1.671875 C 5.632812 -1.671875 5.511719 -1.699219 5.375 -1.699219 C 5.253906 -1.683594 5.132812 -1.65625 5.011719 -1.65625 C 4.890625 -1.65625 4.765625 -1.640625 4.632812 -1.640625 C 4.507812 -1.640625 4.386719 -1.671875 4.265625 -1.671875 C 4.144531 -1.671875 4.007812 -1.671875 3.886719 -1.671875 C 3.765625 -1.671875 3.628906 -1.683594 3.507812 -1.683594 C 3.371094 -1.683594 3.25 -1.65625 3.144531 -1.671875 C 2.914062 -1.671875 2.898438 -1.535156 2.792969 -1.683594 C 2.65625 -1.882812 2.761719 -1.867188 2.761719 -2.140625 C 2.777344 -2.277344 2.808594 -2.445312 2.824219 -2.613281 C 2.824219 -2.761719 2.824219 -2.929688 2.824219 -3.082031 C 2.824219 -3.21875 2.839844 -3.355469 2.855469 -3.507812 C 2.855469 -3.644531 2.824219 -3.78125 2.824219 -3.917969 C 2.824219 -4.070312 2.839844 -4.207031 2.855469 -4.34375 C 2.855469 -4.480469 2.839844 -4.632812 2.839844 -4.765625 C 2.839844 -4.902344 2.886719 -5.039062 2.898438 -5.191406 C 2.898438 -5.328125 2.839844 -5.464844 2.855469 -5.601562 C 2.855469 -5.753906 2.886719 -5.890625 2.886719 -6.027344 C 2.886719 -6.164062 2.898438 -6.316406 2.898438 -6.453125 C 2.898438 -6.589844 2.886719 -6.726562 2.886719 -6.878906 C 2.886719 -7.015625 2.898438 -7.152344 2.898438 -7.289062 C 2.898438 -7.441406 2.914062 -7.578125 2.914062 -7.714844 C 2.914062 -7.851562 2.898438 -8 2.898438 -8.136719 C 2.898438 -8.257812 2.929688 -8.382812 2.929688 -8.503906 C 2.929688 -8.625 2.929688 -8.746094 2.929688 -8.867188 C 2.945312 -8.988281 2.898438 -9.109375 2.898438 -9.230469 C 2.886719 -9.367188 2.808594 -9.429688 2.6875 -9.472656 C 2.582031 -9.519531 2.460938 -9.582031 2.339844 -9.582031 C 2.203125 -9.597656 2.066406 -9.566406 1.988281 -9.550781 C 1.867188 -9.535156 1.671875 -9.566406 1.503906 -9.503906 C 1.367188 -9.472656 1.261719 -9.398438 1.246094 -9.1875 C 1.230469 -9.050781 1.214844 -8.898438 1.230469 -8.730469 C 1.230469 -8.578125 1.230469 -8.425781 1.230469 -8.273438 C 1.230469 -8.121094 1.214844 -7.957031 1.214844 -7.820312 C 1.214844 -7.714844 1.214844 -7.578125 1.199219 -7.410156 Z M 1.199219 -7.410156 "/></g></g></g><g fill="#000000" fill-opacity="1"><g transform="translate(38.777089, 128.582407)"><g><path d="M 3.324219 -7.863281 C 3.476562 -7.863281 3.613281 -7.878906 3.765625 -7.878906 C 3.902344 -7.878906 4.039062 -7.851562 4.191406 -7.851562 C 4.328125 -7.851562 4.464844 -7.863281 4.617188 -7.863281 C 4.753906 -7.863281 4.902344 -7.851562 5.039062 -7.851562 C 5.175781 -7.851562 5.328125 -7.851562 5.464844 -7.851562 C 5.601562 -7.851562 5.753906 -7.878906 5.890625 -7.878906 C 6.027344 -7.878906 6.179688 -7.878906 6.316406 -7.878906 C 6.5 -7.878906 6.648438 -7.863281 6.773438 -7.894531 C 6.9375 -7.925781 7.03125 -7.988281 7.105469 -8.136719 C 7.167969 -8.246094 7.210938 -8.382812 7.226562 -8.578125 C 7.226562 -8.730469 7.242188 -8.882812 7.242188 -9.003906 C 7.242188 -9.171875 7.226562 -9.308594 7.136719 -9.414062 C 7.046875 -9.472656 6.9375 -9.566406 6.742188 -9.597656 C 6.621094 -9.609375 6.46875 -9.582031 6.300781 -9.582031 C 6.164062 -9.582031 6.027344 -9.597656 5.90625 -9.582031 C 5.769531 -9.582031 5.632812 -9.625 5.511719 -9.609375 C 5.375 -9.609375 5.238281 -9.582031 5.101562 -9.582031 C 4.980469 -9.566406 4.84375 -9.550781 4.707031 -9.535156 C 4.585938 -9.535156 4.449219 -9.550781 4.3125 -9.550781 C 4.175781 -9.535156 4.023438 -9.503906 3.886719 -9.503906 C 3.734375 -9.503906 3.582031 -9.503906 3.445312 -9.519531 C 3.292969 -9.519531 3.15625 -9.550781 3.007812 -9.566406 C 2.871094 -9.582031 2.71875 -9.582031 2.582031 -9.597656 C 2.429688 -9.597656 2.277344 -9.597656 2.140625 -9.597656 C 1.988281 -9.597656 1.851562 -9.640625 1.699219 -9.640625 C 1.546875 -9.640625 1.425781 -9.597656 1.273438 -9.582031 C 1.273438 -9.460938 1.261719 -9.335938 1.261719 -9.199219 C 1.261719 -9.0625 1.230469 -8.925781 1.214844 -8.792969 C 1.214844 -8.65625 1.246094 -8.519531 1.246094 -8.394531 C 1.246094 -8.257812 1.230469 -8.121094 1.230469 -7.988281 C 1.214844 -7.851562 1.214844 -7.714844 1.214844 -7.578125 C 1.214844 -7.441406 1.230469 -7.304688 1.230469 -7.183594 C 1.230469 -7.046875 1.230469 -6.910156 1.230469 -6.773438 C 1.230469 -6.636719 1.183594 -6.5 1.183594 -6.363281 C 1.183594 -6.242188 1.214844 -6.105469 1.214844 -5.96875 C 1.214844 -5.832031 1.199219 -5.695312 1.199219 -5.558594 C 1.199219 -5.4375 1.230469 -5.300781 1.214844 -5.164062 C 1.214844 -5.027344 1.167969 -4.890625 1.152344 -4.753906 C 1.152344 -4.632812 1.199219 -4.496094 1.183594 -4.359375 C 1.183594 -4.222656 1.167969 -4.085938 1.152344 -3.960938 C 1.152344 -3.824219 1.167969 -3.691406 1.167969 -3.554688 C 1.167969 -3.417969 1.167969 -3.28125 1.167969 -3.15625 C 1.167969 -3.019531 1.167969 -2.886719 1.167969 -2.75 C 1.167969 -2.625 1.152344 -2.488281 1.152344 -2.351562 C 1.140625 -2.214844 1.199219 -2.082031 1.199219 -1.945312 C 1.199219 -1.820312 1.152344 -1.683594 1.152344 -1.546875 C 1.152344 -1.410156 1.183594 -1.273438 1.183594 -1.152344 C 1.183594 -1.015625 1.152344 -0.878906 1.152344 -0.742188 C 1.152344 -0.636719 1.261719 -0.46875 1.398438 -0.335938 C 1.535156 -0.199219 1.699219 -0.105469 1.820312 -0.0898438 C 1.945312 -0.0898438 2.082031 -0.0742188 2.214844 -0.0742188 C 2.339844 -0.0625 2.476562 -0.0742188 2.613281 -0.0625 C 2.734375 -0.0625 2.871094 -0.015625 3.007812 0 C 3.128906 0 3.265625 -0.046875 3.402344 -0.046875 C 3.539062 -0.046875 3.660156 -0.03125 3.796875 -0.03125 C 3.933594 -0.03125 4.070312 0.015625 4.191406 0.03125 C 4.328125 0.03125 4.464844 -0.015625 4.585938 -0.015625 C 4.722656 0 4.859375 0.015625 4.996094 0.015625 C 5.117188 0.015625 5.253906 0.03125 5.390625 0.03125 C 5.511719 0.03125 5.648438 0.015625 5.785156 0.015625 C 5.921875 0.015625 6.042969 -0.015625 6.179688 -0.015625 C 6.316406 -0.015625 6.4375 0.015625 6.574219 0.015625 C 6.726562 0.015625 6.847656 -0.03125 6.921875 -0.105469 C 7.03125 -0.183594 7.058594 -0.289062 7.089844 -0.425781 C 7.105469 -0.53125 7.089844 -0.652344 7.046875 -0.773438 C 7.015625 -0.894531 6.984375 -1.015625 6.921875 -1.125 C 6.847656 -1.246094 6.757812 -1.351562 6.679688 -1.441406 C 6.589844 -1.535156 6.484375 -1.59375 6.316406 -1.609375 C 6.179688 -1.625 6.027344 -1.609375 5.875 -1.609375 C 5.722656 -1.609375 5.570312 -1.640625 5.421875 -1.640625 C 5.269531 -1.640625 5.117188 -1.65625 4.964844 -1.65625 C 4.8125 -1.65625 4.675781 -1.625 4.523438 -1.625 C 4.371094 -1.625 4.222656 -1.59375 4.070312 -1.609375 C 3.917969 -1.609375 3.78125 -1.609375 3.628906 -1.609375 C 3.476562 -1.609375 3.324219 -1.59375 3.1875 -1.59375 C 2.929688 -1.59375 2.945312 -1.503906 2.777344 -1.640625 C 2.625 -1.746094 2.71875 -1.761719 2.703125 -1.988281 C 2.703125 -2.09375 2.71875 -2.230469 2.71875 -2.367188 C 2.71875 -2.476562 2.703125 -2.613281 2.703125 -2.734375 C 2.703125 -2.855469 2.703125 -2.992188 2.71875 -3.097656 C 2.71875 -3.234375 2.703125 -3.371094 2.71875 -3.507812 C 2.734375 -3.628906 2.75 -3.75 2.792969 -3.902344 C 2.914062 -3.902344 3.050781 -3.886719 3.1875 -3.886719 C 3.324219 -3.871094 3.460938 -3.886719 3.582031 -3.886719 C 3.71875 -3.886719 3.855469 -3.871094 3.992188 -3.871094 C 4.128906 -3.871094 4.25 -3.871094 4.386719 -3.871094 C 4.523438 -3.871094 4.644531 -3.886719 4.78125 -3.902344 C 4.917969 -3.902344 5.039062 -3.886719 5.175781 -3.886719 C 5.328125 -3.886719 5.449219 -3.933594 5.558594 -3.933594 C 5.707031 -3.949219 5.84375 -3.933594 5.9375 -3.976562 C 6.074219 -4.023438 6.164062 -4.113281 6.210938 -4.25 C 6.242188 -4.34375 6.195312 -4.480469 6.179688 -4.632812 C 6.179688 -4.738281 6.195312 -4.875 6.164062 -5.011719 C 6.148438 -5.132812 6.117188 -5.269531 6.089844 -5.40625 C 5.953125 -5.421875 5.785156 -5.390625 5.648438 -5.390625 C 5.496094 -5.40625 5.359375 -5.4375 5.207031 -5.4375 C 5.054688 -5.4375 4.917969 -5.464844 4.765625 -5.464844 C 4.617188 -5.480469 4.480469 -5.4375 4.328125 -5.449219 C 4.175781 -5.464844 4.039062 -5.527344 3.886719 -5.542969 C 3.78125 -5.542969 3.644531 -5.511719 3.523438 -5.511719 C 3.402344 -5.511719 3.28125 -5.527344 3.15625 -5.527344 C 2.945312 -5.527344 2.898438 -5.375 2.777344 -5.511719 C 2.640625 -5.664062 2.792969 -5.707031 2.777344 -5.9375 C 2.777344 -6.058594 2.75 -6.210938 2.75 -6.347656 C 2.75 -6.484375 2.777344 -6.636719 2.777344 -6.757812 C 2.777344 -6.878906 2.792969 -6.984375 2.808594 -7.121094 C 2.824219 -7.226562 2.808594 -7.347656 2.824219 -7.484375 C 2.839844 -7.605469 2.886719 -7.714844 2.898438 -7.851562 C 3.050781 -7.851562 3.1875 -7.863281 3.324219 -7.863281 Z M 3.324219 -7.863281 "/></g></g></g><g fill="#000000" fill-opacity="1"><g transform="translate(47.609151, 128.582407)"><g><path d="M 3.050781 -1.714844 C 3.1875 -1.699219 3.324219 -1.671875 3.460938 -1.671875 C 3.613281 -1.671875 3.75 -1.671875 3.886719 -1.671875 C 4.023438 -1.671875 4.160156 -1.683594 4.296875 -1.683594 C 4.433594 -1.683594 4.570312 -1.683594 4.707031 -1.683594 C 4.84375 -1.699219 4.996094 -1.730469 5.148438 -1.730469 C 5.3125 -1.714844 5.464844 -1.699219 5.601562 -1.699219 C 5.859375 -1.683594 5.859375 -1.777344 6.058594 -1.683594 C 6.226562 -1.609375 6.117188 -1.535156 6.242188 -1.351562 C 6.300781 -1.261719 6.390625 -1.167969 6.453125 -1.046875 C 6.511719 -0.941406 6.558594 -0.835938 6.605469 -0.714844 C 6.664062 -0.605469 6.726562 -0.484375 6.742188 -0.378906 C 6.785156 -0.210938 6.863281 -0.136719 6.9375 -0.0742188 C 7.03125 -0.015625 7.136719 -0.015625 7.289062 -0.015625 C 7.394531 -0.015625 7.53125 0 7.667969 0 C 7.820312 0 7.941406 -0.03125 8.046875 -0.046875 C 8.214844 -0.0742188 8.320312 -0.121094 8.367188 -0.210938 C 8.410156 -0.304688 8.394531 -0.425781 8.335938 -0.59375 C 8.289062 -0.699219 8.246094 -0.835938 8.183594 -0.972656 C 8.136719 -1.09375 8.121094 -1.246094 8.0625 -1.367188 C 8.015625 -1.503906 7.925781 -1.609375 7.878906 -1.746094 C 7.820312 -1.882812 7.773438 -2.003906 7.714844 -2.140625 C 7.667969 -2.261719 7.652344 -2.414062 7.605469 -2.535156 C 7.546875 -2.671875 7.46875 -2.792969 7.425781 -2.914062 C 7.378906 -3.050781 7.304688 -3.171875 7.257812 -3.292969 C 7.210938 -3.417969 7.183594 -3.554688 7.136719 -3.675781 C 7.089844 -3.796875 7.015625 -3.917969 6.96875 -4.039062 C 6.921875 -4.175781 6.863281 -4.296875 6.816406 -4.417969 C 6.773438 -4.539062 6.742188 -4.675781 6.695312 -4.796875 C 6.648438 -4.933594 6.605469 -5.054688 6.558594 -5.175781 C 6.5 -5.300781 6.453125 -5.421875 6.390625 -5.558594 C 6.347656 -5.679688 6.332031 -5.816406 6.285156 -5.9375 C 6.242188 -6.074219 6.148438 -6.179688 6.105469 -6.300781 C 6.058594 -6.421875 6.027344 -6.558594 5.980469 -6.679688 C 5.921875 -6.816406 5.90625 -6.9375 5.859375 -7.074219 C 5.816406 -7.195312 5.738281 -7.316406 5.679688 -7.441406 C 5.632812 -7.5625 5.601562 -7.699219 5.558594 -7.820312 C 5.496094 -7.941406 5.449219 -8.0625 5.40625 -8.199219 C 5.359375 -8.320312 5.285156 -8.441406 5.238281 -8.5625 C 5.191406 -8.683594 5.132812 -8.804688 5.085938 -8.925781 C 5.011719 -9.125 4.996094 -9.277344 4.933594 -9.367188 C 4.8125 -9.550781 4.691406 -9.582031 4.539062 -9.597656 C 4.417969 -9.609375 4.28125 -9.609375 4.085938 -9.597656 C 3.949219 -9.597656 3.871094 -9.582031 3.75 -9.488281 C 3.691406 -9.429688 3.582031 -9.367188 3.492188 -9.230469 C 3.445312 -9.140625 3.429688 -9.019531 3.371094 -8.882812 C 3.324219 -8.777344 3.265625 -8.667969 3.21875 -8.546875 C 3.171875 -8.425781 3.144531 -8.289062 3.097656 -8.152344 C 3.050781 -8.03125 3.007812 -7.910156 2.960938 -7.773438 C 2.914062 -7.652344 2.871094 -7.515625 2.824219 -7.394531 C 2.777344 -7.257812 2.71875 -7.136719 2.671875 -7 C 2.625 -6.878906 2.625 -6.726562 2.582031 -6.605469 C 2.535156 -6.46875 2.460938 -6.363281 2.414062 -6.226562 C 2.367188 -6.105469 2.351562 -5.96875 2.308594 -5.832031 C 2.261719 -5.695312 2.1875 -5.585938 2.140625 -5.449219 C 2.109375 -5.328125 2.066406 -5.191406 2.019531 -5.054688 C 1.972656 -4.933594 1.945312 -4.796875 1.898438 -4.675781 C 1.851562 -4.539062 1.808594 -4.417969 1.761719 -4.28125 C 1.714844 -4.160156 1.683594 -4.023438 1.640625 -3.886719 C 1.59375 -3.765625 1.503906 -3.644531 1.457031 -3.523438 C 1.410156 -3.402344 1.425781 -3.25 1.382812 -3.113281 C 1.335938 -2.992188 1.289062 -2.871094 1.246094 -2.734375 C 1.199219 -2.613281 1.109375 -2.488281 1.0625 -2.367188 C 1.015625 -2.230469 1.015625 -2.09375 0.972656 -1.972656 C 0.925781 -1.835938 0.867188 -1.714844 0.820312 -1.59375 C 0.789062 -1.519531 0.730469 -1.351562 0.652344 -1.167969 C 0.605469 -1.03125 0.5625 -0.878906 0.5 -0.742188 C 0.441406 -0.546875 0.410156 -0.378906 0.410156 -0.304688 C 0.378906 -0.046875 0.46875 0.015625 0.667969 0.015625 C 0.804688 0.03125 0.972656 0 1.167969 0.015625 C 1.304688 0.03125 1.488281 0.03125 1.65625 0 C 1.820312 -0.03125 1.945312 -0.0898438 2.035156 -0.242188 C 2.09375 -0.363281 2.171875 -0.46875 2.214844 -0.59375 C 2.261719 -0.714844 2.308594 -0.835938 2.351562 -0.957031 C 2.398438 -1.078125 2.429688 -1.199219 2.488281 -1.320312 C 2.535156 -1.441406 2.566406 -1.578125 2.625 -1.699219 C 2.761719 -1.699219 2.914062 -1.714844 3.050781 -1.714844 Z M 3.25 -3.734375 C 3.292969 -3.871094 3.339844 -3.992188 3.386719 -4.113281 C 3.429688 -4.25 3.476562 -4.371094 3.523438 -4.507812 C 3.566406 -4.632812 3.613281 -4.753906 3.675781 -4.875 C 3.71875 -5.011719 3.75 -5.132812 3.8125 -5.253906 C 3.855469 -5.390625 3.949219 -5.496094 3.992188 -5.617188 C 4.039062 -5.738281 4.039062 -5.890625 4.085938 -6.027344 C 4.128906 -6.148438 4.207031 -6.285156 4.25 -6.421875 C 4.328125 -6.285156 4.371094 -6.132812 4.433594 -6.027344 C 4.507812 -5.890625 4.601562 -5.785156 4.660156 -5.664062 C 4.738281 -5.542969 4.78125 -5.40625 4.828125 -5.285156 C 4.890625 -5.164062 4.933594 -5.027344 4.980469 -4.902344 C 5.039062 -4.765625 5.101562 -4.644531 5.148438 -4.507812 C 5.207031 -4.386719 5.285156 -4.265625 5.328125 -4.144531 C 5.390625 -4.007812 5.40625 -3.871094 5.449219 -3.734375 C 5.511719 -3.613281 5.570312 -3.492188 5.632812 -3.355469 C 5.480469 -3.355469 5.359375 -3.339844 5.222656 -3.339844 C 5.070312 -3.339844 4.933594 -3.339844 4.796875 -3.339844 C 4.644531 -3.339844 4.507812 -3.371094 4.371094 -3.371094 C 4.234375 -3.371094 4.097656 -3.355469 3.949219 -3.355469 C 3.8125 -3.355469 3.675781 -3.355469 3.523438 -3.355469 C 3.386719 -3.355469 3.234375 -3.339844 3.082031 -3.339844 C 3.128906 -3.476562 3.203125 -3.613281 3.25 -3.734375 Z M 3.25 -3.734375 "/></g></g></g><g fill="#000000" fill-opacity="1"><g transform="translate(57.321323, 128.582407)"><g><path d="M 3.265625 -3.75 C 3.417969 -3.78125 3.554688 -3.855469 3.675781 -3.871094 C 3.839844 -3.886719 3.992188 -3.871094 4.113281 -3.855469 C 4.28125 -3.855469 4.402344 -3.824219 4.523438 -3.75 C 4.632812 -3.691406 4.738281 -3.597656 4.828125 -3.460938 C 4.890625 -3.355469 4.949219 -3.21875 5.027344 -3.066406 C 5.070312 -2.945312 5.117188 -2.808594 5.191406 -2.671875 C 5.238281 -2.550781 5.328125 -2.429688 5.390625 -2.292969 C 5.449219 -2.15625 5.480469 -2.019531 5.542969 -1.882812 C 5.601562 -1.746094 5.664062 -1.625 5.722656 -1.488281 C 5.785156 -1.351562 5.875 -1.246094 5.9375 -1.109375 C 5.996094 -0.988281 6.074219 -0.851562 6.117188 -0.730469 C 6.195312 -0.578125 6.226562 -0.441406 6.285156 -0.335938 C 6.375 -0.183594 6.5 -0.121094 6.589844 -0.0625 C 6.710938 0 6.816406 0 6.984375 0 C 7.105469 -0.015625 7.242188 -0.015625 7.410156 -0.015625 C 7.5625 -0.015625 7.699219 0 7.789062 -0.015625 C 7.957031 -0.046875 8.03125 -0.105469 8.015625 -0.257812 C 8 -0.347656 7.988281 -0.484375 7.925781 -0.636719 C 7.894531 -0.742188 7.804688 -0.851562 7.742188 -0.988281 C 7.699219 -1.109375 7.652344 -1.230469 7.589844 -1.367188 C 7.546875 -1.488281 7.453125 -1.609375 7.394531 -1.746094 C 7.347656 -1.867188 7.289062 -1.988281 7.242188 -2.125 C 7.183594 -2.246094 7.121094 -2.367188 7.058594 -2.488281 C 7 -2.625 6.953125 -2.75 6.894531 -2.871094 C 6.832031 -3.007812 6.785156 -3.128906 6.726562 -3.25 C 6.664062 -3.386719 6.605469 -3.507812 6.558594 -3.628906 C 6.5 -3.75 6.46875 -3.902344 6.421875 -4.023438 C 6.375 -4.113281 6.375 -4.234375 6.46875 -4.3125 C 6.605469 -4.433594 6.726562 -4.554688 6.832031 -4.644531 C 6.96875 -4.765625 7.121094 -4.84375 7.242188 -4.964844 C 7.332031 -5.070312 7.394531 -5.191406 7.46875 -5.300781 C 7.546875 -5.40625 7.621094 -5.527344 7.683594 -5.648438 C 7.726562 -5.769531 7.757812 -5.90625 7.804688 -6.027344 C 7.835938 -6.164062 7.863281 -6.285156 7.878906 -6.421875 C 7.894531 -6.542969 7.925781 -6.679688 7.925781 -6.816406 C 7.925781 -6.953125 7.941406 -7.089844 7.925781 -7.226562 C 7.910156 -7.347656 7.851562 -7.484375 7.804688 -7.605469 C 7.773438 -7.742188 7.714844 -7.863281 7.667969 -7.988281 C 7.605469 -8.109375 7.5625 -8.230469 7.484375 -8.335938 C 7.410156 -8.441406 7.332031 -8.546875 7.242188 -8.65625 C 7.152344 -8.746094 7.046875 -8.835938 6.9375 -8.914062 C 6.832031 -9.003906 6.742188 -9.078125 6.621094 -9.15625 C 6.5 -9.214844 6.375 -9.261719 6.253906 -9.308594 C 6.132812 -9.351562 6.011719 -9.429688 5.875 -9.445312 C 5.722656 -9.472656 5.585938 -9.460938 5.4375 -9.488281 C 5.300781 -9.503906 5.164062 -9.535156 5.011719 -9.550781 C 4.875 -9.566406 4.722656 -9.566406 4.585938 -9.582031 C 4.433594 -9.582031 4.296875 -9.597656 4.144531 -9.609375 C 4.007812 -9.609375 3.855469 -9.597656 3.71875 -9.609375 C 3.582031 -9.609375 3.429688 -9.609375 3.292969 -9.609375 C 3.144531 -9.609375 3.007812 -9.625 2.855469 -9.625 C 2.71875 -9.609375 2.566406 -9.597656 2.429688 -9.597656 C 2.261719 -9.597656 2.109375 -9.609375 1.972656 -9.609375 C 1.792969 -9.609375 1.65625 -9.582031 1.535156 -9.535156 C 1.398438 -9.472656 1.320312 -9.382812 1.273438 -9.199219 C 1.261719 -9.078125 1.246094 -8.925781 1.246094 -8.746094 C 1.230469 -8.609375 1.230469 -8.472656 1.230469 -8.335938 C 1.230469 -8.214844 1.230469 -8.078125 1.230469 -7.941406 C 1.230469 -7.804688 1.230469 -7.667969 1.230469 -7.53125 C 1.230469 -7.394531 1.230469 -7.257812 1.230469 -7.121094 C 1.230469 -6.984375 1.214844 -6.847656 1.199219 -6.710938 C 1.199219 -6.574219 1.167969 -6.4375 1.167969 -6.300781 C 1.167969 -6.164062 1.199219 -6.027344 1.199219 -5.890625 C 1.199219 -5.753906 1.183594 -5.617188 1.183594 -5.480469 C 1.183594 -5.34375 1.183594 -5.207031 1.183594 -5.070312 C 1.183594 -4.933594 1.183594 -4.796875 1.183594 -4.660156 C 1.183594 -4.523438 1.199219 -4.386719 1.199219 -4.25 C 1.199219 -4.113281 1.167969 -3.992188 1.167969 -3.855469 C 1.167969 -3.71875 1.167969 -3.582031 1.167969 -3.445312 C 1.167969 -3.308594 1.183594 -3.171875 1.183594 -3.035156 C 1.183594 -2.898438 1.167969 -2.761719 1.167969 -2.640625 C 1.183594 -2.503906 1.183594 -2.367188 1.183594 -2.230469 C 1.183594 -2.09375 1.183594 -1.957031 1.183594 -1.820312 C 1.183594 -1.683594 1.214844 -1.546875 1.214844 -1.410156 C 1.214844 -1.289062 1.183594 -1.152344 1.167969 -1.003906 C 1.152344 -0.851562 1.167969 -0.714844 1.167969 -0.578125 C 1.183594 -0.410156 1.167969 -0.257812 1.230469 -0.152344 C 1.273438 -0.046875 1.457031 -0.03125 1.625 0 C 1.792969 0.03125 1.972656 0.03125 2.066406 0.015625 C 2.1875 -0.015625 2.324219 0 2.445312 -0.015625 C 2.597656 -0.046875 2.734375 -0.0742188 2.777344 -0.199219 C 2.824219 -0.320312 2.839844 -0.484375 2.839844 -0.652344 C 2.855469 -0.804688 2.855469 -0.972656 2.855469 -1.125 C 2.839844 -1.304688 2.839844 -1.457031 2.839844 -1.59375 C 2.839844 -1.730469 2.839844 -1.882812 2.839844 -2.019531 C 2.839844 -2.15625 2.839844 -2.308594 2.839844 -2.445312 C 2.839844 -2.582031 2.808594 -2.734375 2.808594 -2.871094 C 2.808594 -3.007812 2.855469 -3.15625 2.855469 -3.292969 C 2.855469 -3.429688 2.808594 -3.582031 2.808594 -3.71875 C 2.976562 -3.75 3.128906 -3.734375 3.265625 -3.75 Z M 2.886719 -5.859375 C 2.886719 -6.011719 2.898438 -6.148438 2.898438 -6.285156 C 2.898438 -6.4375 2.898438 -6.574219 2.898438 -6.710938 C 2.898438 -6.847656 2.886719 -7 2.886719 -7.136719 C 2.886719 -7.273438 2.898438 -7.425781 2.898438 -7.5625 C 2.898438 -7.699219 2.898438 -7.820312 2.898438 -7.972656 C 3.050781 -7.972656 3.171875 -7.988281 3.308594 -7.988281 C 3.445312 -7.988281 3.582031 -7.988281 3.71875 -7.988281 C 3.871094 -7.988281 4.007812 -8 4.144531 -8 C 4.28125 -8 4.417969 -8 4.554688 -8 C 4.691406 -7.988281 4.84375 -8 4.980469 -8 C 5.117188 -7.988281 5.238281 -7.957031 5.34375 -7.910156 C 5.480469 -7.878906 5.617188 -7.863281 5.722656 -7.804688 C 5.832031 -7.742188 5.921875 -7.636719 6.011719 -7.5625 C 6.105469 -7.46875 6.210938 -7.378906 6.253906 -7.273438 C 6.316406 -7.152344 6.347656 -7.015625 6.347656 -6.894531 C 6.363281 -6.742188 6.316406 -6.605469 6.269531 -6.453125 C 6.226562 -6.316406 6.117188 -6.210938 6.027344 -6.089844 C 5.9375 -5.980469 5.84375 -5.859375 5.722656 -5.769531 C 5.617188 -5.695312 5.480469 -5.617188 5.34375 -5.570312 C 5.207031 -5.511719 5.070312 -5.480469 4.917969 -5.464844 C 4.796875 -5.464844 4.660156 -5.4375 4.523438 -5.4375 C 4.386719 -5.4375 4.25 -5.4375 4.113281 -5.4375 C 3.976562 -5.4375 3.839844 -5.40625 3.703125 -5.40625 C 3.566406 -5.40625 3.429688 -5.449219 3.292969 -5.449219 C 3.15625 -5.464844 3.019531 -5.421875 2.871094 -5.421875 C 2.871094 -5.570312 2.898438 -5.722656 2.886719 -5.859375 Z M 2.886719 -5.859375 "/></g></g></g><g fill="#000000" fill-opacity="1"><g transform="translate(67.048671, 128.582407)"><g><path d="M 2.929688 -5.585938 C 2.992188 -5.585938 3.097656 -5.4375 3.21875 -5.238281 C 3.28125 -5.132812 3.386719 -5.011719 3.460938 -4.875 C 3.539062 -4.753906 3.597656 -4.617188 3.660156 -4.480469 C 3.734375 -4.34375 3.78125 -4.191406 3.839844 -4.085938 C 3.917969 -3.960938 4.007812 -3.855469 4.085938 -3.734375 C 4.144531 -3.613281 4.222656 -3.492188 4.296875 -3.371094 C 4.371094 -3.265625 4.417969 -3.128906 4.496094 -3.019531 C 4.570312 -2.898438 4.691406 -2.808594 4.753906 -2.6875 C 4.828125 -2.566406 4.917969 -2.460938 4.996094 -2.339844 C 5.070312 -2.230469 5.132812 -2.109375 5.207031 -1.988281 C 5.300781 -1.867188 5.375 -1.761719 5.449219 -1.640625 C 5.527344 -1.519531 5.570312 -1.398438 5.648438 -1.273438 C 5.722656 -1.152344 5.816406 -1.046875 5.890625 -0.925781 C 5.96875 -0.804688 6.027344 -0.667969 6.105469 -0.546875 C 6.195312 -0.441406 6.300781 -0.335938 6.40625 -0.242188 C 6.511719 -0.167969 6.636719 -0.0898438 6.773438 -0.046875 C 6.910156 0 7.046875 0 7.210938 0 C 7.378906 0 7.5 0 7.589844 -0.015625 C 7.757812 -0.0625 7.804688 -0.152344 7.835938 -0.289062 C 7.851562 -0.394531 7.851562 -0.515625 7.863281 -0.683594 C 7.863281 -0.820312 7.851562 -0.957031 7.863281 -1.09375 C 7.863281 -1.230469 7.894531 -1.367188 7.910156 -1.503906 C 7.910156 -1.640625 7.878906 -1.777344 7.878906 -1.914062 C 7.878906 -2.050781 7.894531 -2.1875 7.894531 -2.324219 C 7.894531 -2.460938 7.925781 -2.597656 7.925781 -2.734375 C 7.925781 -2.871094 7.894531 -3.007812 7.910156 -3.15625 C 7.910156 -3.292969 7.941406 -3.429688 7.941406 -3.566406 C 7.941406 -3.703125 7.957031 -3.839844 7.957031 -3.976562 C 7.957031 -4.113281 7.925781 -4.25 7.925781 -4.386719 C 7.925781 -4.523438 7.972656 -4.660156 7.972656 -4.796875 C 7.972656 -4.949219 7.972656 -5.085938 7.972656 -5.222656 C 7.988281 -5.359375 7.957031 -5.496094 7.957031 -5.632812 C 7.957031 -5.769531 7.957031 -5.90625 7.957031 -6.042969 C 7.957031 -6.179688 7.988281 -6.316406 7.988281 -6.453125 C 7.988281 -6.589844 8 -6.726562 8 -6.847656 C 8 -7 7.972656 -7.136719 7.972656 -7.257812 C 7.972656 -7.410156 8.015625 -7.546875 8.015625 -7.683594 C 8.015625 -7.820312 8 -7.957031 8 -8.09375 C 8 -8.230469 8 -8.367188 8 -8.503906 C 8 -8.65625 8.03125 -8.777344 8.015625 -8.898438 C 8 -9.050781 7.988281 -9.1875 7.941406 -9.292969 C 7.878906 -9.429688 7.789062 -9.519531 7.652344 -9.566406 C 7.546875 -9.609375 7.410156 -9.582031 7.257812 -9.582031 C 7.136719 -9.566406 7 -9.566406 6.847656 -9.535156 C 6.742188 -9.519531 6.621094 -9.460938 6.484375 -9.414062 C 6.484375 -9.292969 6.453125 -9.1875 6.453125 -9.035156 C 6.4375 -8.914062 6.453125 -8.777344 6.453125 -8.640625 C 6.453125 -8.503906 6.421875 -8.367188 6.421875 -8.230469 C 6.421875 -8.09375 6.453125 -7.957031 6.453125 -7.820312 C 6.453125 -7.699219 6.421875 -7.5625 6.421875 -7.425781 C 6.421875 -7.289062 6.4375 -7.152344 6.4375 -7.015625 C 6.4375 -6.878906 6.390625 -6.742188 6.390625 -6.605469 C 6.390625 -6.484375 6.4375 -6.347656 6.4375 -6.210938 C 6.4375 -6.074219 6.40625 -5.9375 6.40625 -5.800781 C 6.40625 -5.664062 6.390625 -5.527344 6.390625 -5.40625 C 6.390625 -5.269531 6.40625 -5.132812 6.40625 -4.996094 C 6.40625 -4.859375 6.390625 -4.722656 6.390625 -4.601562 C 6.375 -4.449219 6.363281 -4.3125 6.363281 -4.207031 C 6.347656 -3.949219 6.347656 -3.796875 6.332031 -3.8125 C 6.195312 -3.824219 6.089844 -3.960938 5.980469 -4.113281 C 5.890625 -4.265625 5.816406 -4.449219 5.753906 -4.539062 C 5.679688 -4.644531 5.570312 -4.753906 5.511719 -4.859375 C 5.4375 -4.980469 5.359375 -5.101562 5.285156 -5.222656 C 5.207031 -5.328125 5.175781 -5.464844 5.101562 -5.585938 C 5.027344 -5.707031 4.917969 -5.800781 4.84375 -5.921875 C 4.78125 -6.042969 4.707031 -6.148438 4.632812 -6.269531 C 4.554688 -6.390625 4.496094 -6.511719 4.417969 -6.636719 C 4.34375 -6.757812 4.28125 -6.878906 4.222656 -7 C 4.144531 -7.105469 4.070312 -7.226562 3.992188 -7.347656 C 3.917969 -7.46875 3.871094 -7.589844 3.796875 -7.714844 C 3.734375 -7.835938 3.628906 -7.925781 3.554688 -8.046875 C 3.476562 -8.152344 3.429688 -8.289062 3.355469 -8.394531 C 3.28125 -8.519531 3.1875 -8.625 3.113281 -8.746094 C 3.050781 -8.867188 2.976562 -8.988281 2.914062 -9.09375 C 2.824219 -9.261719 2.75 -9.351562 2.65625 -9.445312 C 2.550781 -9.535156 2.445312 -9.566406 2.277344 -9.582031 C 2.171875 -9.597656 2.019531 -9.597656 1.851562 -9.582031 C 1.609375 -9.597656 1.472656 -9.597656 1.382812 -9.597656 C 1.199219 -9.582031 1.183594 -9.519531 1.183594 -9.246094 C 1.183594 -9.109375 1.214844 -8.972656 1.214844 -8.835938 C 1.214844 -8.699219 1.214844 -8.5625 1.214844 -8.425781 C 1.214844 -8.289062 1.167969 -8.152344 1.167969 -8.015625 C 1.167969 -7.878906 1.183594 -7.742188 1.183594 -7.605469 C 1.183594 -7.46875 1.167969 -7.332031 1.183594 -7.195312 C 1.183594 -7.058594 1.199219 -6.921875 1.199219 -6.785156 C 1.199219 -6.648438 1.214844 -6.511719 1.214844 -6.375 C 1.214844 -6.242188 1.199219 -6.105469 1.199219 -5.96875 C 1.199219 -5.832031 1.167969 -5.695312 1.167969 -5.570312 C 1.183594 -5.4375 1.214844 -5.300781 1.214844 -5.164062 C 1.214844 -5.027344 1.230469 -4.890625 1.230469 -4.753906 C 1.230469 -4.617188 1.214844 -4.480469 1.214844 -4.34375 C 1.214844 -4.207031 1.214844 -4.070312 1.214844 -3.933594 C 1.214844 -3.8125 1.230469 -3.660156 1.230469 -3.523438 C 1.230469 -3.386719 1.214844 -3.25 1.214844 -3.097656 C 1.214844 -2.960938 1.214844 -2.824219 1.214844 -2.671875 C 1.214844 -2.535156 1.183594 -2.398438 1.183594 -2.246094 C 1.183594 -2.109375 1.214844 -1.972656 1.214844 -1.835938 C 1.214844 -1.683594 1.199219 -1.546875 1.183594 -1.410156 C 1.183594 -1.273438 1.199219 -1.125 1.199219 -0.988281 C 1.199219 -0.851562 1.183594 -0.699219 1.183594 -0.578125 C 1.183594 -0.394531 1.214844 -0.273438 1.273438 -0.183594 C 1.335938 -0.0742188 1.441406 0 1.59375 0.03125 C 1.699219 0.0625 1.835938 0.0742188 1.988281 0.0742188 C 2.15625 0.0742188 2.292969 0.0625 2.414062 0.03125 C 2.566406 0 2.6875 -0.0625 2.761719 -0.183594 C 2.824219 -0.273438 2.839844 -0.410156 2.855469 -0.578125 C 2.855469 -0.683594 2.855469 -0.820312 2.839844 -0.957031 C 2.839844 -1.09375 2.839844 -1.214844 2.839844 -1.351562 C 2.824219 -1.488281 2.824219 -1.625 2.824219 -1.730469 C 2.824219 -1.882812 2.824219 -2.035156 2.824219 -2.171875 C 2.808594 -2.324219 2.808594 -2.460938 2.808594 -2.597656 C 2.808594 -2.75 2.808594 -2.898438 2.808594 -3.035156 C 2.808594 -3.1875 2.824219 -3.324219 2.824219 -3.476562 C 2.824219 -3.613281 2.855469 -3.765625 2.855469 -3.902344 C 2.855469 -4.054688 2.824219 -4.191406 2.824219 -4.34375 C 2.824219 -4.480469 2.824219 -4.632812 2.824219 -4.78125 C 2.824219 -4.917969 2.824219 -5.054688 2.808594 -5.222656 C 2.824219 -5.390625 2.761719 -5.617188 2.929688 -5.585938 Z M 2.929688 -5.585938 "/></g></g></g><g fill="#000000" fill-opacity="1"><g transform="translate(77.109855, 128.582407)"><g><path d="M 3.324219 -7.863281 C 3.476562 -7.863281 3.613281 -7.878906 3.765625 -7.878906 C 3.902344 -7.878906 4.039062 -7.851562 4.191406 -7.851562 C 4.328125 -7.851562 4.464844 -7.863281 4.617188 -7.863281 C 4.753906 -7.863281 4.902344 -7.851562 5.039062 -7.851562 C 5.175781 -7.851562 5.328125 -7.851562 5.464844 -7.851562 C 5.601562 -7.851562 5.753906 -7.878906 5.890625 -7.878906 C 6.027344 -7.878906 6.179688 -7.878906 6.316406 -7.878906 C 6.5 -7.878906 6.648438 -7.863281 6.773438 -7.894531 C 6.9375 -7.925781 7.03125 -7.988281 7.105469 -8.136719 C 7.167969 -8.246094 7.210938 -8.382812 7.226562 -8.578125 C 7.226562 -8.730469 7.242188 -8.882812 7.242188 -9.003906 C 7.242188 -9.171875 7.226562 -9.308594 7.136719 -9.414062 C 7.046875 -9.472656 6.9375 -9.566406 6.742188 -9.597656 C 6.621094 -9.609375 6.46875 -9.582031 6.300781 -9.582031 C 6.164062 -9.582031 6.027344 -9.597656 5.90625 -9.582031 C 5.769531 -9.582031 5.632812 -9.625 5.511719 -9.609375 C 5.375 -9.609375 5.238281 -9.582031 5.101562 -9.582031 C 4.980469 -9.566406 4.84375 -9.550781 4.707031 -9.535156 C 4.585938 -9.535156 4.449219 -9.550781 4.3125 -9.550781 C 4.175781 -9.535156 4.023438 -9.503906 3.886719 -9.503906 C 3.734375 -9.503906 3.582031 -9.503906 3.445312 -9.519531 C 3.292969 -9.519531 3.15625 -9.550781 3.007812 -9.566406 C 2.871094 -9.582031 2.71875 -9.582031 2.582031 -9.597656 C 2.429688 -9.597656 2.277344 -9.597656 2.140625 -9.597656 C 1.988281 -9.597656 1.851562 -9.640625 1.699219 -9.640625 C 1.546875 -9.640625 1.425781 -9.597656 1.273438 -9.582031 C 1.273438 -9.460938 1.261719 -9.335938 1.261719 -9.199219 C 1.261719 -9.0625 1.230469 -8.925781 1.214844 -8.792969 C 1.214844 -8.65625 1.246094 -8.519531 1.246094 -8.394531 C 1.246094 -8.257812 1.230469 -8.121094 1.230469 -7.988281 C 1.214844 -7.851562 1.214844 -7.714844 1.214844 -7.578125 C 1.214844 -7.441406 1.230469 -7.304688 1.230469 -7.183594 C 1.230469 -7.046875 1.230469 -6.910156 1.230469 -6.773438 C 1.230469 -6.636719 1.183594 -6.5 1.183594 -6.363281 C 1.183594 -6.242188 1.214844 -6.105469 1.214844 -5.96875 C 1.214844 -5.832031 1.199219 -5.695312 1.199219 -5.558594 C 1.199219 -5.4375 1.230469 -5.300781 1.214844 -5.164062 C 1.214844 -5.027344 1.167969 -4.890625 1.152344 -4.753906 C 1.152344 -4.632812 1.199219 -4.496094 1.183594 -4.359375 C 1.183594 -4.222656 1.167969 -4.085938 1.152344 -3.960938 C 1.152344 -3.824219 1.167969 -3.691406 1.167969 -3.554688 C 1.167969 -3.417969 1.167969 -3.28125 1.167969 -3.15625 C 1.167969 -3.019531 1.167969 -2.886719 1.167969 -2.75 C 1.167969 -2.625 1.152344 -2.488281 1.152344 -2.351562 C 1.140625 -2.214844 1.199219 -2.082031 1.199219 -1.945312 C 1.199219 -1.820312 1.152344 -1.683594 1.152344 -1.546875 C 1.152344 -1.410156 1.183594 -1.273438 1.183594 -1.152344 C 1.183594 -1.015625 1.152344 -0.878906 1.152344 -0.742188 C 1.152344 -0.636719 1.261719 -0.46875 1.398438 -0.335938 C 1.535156 -0.199219 1.699219 -0.105469 1.820312 -0.0898438 C 1.945312 -0.0898438 2.082031 -0.0742188 2.214844 -0.0742188 C 2.339844 -0.0625 2.476562 -0.0742188 2.613281 -0.0625 C 2.734375 -0.0625 2.871094 -0.015625 3.007812 0 C 3.128906 0 3.265625 -0.046875 3.402344 -0.046875 C 3.539062 -0.046875 3.660156 -0.03125 3.796875 -0.03125 C 3.933594 -0.03125 4.070312 0.015625 4.191406 0.03125 C 4.328125 0.03125 4.464844 -0.015625 4.585938 -0.015625 C 4.722656 0 4.859375 0.015625 4.996094 0.015625 C 5.117188 0.015625 5.253906 0.03125 5.390625 0.03125 C 5.511719 0.03125 5.648438 0.015625 5.785156 0.015625 C 5.921875 0.015625 6.042969 -0.015625 6.179688 -0.015625 C 6.316406 -0.015625 6.4375 0.015625 6.574219 0.015625 C 6.726562 0.015625 6.847656 -0.03125 6.921875 -0.105469 C 7.03125 -0.183594 7.058594 -0.289062 7.089844 -0.425781 C 7.105469 -0.53125 7.089844 -0.652344 7.046875 -0.773438 C 7.015625 -0.894531 6.984375 -1.015625 6.921875 -1.125 C 6.847656 -1.246094 6.757812 -1.351562 6.679688 -1.441406 C 6.589844 -1.535156 6.484375 -1.59375 6.316406 -1.609375 C 6.179688 -1.625 6.027344 -1.609375 5.875 -1.609375 C 5.722656 -1.609375 5.570312 -1.640625 5.421875 -1.640625 C 5.269531 -1.640625 5.117188 -1.65625 4.964844 -1.65625 C 4.8125 -1.65625 4.675781 -1.625 4.523438 -1.625 C 4.371094 -1.625 4.222656 -1.59375 4.070312 -1.609375 C 3.917969 -1.609375 3.78125 -1.609375 3.628906 -1.609375 C 3.476562 -1.609375 3.324219 -1.59375 3.1875 -1.59375 C 2.929688 -1.59375 2.945312 -1.503906 2.777344 -1.640625 C 2.625 -1.746094 2.71875 -1.761719 2.703125 -1.988281 C 2.703125 -2.09375 2.71875 -2.230469 2.71875 -2.367188 C 2.71875 -2.476562 2.703125 -2.613281 2.703125 -2.734375 C 2.703125 -2.855469 2.703125 -2.992188 2.71875 -3.097656 C 2.71875 -3.234375 2.703125 -3.371094 2.71875 -3.507812 C 2.734375 -3.628906 2.75 -3.75 2.792969 -3.902344 C 2.914062 -3.902344 3.050781 -3.886719 3.1875 -3.886719 C 3.324219 -3.871094 3.460938 -3.886719 3.582031 -3.886719 C 3.71875 -3.886719 3.855469 -3.871094 3.992188 -3.871094 C 4.128906 -3.871094 4.25 -3.871094 4.386719 -3.871094 C 4.523438 -3.871094 4.644531 -3.886719 4.78125 -3.902344 C 4.917969 -3.902344 5.039062 -3.886719 5.175781 -3.886719 C 5.328125 -3.886719 5.449219 -3.933594 5.558594 -3.933594 C 5.707031 -3.949219 5.84375 -3.933594 5.9375 -3.976562 C 6.074219 -4.023438 6.164062 -4.113281 6.210938 -4.25 C 6.242188 -4.34375 6.195312 -4.480469 6.179688 -4.632812 C 6.179688 -4.738281 6.195312 -4.875 6.164062 -5.011719 C 6.148438 -5.132812 6.117188 -5.269531 6.089844 -5.40625 C 5.953125 -5.421875 5.785156 -5.390625 5.648438 -5.390625 C 5.496094 -5.40625 5.359375 -5.4375 5.207031 -5.4375 C 5.054688 -5.4375 4.917969 -5.464844 4.765625 -5.464844 C 4.617188 -5.480469 4.480469 -5.4375 4.328125 -5.449219 C 4.175781 -5.464844 4.039062 -5.527344 3.886719 -5.542969 C 3.78125 -5.542969 3.644531 -5.511719 3.523438 -5.511719 C 3.402344 -5.511719 3.28125 -5.527344 3.15625 -5.527344 C 2.945312 -5.527344 2.898438 -5.375 2.777344 -5.511719 C 2.640625 -5.664062 2.792969 -5.707031 2.777344 -5.9375 C 2.777344 -6.058594 2.75 -6.210938 2.75 -6.347656 C 2.75 -6.484375 2.777344 -6.636719 2.777344 -6.757812 C 2.777344 -6.878906 2.792969 -6.984375 2.808594 -7.121094 C 2.824219 -7.226562 2.808594 -7.347656 2.824219 -7.484375 C 2.839844 -7.605469 2.886719 -7.714844 2.898438 -7.851562 C 3.050781 -7.851562 3.1875 -7.863281 3.324219 -7.863281 Z M 3.324219 -7.863281 "/></g></g></g><g fill="#000000" fill-opacity="1"><g transform="translate(85.941918, 128.582407)"><g><path d="M 3.265625 -3.75 C 3.417969 -3.78125 3.554688 -3.855469 3.675781 -3.871094 C 3.839844 -3.886719 3.992188 -3.871094 4.113281 -3.855469 C 4.28125 -3.855469 4.402344 -3.824219 4.523438 -3.75 C 4.632812 -3.691406 4.738281 -3.597656 4.828125 -3.460938 C 4.890625 -3.355469 4.949219 -3.21875 5.027344 -3.066406 C 5.070312 -2.945312 5.117188 -2.808594 5.191406 -2.671875 C 5.238281 -2.550781 5.328125 -2.429688 5.390625 -2.292969 C 5.449219 -2.15625 5.480469 -2.019531 5.542969 -1.882812 C 5.601562 -1.746094 5.664062 -1.625 5.722656 -1.488281 C 5.785156 -1.351562 5.875 -1.246094 5.9375 -1.109375 C 5.996094 -0.988281 6.074219 -0.851562 6.117188 -0.730469 C 6.195312 -0.578125 6.226562 -0.441406 6.285156 -0.335938 C 6.375 -0.183594 6.5 -0.121094 6.589844 -0.0625 C 6.710938 0 6.816406 0 6.984375 0 C 7.105469 -0.015625 7.242188 -0.015625 7.410156 -0.015625 C 7.5625 -0.015625 7.699219 0 7.789062 -0.015625 C 7.957031 -0.046875 8.03125 -0.105469 8.015625 -0.257812 C 8 -0.347656 7.988281 -0.484375 7.925781 -0.636719 C 7.894531 -0.742188 7.804688 -0.851562 7.742188 -0.988281 C 7.699219 -1.109375 7.652344 -1.230469 7.589844 -1.367188 C 7.546875 -1.488281 7.453125 -1.609375 7.394531 -1.746094 C 7.347656 -1.867188 7.289062 -1.988281 7.242188 -2.125 C 7.183594 -2.246094 7.121094 -2.367188 7.058594 -2.488281 C 7 -2.625 6.953125 -2.75 6.894531 -2.871094 C 6.832031 -3.007812 6.785156 -3.128906 6.726562 -3.25 C 6.664062 -3.386719 6.605469 -3.507812 6.558594 -3.628906 C 6.5 -3.75 6.46875 -3.902344 6.421875 -4.023438 C 6.375 -4.113281 6.375 -4.234375 6.46875 -4.3125 C 6.605469 -4.433594 6.726562 -4.554688 6.832031 -4.644531 C 6.96875 -4.765625 7.121094 -4.84375 7.242188 -4.964844 C 7.332031 -5.070312 7.394531 -5.191406 7.46875 -5.300781 C 7.546875 -5.40625 7.621094 -5.527344 7.683594 -5.648438 C 7.726562 -5.769531 7.757812 -5.90625 7.804688 -6.027344 C 7.835938 -6.164062 7.863281 -6.285156 7.878906 -6.421875 C 7.894531 -6.542969 7.925781 -6.679688 7.925781 -6.816406 C 7.925781 -6.953125 7.941406 -7.089844 7.925781 -7.226562 C 7.910156 -7.347656 7.851562 -7.484375 7.804688 -7.605469 C 7.773438 -7.742188 7.714844 -7.863281 7.667969 -7.988281 C 7.605469 -8.109375 7.5625 -8.230469 7.484375 -8.335938 C 7.410156 -8.441406 7.332031 -8.546875 7.242188 -8.65625 C 7.152344 -8.746094 7.046875 -8.835938 6.9375 -8.914062 C 6.832031 -9.003906 6.742188 -9.078125 6.621094 -9.15625 C 6.5 -9.214844 6.375 -9.261719 6.253906 -9.308594 C 6.132812 -9.351562 6.011719 -9.429688 5.875 -9.445312 C 5.722656 -9.472656 5.585938 -9.460938 5.4375 -9.488281 C 5.300781 -9.503906 5.164062 -9.535156 5.011719 -9.550781 C 4.875 -9.566406 4.722656 -9.566406 4.585938 -9.582031 C 4.433594 -9.582031 4.296875 -9.597656 4.144531 -9.609375 C 4.007812 -9.609375 3.855469 -9.597656 3.71875 -9.609375 C 3.582031 -9.609375 3.429688 -9.609375 3.292969 -9.609375 C 3.144531 -9.609375 3.007812 -9.625 2.855469 -9.625 C 2.71875 -9.609375 2.566406 -9.597656 2.429688 -9.597656 C 2.261719 -9.597656 2.109375 -9.609375 1.972656 -9.609375 C 1.792969 -9.609375 1.65625 -9.582031 1.535156 -9.535156 C 1.398438 -9.472656 1.320312 -9.382812 1.273438 -9.199219 C 1.261719 -9.078125 1.246094 -8.925781 1.246094 -8.746094 C 1.230469 -8.609375 1.230469 -8.472656 1.230469 -8.335938 C 1.230469 -8.214844 1.230469 -8.078125 1.230469 -7.941406 C 1.230469 -7.804688 1.230469 -7.667969 1.230469 -7.53125 C 1.230469 -7.394531 1.230469 -7.257812 1.230469 -7.121094 C 1.230469 -6.984375 1.214844 -6.847656 1.199219 -6.710938 C 1.199219 -6.574219 1.167969 -6.4375 1.167969 -6.300781 C 1.167969 -6.164062 1.199219 -6.027344 1.199219 -5.890625 C 1.199219 -5.753906 1.183594 -5.617188 1.183594 -5.480469 C 1.183594 -5.34375 1.183594 -5.207031 1.183594 -5.070312 C 1.183594 -4.933594 1.183594 -4.796875 1.183594 -4.660156 C 1.183594 -4.523438 1.199219 -4.386719 1.199219 -4.25 C 1.199219 -4.113281 1.167969 -3.992188 1.167969 -3.855469 C 1.167969 -3.71875 1.167969 -3.582031 1.167969 -3.445312 C 1.167969 -3.308594 1.183594 -3.171875 1.183594 -3.035156 C 1.183594 -2.898438 1.167969 -2.761719 1.167969 -2.640625 C 1.183594 -2.503906 1.183594 -2.367188 1.183594 -2.230469 C 1.183594 -2.09375 1.183594 -1.957031 1.183594 -1.820312 C 1.183594 -1.683594 1.214844 -1.546875 1.214844 -1.410156 C 1.214844 -1.289062 1.183594 -1.152344 1.167969 -1.003906 C 1.152344 -0.851562 1.167969 -0.714844 1.167969 -0.578125 C 1.183594 -0.410156 1.167969 -0.257812 1.230469 -0.152344 C 1.273438 -0.046875 1.457031 -0.03125 1.625 0 C 1.792969 0.03125 1.972656 0.03125 2.066406 0.015625 C 2.1875 -0.015625 2.324219 0 2.445312 -0.015625 C 2.597656 -0.046875 2.734375 -0.0742188 2.777344 -0.199219 C 2.824219 -0.320312 2.839844 -0.484375 2.839844 -0.652344 C 2.855469 -0.804688 2.855469 -0.972656 2.855469 -1.125 C 2.839844 -1.304688 2.839844 -1.457031 2.839844 -1.59375 C 2.839844 -1.730469 2.839844 -1.882812 2.839844 -2.019531 C 2.839844 -2.15625 2.839844 -2.308594 2.839844 -2.445312 C 2.839844 -2.582031 2.808594 -2.734375 2.808594 -2.871094 C 2.808594 -3.007812 2.855469 -3.15625 2.855469 -3.292969 C 2.855469 -3.429688 2.808594 -3.582031 2.808594 -3.71875 C 2.976562 -3.75 3.128906 -3.734375 3.265625 -3.75 Z M 2.886719 -5.859375 C 2.886719 -6.011719 2.898438 -6.148438 2.898438 -6.285156 C 2.898438 -6.4375 2.898438 -6.574219 2.898438 -6.710938 C 2.898438 -6.847656 2.886719 -7 2.886719 -7.136719 C 2.886719 -7.273438 2.898438 -7.425781 2.898438 -7.5625 C 2.898438 -7.699219 2.898438 -7.820312 2.898438 -7.972656 C 3.050781 -7.972656 3.171875 -7.988281 3.308594 -7.988281 C 3.445312 -7.988281 3.582031 -7.988281 3.71875 -7.988281 C 3.871094 -7.988281 4.007812 -8 4.144531 -8 C 4.28125 -8 4.417969 -8 4.554688 -8 C 4.691406 -7.988281 4.84375 -8 4.980469 -8 C 5.117188 -7.988281 5.238281 -7.957031 5.34375 -7.910156 C 5.480469 -7.878906 5.617188 -7.863281 5.722656 -7.804688 C 5.832031 -7.742188 5.921875 -7.636719 6.011719 -7.5625 C 6.105469 -7.46875 6.210938 -7.378906 6.253906 -7.273438 C 6.316406 -7.152344 6.347656 -7.015625 6.347656 -6.894531 C 6.363281 -6.742188 6.316406 -6.605469 6.269531 -6.453125 C 6.226562 -6.316406 6.117188 -6.210938 6.027344 -6.089844 C 5.9375 -5.980469 5.84375 -5.859375 5.722656 -5.769531 C 5.617188 -5.695312 5.480469 -5.617188 5.34375 -5.570312 C 5.207031 -5.511719 5.070312 -5.480469 4.917969 -5.464844 C 4.796875 -5.464844 4.660156 -5.4375 4.523438 -5.4375 C 4.386719 -5.4375 4.25 -5.4375 4.113281 -5.4375 C 3.976562 -5.4375 3.839844 -5.40625 3.703125 -5.40625 C 3.566406 -5.40625 3.429688 -5.449219 3.292969 -5.449219 C 3.15625 -5.464844 3.019531 -5.421875 2.871094 -5.421875 C 2.871094 -5.570312 2.898438 -5.722656 2.886719 -5.859375 Z M 2.886719 -5.859375 "/></g></g></g><g fill="#000000" fill-opacity="1"><g transform="translate(95.669266, 128.582407)"><g><path d="M 2.640625 -7.242188 C 2.6875 -7.378906 2.75 -7.5 2.824219 -7.605469 C 2.898438 -7.714844 3.007812 -7.789062 3.113281 -7.863281 C 3.21875 -7.941406 3.308594 -8.046875 3.445312 -8.09375 C 3.566406 -8.136719 3.703125 -8.152344 3.839844 -8.167969 C 3.992188 -8.199219 4.144531 -8.214844 4.28125 -8.183594 C 4.433594 -8.152344 4.570312 -8.109375 4.707031 -8.046875 C 4.84375 -7.988281 4.980469 -7.925781 5.117188 -7.851562 C 5.238281 -7.773438 5.375 -7.683594 5.496094 -7.605469 C 5.632812 -7.53125 5.753906 -7.441406 5.875 -7.378906 C 6.027344 -7.289062 6.132812 -7.257812 6.226562 -7.242188 C 6.363281 -7.226562 6.46875 -7.257812 6.589844 -7.363281 C 6.664062 -7.441406 6.726562 -7.5625 6.832031 -7.683594 C 6.910156 -7.773438 7 -7.925781 7.074219 -8.09375 C 7.136719 -8.273438 7.195312 -8.472656 7.089844 -8.5625 C 6.878906 -8.730469 6.785156 -8.792969 6.679688 -8.867188 C 6.589844 -8.925781 6.484375 -9.003906 6.253906 -9.140625 C 6.117188 -9.230469 5.96875 -9.277344 5.84375 -9.335938 C 5.707031 -9.398438 5.570312 -9.460938 5.4375 -9.503906 C 5.300781 -9.550781 5.164062 -9.609375 5.011719 -9.640625 C 4.875 -9.671875 4.722656 -9.71875 4.570312 -9.734375 C 4.433594 -9.746094 4.28125 -9.71875 4.128906 -9.71875 C 3.976562 -9.71875 3.839844 -9.703125 3.71875 -9.6875 C 3.566406 -9.671875 3.429688 -9.671875 3.292969 -9.640625 C 3.15625 -9.609375 3.035156 -9.566406 2.898438 -9.519531 C 2.777344 -9.472656 2.65625 -9.414062 2.535156 -9.351562 C 2.398438 -9.292969 2.277344 -9.230469 2.171875 -9.15625 C 2.050781 -9.078125 1.945312 -8.988281 1.851562 -8.898438 C 1.746094 -8.792969 1.625 -8.714844 1.546875 -8.609375 C 1.457031 -8.503906 1.410156 -8.367188 1.335938 -8.246094 C 1.273438 -8.121094 1.199219 -8.015625 1.140625 -7.878906 C 1.09375 -7.757812 1.0625 -7.621094 1.03125 -7.484375 C 1.003906 -7.347656 0.972656 -7.210938 0.957031 -7.074219 C 0.941406 -6.9375 0.941406 -6.800781 0.941406 -6.648438 C 0.941406 -6.511719 0.941406 -6.363281 0.972656 -6.226562 C 0.988281 -6.089844 1.03125 -5.9375 1.078125 -5.816406 C 1.125 -5.679688 1.214844 -5.558594 1.273438 -5.4375 C 1.351562 -5.3125 1.441406 -5.191406 1.535156 -5.085938 C 1.625 -4.980469 1.746094 -4.902344 1.867188 -4.8125 C 1.972656 -4.722656 2.09375 -4.644531 2.214844 -4.585938 C 2.339844 -4.523438 2.476562 -4.464844 2.613281 -4.417969 C 2.734375 -4.371094 2.871094 -4.328125 2.992188 -4.28125 C 3.128906 -4.234375 3.25 -4.191406 3.386719 -4.144531 C 3.507812 -4.097656 3.644531 -4.054688 3.765625 -4.007812 C 3.902344 -3.960938 4.023438 -3.933594 4.160156 -3.871094 C 4.28125 -3.824219 4.402344 -3.765625 4.523438 -3.71875 C 4.660156 -3.675781 4.765625 -3.582031 4.902344 -3.539062 C 5.027344 -3.492188 5.164062 -3.460938 5.285156 -3.402344 C 5.40625 -3.324219 5.511719 -3.25 5.601562 -3.15625 C 5.695312 -3.050781 5.769531 -2.945312 5.800781 -2.808594 C 5.816406 -2.6875 5.832031 -2.550781 5.800781 -2.398438 C 5.769531 -2.277344 5.707031 -2.140625 5.617188 -2.003906 C 5.542969 -1.898438 5.421875 -1.820312 5.300781 -1.730469 C 5.191406 -1.640625 5.054688 -1.578125 4.933594 -1.519531 C 4.796875 -1.457031 4.675781 -1.398438 4.539062 -1.367188 C 4.386719 -1.335938 4.25 -1.351562 4.113281 -1.367188 C 3.960938 -1.382812 3.824219 -1.410156 3.675781 -1.457031 C 3.539062 -1.503906 3.402344 -1.5625 3.265625 -1.640625 C 3.128906 -1.699219 2.992188 -1.761719 2.871094 -1.835938 C 2.734375 -1.914062 2.625 -2.019531 2.503906 -2.109375 C 2.382812 -2.214844 2.246094 -2.292969 2.171875 -2.398438 C 2.050781 -2.535156 1.972656 -2.625 1.867188 -2.65625 C 1.746094 -2.6875 1.65625 -2.613281 1.519531 -2.503906 C 1.425781 -2.445312 1.335938 -2.351562 1.230469 -2.246094 C 1.109375 -2.125 0.988281 -2.019531 0.910156 -1.929688 C 0.804688 -1.792969 0.714844 -1.65625 0.757812 -1.519531 C 0.804688 -1.410156 0.894531 -1.289062 1.046875 -1.167969 C 1.109375 -1.09375 1.199219 -0.988281 1.351562 -0.867188 C 1.441406 -0.773438 1.546875 -0.683594 1.671875 -0.59375 C 1.777344 -0.515625 1.914062 -0.457031 2.035156 -0.378906 C 2.15625 -0.304688 2.277344 -0.242188 2.414062 -0.183594 C 2.550781 -0.121094 2.6875 -0.105469 2.824219 -0.0742188 C 2.960938 -0.03125 3.082031 0.0625 3.234375 0.0742188 C 3.355469 0.105469 3.507812 0.0898438 3.660156 0.105469 C 3.796875 0.121094 3.933594 0.167969 4.085938 0.167969 C 4.222656 0.167969 4.359375 0.152344 4.480469 0.152344 C 4.632812 0.136719 4.753906 0.105469 4.890625 0.0898438 C 5.027344 0.0742188 5.148438 0.03125 5.285156 0 C 5.421875 -0.03125 5.542969 -0.0625 5.664062 -0.105469 C 5.800781 -0.152344 5.921875 -0.199219 6.042969 -0.257812 C 6.164062 -0.320312 6.285156 -0.378906 6.390625 -0.457031 C 6.511719 -0.53125 6.605469 -0.636719 6.695312 -0.730469 C 6.800781 -0.804688 6.921875 -0.878906 7 -0.988281 C 7.089844 -1.09375 7.152344 -1.214844 7.210938 -1.335938 C 7.273438 -1.457031 7.347656 -1.5625 7.394531 -1.699219 C 7.441406 -1.820312 7.46875 -1.957031 7.5 -2.09375 C 7.515625 -2.214844 7.515625 -2.351562 7.515625 -2.488281 C 7.515625 -2.625 7.515625 -2.761719 7.5 -2.898438 C 7.484375 -3.019531 7.453125 -3.15625 7.425781 -3.28125 C 7.394531 -3.417969 7.332031 -3.539062 7.289062 -3.660156 C 7.242188 -3.78125 7.210938 -3.902344 7.136719 -4.023438 C 7.074219 -4.128906 6.984375 -4.234375 6.910156 -4.34375 C 6.816406 -4.433594 6.710938 -4.523438 6.621094 -4.617188 C 6.511719 -4.691406 6.4375 -4.796875 6.316406 -4.875 C 6.210938 -4.949219 6.105469 -5.011719 5.980469 -5.070312 C 5.859375 -5.132812 5.738281 -5.175781 5.601562 -5.222656 C 5.480469 -5.253906 5.359375 -5.285156 5.238281 -5.328125 C 5.132812 -5.359375 5.011719 -5.421875 4.890625 -5.449219 C 4.78125 -5.496094 4.660156 -5.527344 4.539062 -5.570312 C 4.417969 -5.617188 4.296875 -5.632812 4.175781 -5.679688 C 4.054688 -5.722656 3.917969 -5.753906 3.78125 -5.816406 C 3.660156 -5.859375 3.539062 -5.9375 3.417969 -5.996094 C 3.28125 -6.042969 3.15625 -6.105469 3.035156 -6.179688 C 2.914062 -6.269531 2.824219 -6.363281 2.75 -6.46875 C 2.65625 -6.574219 2.582031 -6.710938 2.566406 -6.847656 C 2.566406 -6.984375 2.613281 -7.121094 2.640625 -7.242188 Z M 2.640625 -7.242188 "/></g></g></g><g fill="#000000" fill-opacity="1"><g transform="translate(104.865509, 128.582407)"><g/></g></g><g fill="#000000" fill-opacity="1"><g transform="translate(110.040566, 128.582407)"><g><path d="M 3.050781 -1.714844 C 3.1875 -1.699219 3.324219 -1.671875 3.460938 -1.671875 C 3.613281 -1.671875 3.75 -1.671875 3.886719 -1.671875 C 4.023438 -1.671875 4.160156 -1.683594 4.296875 -1.683594 C 4.433594 -1.683594 4.570312 -1.683594 4.707031 -1.683594 C 4.84375 -1.699219 4.996094 -1.730469 5.148438 -1.730469 C 5.3125 -1.714844 5.464844 -1.699219 5.601562 -1.699219 C 5.859375 -1.683594 5.859375 -1.777344 6.058594 -1.683594 C 6.226562 -1.609375 6.117188 -1.535156 6.242188 -1.351562 C 6.300781 -1.261719 6.390625 -1.167969 6.453125 -1.046875 C 6.511719 -0.941406 6.558594 -0.835938 6.605469 -0.714844 C 6.664062 -0.605469 6.726562 -0.484375 6.742188 -0.378906 C 6.785156 -0.210938 6.863281 -0.136719 6.9375 -0.0742188 C 7.03125 -0.015625 7.136719 -0.015625 7.289062 -0.015625 C 7.394531 -0.015625 7.53125 0 7.667969 0 C 7.820312 0 7.941406 -0.03125 8.046875 -0.046875 C 8.214844 -0.0742188 8.320312 -0.121094 8.367188 -0.210938 C 8.410156 -0.304688 8.394531 -0.425781 8.335938 -0.59375 C 8.289062 -0.699219 8.246094 -0.835938 8.183594 -0.972656 C 8.136719 -1.09375 8.121094 -1.246094 8.0625 -1.367188 C 8.015625 -1.503906 7.925781 -1.609375 7.878906 -1.746094 C 7.820312 -1.882812 7.773438 -2.003906 7.714844 -2.140625 C 7.667969 -2.261719 7.652344 -2.414062 7.605469 -2.535156 C 7.546875 -2.671875 7.46875 -2.792969 7.425781 -2.914062 C 7.378906 -3.050781 7.304688 -3.171875 7.257812 -3.292969 C 7.210938 -3.417969 7.183594 -3.554688 7.136719 -3.675781 C 7.089844 -3.796875 7.015625 -3.917969 6.96875 -4.039062 C 6.921875 -4.175781 6.863281 -4.296875 6.816406 -4.417969 C 6.773438 -4.539062 6.742188 -4.675781 6.695312 -4.796875 C 6.648438 -4.933594 6.605469 -5.054688 6.558594 -5.175781 C 6.5 -5.300781 6.453125 -5.421875 6.390625 -5.558594 C 6.347656 -5.679688 6.332031 -5.816406 6.285156 -5.9375 C 6.242188 -6.074219 6.148438 -6.179688 6.105469 -6.300781 C 6.058594 -6.421875 6.027344 -6.558594 5.980469 -6.679688 C 5.921875 -6.816406 5.90625 -6.9375 5.859375 -7.074219 C 5.816406 -7.195312 5.738281 -7.316406 5.679688 -7.441406 C 5.632812 -7.5625 5.601562 -7.699219 5.558594 -7.820312 C 5.496094 -7.941406 5.449219 -8.0625 5.40625 -8.199219 C 5.359375 -8.320312 5.285156 -8.441406 5.238281 -8.5625 C 5.191406 -8.683594 5.132812 -8.804688 5.085938 -8.925781 C 5.011719 -9.125 4.996094 -9.277344 4.933594 -9.367188 C 4.8125 -9.550781 4.691406 -9.582031 4.539062 -9.597656 C 4.417969 -9.609375 4.28125 -9.609375 4.085938 -9.597656 C 3.949219 -9.597656 3.871094 -9.582031 3.75 -9.488281 C 3.691406 -9.429688 3.582031 -9.367188 3.492188 -9.230469 C 3.445312 -9.140625 3.429688 -9.019531 3.371094 -8.882812 C 3.324219 -8.777344 3.265625 -8.667969 3.21875 -8.546875 C 3.171875 -8.425781 3.144531 -8.289062 3.097656 -8.152344 C 3.050781 -8.03125 3.007812 -7.910156 2.960938 -7.773438 C 2.914062 -7.652344 2.871094 -7.515625 2.824219 -7.394531 C 2.777344 -7.257812 2.71875 -7.136719 2.671875 -7 C 2.625 -6.878906 2.625 -6.726562 2.582031 -6.605469 C 2.535156 -6.46875 2.460938 -6.363281 2.414062 -6.226562 C 2.367188 -6.105469 2.351562 -5.96875 2.308594 -5.832031 C 2.261719 -5.695312 2.1875 -5.585938 2.140625 -5.449219 C 2.109375 -5.328125 2.066406 -5.191406 2.019531 -5.054688 C 1.972656 -4.933594 1.945312 -4.796875 1.898438 -4.675781 C 1.851562 -4.539062 1.808594 -4.417969 1.761719 -4.28125 C 1.714844 -4.160156 1.683594 -4.023438 1.640625 -3.886719 C 1.59375 -3.765625 1.503906 -3.644531 1.457031 -3.523438 C 1.410156 -3.402344 1.425781 -3.25 1.382812 -3.113281 C 1.335938 -2.992188 1.289062 -2.871094 1.246094 -2.734375 C 1.199219 -2.613281 1.109375 -2.488281 1.0625 -2.367188 C 1.015625 -2.230469 1.015625 -2.09375 0.972656 -1.972656 C 0.925781 -1.835938 0.867188 -1.714844 0.820312 -1.59375 C 0.789062 -1.519531 0.730469 -1.351562 0.652344 -1.167969 C 0.605469 -1.03125 0.5625 -0.878906 0.5 -0.742188 C 0.441406 -0.546875 0.410156 -0.378906 0.410156 -0.304688 C 0.378906 -0.046875 0.46875 0.015625 0.667969 0.015625 C 0.804688 0.03125 0.972656 0 1.167969 0.015625 C 1.304688 0.03125 1.488281 0.03125 1.65625 0 C 1.820312 -0.03125 1.945312 -0.0898438 2.035156 -0.242188 C 2.09375 -0.363281 2.171875 -0.46875 2.214844 -0.59375 C 2.261719 -0.714844 2.308594 -0.835938 2.351562 -0.957031 C 2.398438 -1.078125 2.429688 -1.199219 2.488281 -1.320312 C 2.535156 -1.441406 2.566406 -1.578125 2.625 -1.699219 C 2.761719 -1.699219 2.914062 -1.714844 3.050781 -1.714844 Z M 3.25 -3.734375 C 3.292969 -3.871094 3.339844 -3.992188 3.386719 -4.113281 C 3.429688 -4.25 3.476562 -4.371094 3.523438 -4.507812 C 3.566406 -4.632812 3.613281 -4.753906 3.675781 -4.875 C 3.71875 -5.011719 3.75 -5.132812 3.8125 -5.253906 C 3.855469 -5.390625 3.949219 -5.496094 3.992188 -5.617188 C 4.039062 -5.738281 4.039062 -5.890625 4.085938 -6.027344 C 4.128906 -6.148438 4.207031 -6.285156 4.25 -6.421875 C 4.328125 -6.285156 4.371094 -6.132812 4.433594 -6.027344 C 4.507812 -5.890625 4.601562 -5.785156 4.660156 -5.664062 C 4.738281 -5.542969 4.78125 -5.40625 4.828125 -5.285156 C 4.890625 -5.164062 4.933594 -5.027344 4.980469 -4.902344 C 5.039062 -4.765625 5.101562 -4.644531 5.148438 -4.507812 C 5.207031 -4.386719 5.285156 -4.265625 5.328125 -4.144531 C 5.390625 -4.007812 5.40625 -3.871094 5.449219 -3.734375 C 5.511719 -3.613281 5.570312 -3.492188 5.632812 -3.355469 C 5.480469 -3.355469 5.359375 -3.339844 5.222656 -3.339844 C 5.070312 -3.339844 4.933594 -3.339844 4.796875 -3.339844 C 4.644531 -3.339844 4.507812 -3.371094 4.371094 -3.371094 C 4.234375 -3.371094 4.097656 -3.355469 3.949219 -3.355469 C 3.8125 -3.355469 3.675781 -3.355469 3.523438 -3.355469 C 3.386719 -3.355469 3.234375 -3.339844 3.082031 -3.339844 C 3.128906 -3.476562 3.203125 -3.613281 3.25 -3.734375 Z M 3.25 -3.734375 "/></g></g></g><g fill="#000000" fill-opacity="1"><g transform="translate(119.752742, 128.582407)"><g><path d="M 3.265625 -3.75 C 3.417969 -3.78125 3.554688 -3.855469 3.675781 -3.871094 C 3.839844 -3.886719 3.992188 -3.871094 4.113281 -3.855469 C 4.28125 -3.855469 4.402344 -3.824219 4.523438 -3.75 C 4.632812 -3.691406 4.738281 -3.597656 4.828125 -3.460938 C 4.890625 -3.355469 4.949219 -3.21875 5.027344 -3.066406 C 5.070312 -2.945312 5.117188 -2.808594 5.191406 -2.671875 C 5.238281 -2.550781 5.328125 -2.429688 5.390625 -2.292969 C 5.449219 -2.15625 5.480469 -2.019531 5.542969 -1.882812 C 5.601562 -1.746094 5.664062 -1.625 5.722656 -1.488281 C 5.785156 -1.351562 5.875 -1.246094 5.9375 -1.109375 C 5.996094 -0.988281 6.074219 -0.851562 6.117188 -0.730469 C 6.195312 -0.578125 6.226562 -0.441406 6.285156 -0.335938 C 6.375 -0.183594 6.5 -0.121094 6.589844 -0.0625 C 6.710938 0 6.816406 0 6.984375 0 C 7.105469 -0.015625 7.242188 -0.015625 7.410156 -0.015625 C 7.5625 -0.015625 7.699219 0 7.789062 -0.015625 C 7.957031 -0.046875 8.03125 -0.105469 8.015625 -0.257812 C 8 -0.347656 7.988281 -0.484375 7.925781 -0.636719 C 7.894531 -0.742188 7.804688 -0.851562 7.742188 -0.988281 C 7.699219 -1.109375 7.652344 -1.230469 7.589844 -1.367188 C 7.546875 -1.488281 7.453125 -1.609375 7.394531 -1.746094 C 7.347656 -1.867188 7.289062 -1.988281 7.242188 -2.125 C 7.183594 -2.246094 7.121094 -2.367188 7.058594 -2.488281 C 7 -2.625 6.953125 -2.75 6.894531 -2.871094 C 6.832031 -3.007812 6.785156 -3.128906 6.726562 -3.25 C 6.664062 -3.386719 6.605469 -3.507812 6.558594 -3.628906 C 6.5 -3.75 6.46875 -3.902344 6.421875 -4.023438 C 6.375 -4.113281 6.375 -4.234375 6.46875 -4.3125 C 6.605469 -4.433594 6.726562 -4.554688 6.832031 -4.644531 C 6.96875 -4.765625 7.121094 -4.84375 7.242188 -4.964844 C 7.332031 -5.070312 7.394531 -5.191406 7.46875 -5.300781 C 7.546875 -5.40625 7.621094 -5.527344 7.683594 -5.648438 C 7.726562 -5.769531 7.757812 -5.90625 7.804688 -6.027344 C 7.835938 -6.164062 7.863281 -6.285156 7.878906 -6.421875 C 7.894531 -6.542969 7.925781 -6.679688 7.925781 -6.816406 C 7.925781 -6.953125 7.941406 -7.089844 7.925781 -7.226562 C 7.910156 -7.347656 7.851562 -7.484375 7.804688 -7.605469 C 7.773438 -7.742188 7.714844 -7.863281 7.667969 -7.988281 C 7.605469 -8.109375 7.5625 -8.230469 7.484375 -8.335938 C 7.410156 -8.441406 7.332031 -8.546875 7.242188 -8.65625 C 7.152344 -8.746094 7.046875 -8.835938 6.9375 -8.914062 C 6.832031 -9.003906 6.742188 -9.078125 6.621094 -9.15625 C 6.5 -9.214844 6.375 -9.261719 6.253906 -9.308594 C 6.132812 -9.351562 6.011719 -9.429688 5.875 -9.445312 C 5.722656 -9.472656 5.585938 -9.460938 5.4375 -9.488281 C 5.300781 -9.503906 5.164062 -9.535156 5.011719 -9.550781 C 4.875 -9.566406 4.722656 -9.566406 4.585938 -9.582031 C 4.433594 -9.582031 4.296875 -9.597656 4.144531 -9.609375 C 4.007812 -9.609375 3.855469 -9.597656 3.71875 -9.609375 C 3.582031 -9.609375 3.429688 -9.609375 3.292969 -9.609375 C 3.144531 -9.609375 3.007812 -9.625 2.855469 -9.625 C 2.71875 -9.609375 2.566406 -9.597656 2.429688 -9.597656 C 2.261719 -9.597656 2.109375 -9.609375 1.972656 -9.609375 C 1.792969 -9.609375 1.65625 -9.582031 1.535156 -9.535156 C 1.398438 -9.472656 1.320312 -9.382812 1.273438 -9.199219 C 1.261719 -9.078125 1.246094 -8.925781 1.246094 -8.746094 C 1.230469 -8.609375 1.230469 -8.472656 1.230469 -8.335938 C 1.230469 -8.214844 1.230469 -8.078125 1.230469 -7.941406 C 1.230469 -7.804688 1.230469 -7.667969 1.230469 -7.53125 C 1.230469 -7.394531 1.230469 -7.257812 1.230469 -7.121094 C 1.230469 -6.984375 1.214844 -6.847656 1.199219 -6.710938 C 1.199219 -6.574219 1.167969 -6.4375 1.167969 -6.300781 C 1.167969 -6.164062 1.199219 -6.027344 1.199219 -5.890625 C 1.199219 -5.753906 1.183594 -5.617188 1.183594 -5.480469 C 1.183594 -5.34375 1.183594 -5.207031 1.183594 -5.070312 C 1.183594 -4.933594 1.183594 -4.796875 1.183594 -4.660156 C 1.183594 -4.523438 1.199219 -4.386719 1.199219 -4.25 C 1.199219 -4.113281 1.167969 -3.992188 1.167969 -3.855469 C 1.167969 -3.71875 1.167969 -3.582031 1.167969 -3.445312 C 1.167969 -3.308594 1.183594 -3.171875 1.183594 -3.035156 C 1.183594 -2.898438 1.167969 -2.761719 1.167969 -2.640625 C 1.183594 -2.503906 1.183594 -2.367188 1.183594 -2.230469 C 1.183594 -2.09375 1.183594 -1.957031 1.183594 -1.820312 C 1.183594 -1.683594 1.214844 -1.546875 1.214844 -1.410156 C 1.214844 -1.289062 1.183594 -1.152344 1.167969 -1.003906 C 1.152344 -0.851562 1.167969 -0.714844 1.167969 -0.578125 C 1.183594 -0.410156 1.167969 -0.257812 1.230469 -0.152344 C 1.273438 -0.046875 1.457031 -0.03125 1.625 0 C 1.792969 0.03125 1.972656 0.03125 2.066406 0.015625 C 2.1875 -0.015625 2.324219 0 2.445312 -0.015625 C 2.597656 -0.046875 2.734375 -0.0742188 2.777344 -0.199219 C 2.824219 -0.320312 2.839844 -0.484375 2.839844 -0.652344 C 2.855469 -0.804688 2.855469 -0.972656 2.855469 -1.125 C 2.839844 -1.304688 2.839844 -1.457031 2.839844 -1.59375 C 2.839844 -1.730469 2.839844 -1.882812 2.839844 -2.019531 C 2.839844 -2.15625 2.839844 -2.308594 2.839844 -2.445312 C 2.839844 -2.582031 2.808594 -2.734375 2.808594 -2.871094 C 2.808594 -3.007812 2.855469 -3.15625 2.855469 -3.292969 C 2.855469 -3.429688 2.808594 -3.582031 2.808594 -3.71875 C 2.976562 -3.75 3.128906 -3.734375 3.265625 -3.75 Z M 2.886719 -5.859375 C 2.886719 -6.011719 2.898438 -6.148438 2.898438 -6.285156 C 2.898438 -6.4375 2.898438 -6.574219 2.898438 -6.710938 C 2.898438 -6.847656 2.886719 -7 2.886719 -7.136719 C 2.886719 -7.273438 2.898438 -7.425781 2.898438 -7.5625 C 2.898438 -7.699219 2.898438 -7.820312 2.898438 -7.972656 C 3.050781 -7.972656 3.171875 -7.988281 3.308594 -7.988281 C 3.445312 -7.988281 3.582031 -7.988281 3.71875 -7.988281 C 3.871094 -7.988281 4.007812 -8 4.144531 -8 C 4.28125 -8 4.417969 -8 4.554688 -8 C 4.691406 -7.988281 4.84375 -8 4.980469 -8 C 5.117188 -7.988281 5.238281 -7.957031 5.34375 -7.910156 C 5.480469 -7.878906 5.617188 -7.863281 5.722656 -7.804688 C 5.832031 -7.742188 5.921875 -7.636719 6.011719 -7.5625 C 6.105469 -7.46875 6.210938 -7.378906 6.253906 -7.273438 C 6.316406 -7.152344 6.347656 -7.015625 6.347656 -6.894531 C 6.363281 -6.742188 6.316406 -6.605469 6.269531 -6.453125 C 6.226562 -6.316406 6.117188 -6.210938 6.027344 -6.089844 C 5.9375 -5.980469 5.84375 -5.859375 5.722656 -5.769531 C 5.617188 -5.695312 5.480469 -5.617188 5.34375 -5.570312 C 5.207031 -5.511719 5.070312 -5.480469 4.917969 -5.464844 C 4.796875 -5.464844 4.660156 -5.4375 4.523438 -5.4375 C 4.386719 -5.4375 4.25 -5.4375 4.113281 -5.4375 C 3.976562 -5.4375 3.839844 -5.40625 3.703125 -5.40625 C 3.566406 -5.40625 3.429688 -5.449219 3.292969 -5.449219 C 3.15625 -5.464844 3.019531 -5.421875 2.871094 -5.421875 C 2.871094 -5.570312 2.898438 -5.722656 2.886719 -5.859375 Z M 2.886719 -5.859375 "/></g></g></g><g fill="#000000" fill-opacity="1"><g transform="translate(129.480089, 128.582407)"><g><path d="M 3.324219 -7.863281 C 3.476562 -7.863281 3.613281 -7.878906 3.765625 -7.878906 C 3.902344 -7.878906 4.039062 -7.851562 4.191406 -7.851562 C 4.328125 -7.851562 4.464844 -7.863281 4.617188 -7.863281 C 4.753906 -7.863281 4.902344 -7.851562 5.039062 -7.851562 C 5.175781 -7.851562 5.328125 -7.851562 5.464844 -7.851562 C 5.601562 -7.851562 5.753906 -7.878906 5.890625 -7.878906 C 6.027344 -7.878906 6.179688 -7.878906 6.316406 -7.878906 C 6.5 -7.878906 6.648438 -7.863281 6.773438 -7.894531 C 6.9375 -7.925781 7.03125 -7.988281 7.105469 -8.136719 C 7.167969 -8.246094 7.210938 -8.382812 7.226562 -8.578125 C 7.226562 -8.730469 7.242188 -8.882812 7.242188 -9.003906 C 7.242188 -9.171875 7.226562 -9.308594 7.136719 -9.414062 C 7.046875 -9.472656 6.9375 -9.566406 6.742188 -9.597656 C 6.621094 -9.609375 6.46875 -9.582031 6.300781 -9.582031 C 6.164062 -9.582031 6.027344 -9.597656 5.90625 -9.582031 C 5.769531 -9.582031 5.632812 -9.625 5.511719 -9.609375 C 5.375 -9.609375 5.238281 -9.582031 5.101562 -9.582031 C 4.980469 -9.566406 4.84375 -9.550781 4.707031 -9.535156 C 4.585938 -9.535156 4.449219 -9.550781 4.3125 -9.550781 C 4.175781 -9.535156 4.023438 -9.503906 3.886719 -9.503906 C 3.734375 -9.503906 3.582031 -9.503906 3.445312 -9.519531 C 3.292969 -9.519531 3.15625 -9.550781 3.007812 -9.566406 C 2.871094 -9.582031 2.71875 -9.582031 2.582031 -9.597656 C 2.429688 -9.597656 2.277344 -9.597656 2.140625 -9.597656 C 1.988281 -9.597656 1.851562 -9.640625 1.699219 -9.640625 C 1.546875 -9.640625 1.425781 -9.597656 1.273438 -9.582031 C 1.273438 -9.460938 1.261719 -9.335938 1.261719 -9.199219 C 1.261719 -9.0625 1.230469 -8.925781 1.214844 -8.792969 C 1.214844 -8.65625 1.246094 -8.519531 1.246094 -8.394531 C 1.246094 -8.257812 1.230469 -8.121094 1.230469 -7.988281 C 1.214844 -7.851562 1.214844 -7.714844 1.214844 -7.578125 C 1.214844 -7.441406 1.230469 -7.304688 1.230469 -7.183594 C 1.230469 -7.046875 1.230469 -6.910156 1.230469 -6.773438 C 1.230469 -6.636719 1.183594 -6.5 1.183594 -6.363281 C 1.183594 -6.242188 1.214844 -6.105469 1.214844 -5.96875 C 1.214844 -5.832031 1.199219 -5.695312 1.199219 -5.558594 C 1.199219 -5.4375 1.230469 -5.300781 1.214844 -5.164062 C 1.214844 -5.027344 1.167969 -4.890625 1.152344 -4.753906 C 1.152344 -4.632812 1.199219 -4.496094 1.183594 -4.359375 C 1.183594 -4.222656 1.167969 -4.085938 1.152344 -3.960938 C 1.152344 -3.824219 1.167969 -3.691406 1.167969 -3.554688 C 1.167969 -3.417969 1.167969 -3.28125 1.167969 -3.15625 C 1.167969 -3.019531 1.167969 -2.886719 1.167969 -2.75 C 1.167969 -2.625 1.152344 -2.488281 1.152344 -2.351562 C 1.140625 -2.214844 1.199219 -2.082031 1.199219 -1.945312 C 1.199219 -1.820312 1.152344 -1.683594 1.152344 -1.546875 C 1.152344 -1.410156 1.183594 -1.273438 1.183594 -1.152344 C 1.183594 -1.015625 1.152344 -0.878906 1.152344 -0.742188 C 1.152344 -0.636719 1.261719 -0.46875 1.398438 -0.335938 C 1.535156 -0.199219 1.699219 -0.105469 1.820312 -0.0898438 C 1.945312 -0.0898438 2.082031 -0.0742188 2.214844 -0.0742188 C 2.339844 -0.0625 2.476562 -0.0742188 2.613281 -0.0625 C 2.734375 -0.0625 2.871094 -0.015625 3.007812 0 C 3.128906 0 3.265625 -0.046875 3.402344 -0.046875 C 3.539062 -0.046875 3.660156 -0.03125 3.796875 -0.03125 C 3.933594 -0.03125 4.070312 0.015625 4.191406 0.03125 C 4.328125 0.03125 4.464844 -0.015625 4.585938 -0.015625 C 4.722656 0 4.859375 0.015625 4.996094 0.015625 C 5.117188 0.015625 5.253906 0.03125 5.390625 0.03125 C 5.511719 0.03125 5.648438 0.015625 5.785156 0.015625 C 5.921875 0.015625 6.042969 -0.015625 6.179688 -0.015625 C 6.316406 -0.015625 6.4375 0.015625 6.574219 0.015625 C 6.726562 0.015625 6.847656 -0.03125 6.921875 -0.105469 C 7.03125 -0.183594 7.058594 -0.289062 7.089844 -0.425781 C 7.105469 -0.53125 7.089844 -0.652344 7.046875 -0.773438 C 7.015625 -0.894531 6.984375 -1.015625 6.921875 -1.125 C 6.847656 -1.246094 6.757812 -1.351562 6.679688 -1.441406 C 6.589844 -1.535156 6.484375 -1.59375 6.316406 -1.609375 C 6.179688 -1.625 6.027344 -1.609375 5.875 -1.609375 C 5.722656 -1.609375 5.570312 -1.640625 5.421875 -1.640625 C 5.269531 -1.640625 5.117188 -1.65625 4.964844 -1.65625 C 4.8125 -1.65625 4.675781 -1.625 4.523438 -1.625 C 4.371094 -1.625 4.222656 -1.59375 4.070312 -1.609375 C 3.917969 -1.609375 3.78125 -1.609375 3.628906 -1.609375 C 3.476562 -1.609375 3.324219 -1.59375 3.1875 -1.59375 C 2.929688 -1.59375 2.945312 -1.503906 2.777344 -1.640625 C 2.625 -1.746094 2.71875 -1.761719 2.703125 -1.988281 C 2.703125 -2.09375 2.71875 -2.230469 2.71875 -2.367188 C 2.71875 -2.476562 2.703125 -2.613281 2.703125 -2.734375 C 2.703125 -2.855469 2.703125 -2.992188 2.71875 -3.097656 C 2.71875 -3.234375 2.703125 -3.371094 2.71875 -3.507812 C 2.734375 -3.628906 2.75 -3.75 2.792969 -3.902344 C 2.914062 -3.902344 3.050781 -3.886719 3.1875 -3.886719 C 3.324219 -3.871094 3.460938 -3.886719 3.582031 -3.886719 C 3.71875 -3.886719 3.855469 -3.871094 3.992188 -3.871094 C 4.128906 -3.871094 4.25 -3.871094 4.386719 -3.871094 C 4.523438 -3.871094 4.644531 -3.886719 4.78125 -3.902344 C 4.917969 -3.902344 5.039062 -3.886719 5.175781 -3.886719 C 5.328125 -3.886719 5.449219 -3.933594 5.558594 -3.933594 C 5.707031 -3.949219 5.84375 -3.933594 5.9375 -3.976562 C 6.074219 -4.023438 6.164062 -4.113281 6.210938 -4.25 C 6.242188 -4.34375 6.195312 -4.480469 6.179688 -4.632812 C 6.179688 -4.738281 6.195312 -4.875 6.164062 -5.011719 C 6.148438 -5.132812 6.117188 -5.269531 6.089844 -5.40625 C 5.953125 -5.421875 5.785156 -5.390625 5.648438 -5.390625 C 5.496094 -5.40625 5.359375 -5.4375 5.207031 -5.4375 C 5.054688 -5.4375 4.917969 -5.464844 4.765625 -5.464844 C 4.617188 -5.480469 4.480469 -5.4375 4.328125 -5.449219 C 4.175781 -5.464844 4.039062 -5.527344 3.886719 -5.542969 C 3.78125 -5.542969 3.644531 -5.511719 3.523438 -5.511719 C 3.402344 -5.511719 3.28125 -5.527344 3.15625 -5.527344 C 2.945312 -5.527344 2.898438 -5.375 2.777344 -5.511719 C 2.640625 -5.664062 2.792969 -5.707031 2.777344 -5.9375 C 2.777344 -6.058594 2.75 -6.210938 2.75 -6.347656 C 2.75 -6.484375 2.777344 -6.636719 2.777344 -6.757812 C 2.777344 -6.878906 2.792969 -6.984375 2.808594 -7.121094 C 2.824219 -7.226562 2.808594 -7.347656 2.824219 -7.484375 C 2.839844 -7.605469 2.886719 -7.714844 2.898438 -7.851562 C 3.050781 -7.851562 3.1875 -7.863281 3.324219 -7.863281 Z M 3.324219 -7.863281 "/></g></g></g><g fill="#000000" fill-opacity="1"><g transform="translate(138.312147, 128.582407)"><g><path d="M 2.929688 -5.585938 C 2.992188 -5.585938 3.097656 -5.4375 3.21875 -5.238281 C 3.28125 -5.132812 3.386719 -5.011719 3.460938 -4.875 C 3.539062 -4.753906 3.597656 -4.617188 3.660156 -4.480469 C 3.734375 -4.34375 3.78125 -4.191406 3.839844 -4.085938 C 3.917969 -3.960938 4.007812 -3.855469 4.085938 -3.734375 C 4.144531 -3.613281 4.222656 -3.492188 4.296875 -3.371094 C 4.371094 -3.265625 4.417969 -3.128906 4.496094 -3.019531 C 4.570312 -2.898438 4.691406 -2.808594 4.753906 -2.6875 C 4.828125 -2.566406 4.917969 -2.460938 4.996094 -2.339844 C 5.070312 -2.230469 5.132812 -2.109375 5.207031 -1.988281 C 5.300781 -1.867188 5.375 -1.761719 5.449219 -1.640625 C 5.527344 -1.519531 5.570312 -1.398438 5.648438 -1.273438 C 5.722656 -1.152344 5.816406 -1.046875 5.890625 -0.925781 C 5.96875 -0.804688 6.027344 -0.667969 6.105469 -0.546875 C 6.195312 -0.441406 6.300781 -0.335938 6.40625 -0.242188 C 6.511719 -0.167969 6.636719 -0.0898438 6.773438 -0.046875 C 6.910156 0 7.046875 0 7.210938 0 C 7.378906 0 7.5 0 7.589844 -0.015625 C 7.757812 -0.0625 7.804688 -0.152344 7.835938 -0.289062 C 7.851562 -0.394531 7.851562 -0.515625 7.863281 -0.683594 C 7.863281 -0.820312 7.851562 -0.957031 7.863281 -1.09375 C 7.863281 -1.230469 7.894531 -1.367188 7.910156 -1.503906 C 7.910156 -1.640625 7.878906 -1.777344 7.878906 -1.914062 C 7.878906 -2.050781 7.894531 -2.1875 7.894531 -2.324219 C 7.894531 -2.460938 7.925781 -2.597656 7.925781 -2.734375 C 7.925781 -2.871094 7.894531 -3.007812 7.910156 -3.15625 C 7.910156 -3.292969 7.941406 -3.429688 7.941406 -3.566406 C 7.941406 -3.703125 7.957031 -3.839844 7.957031 -3.976562 C 7.957031 -4.113281 7.925781 -4.25 7.925781 -4.386719 C 7.925781 -4.523438 7.972656 -4.660156 7.972656 -4.796875 C 7.972656 -4.949219 7.972656 -5.085938 7.972656 -5.222656 C 7.988281 -5.359375 7.957031 -5.496094 7.957031 -5.632812 C 7.957031 -5.769531 7.957031 -5.90625 7.957031 -6.042969 C 7.957031 -6.179688 7.988281 -6.316406 7.988281 -6.453125 C 7.988281 -6.589844 8 -6.726562 8 -6.847656 C 8 -7 7.972656 -7.136719 7.972656 -7.257812 C 7.972656 -7.410156 8.015625 -7.546875 8.015625 -7.683594 C 8.015625 -7.820312 8 -7.957031 8 -8.09375 C 8 -8.230469 8 -8.367188 8 -8.503906 C 8 -8.65625 8.03125 -8.777344 8.015625 -8.898438 C 8 -9.050781 7.988281 -9.1875 7.941406 -9.292969 C 7.878906 -9.429688 7.789062 -9.519531 7.652344 -9.566406 C 7.546875 -9.609375 7.410156 -9.582031 7.257812 -9.582031 C 7.136719 -9.566406 7 -9.566406 6.847656 -9.535156 C 6.742188 -9.519531 6.621094 -9.460938 6.484375 -9.414062 C 6.484375 -9.292969 6.453125 -9.1875 6.453125 -9.035156 C 6.4375 -8.914062 6.453125 -8.777344 6.453125 -8.640625 C 6.453125 -8.503906 6.421875 -8.367188 6.421875 -8.230469 C 6.421875 -8.09375 6.453125 -7.957031 6.453125 -7.820312 C 6.453125 -7.699219 6.421875 -7.5625 6.421875 -7.425781 C 6.421875 -7.289062 6.4375 -7.152344 6.4375 -7.015625 C 6.4375 -6.878906 6.390625 -6.742188 6.390625 -6.605469 C 6.390625 -6.484375 6.4375 -6.347656 6.4375 -6.210938 C 6.4375 -6.074219 6.40625 -5.9375 6.40625 -5.800781 C 6.40625 -5.664062 6.390625 -5.527344 6.390625 -5.40625 C 6.390625 -5.269531 6.40625 -5.132812 6.40625 -4.996094 C 6.40625 -4.859375 6.390625 -4.722656 6.390625 -4.601562 C 6.375 -4.449219 6.363281 -4.3125 6.363281 -4.207031 C 6.347656 -3.949219 6.347656 -3.796875 6.332031 -3.8125 C 6.195312 -3.824219 6.089844 -3.960938 5.980469 -4.113281 C 5.890625 -4.265625 5.816406 -4.449219 5.753906 -4.539062 C 5.679688 -4.644531 5.570312 -4.753906 5.511719 -4.859375 C 5.4375 -4.980469 5.359375 -5.101562 5.285156 -5.222656 C 5.207031 -5.328125 5.175781 -5.464844 5.101562 -5.585938 C 5.027344 -5.707031 4.917969 -5.800781 4.84375 -5.921875 C 4.78125 -6.042969 4.707031 -6.148438 4.632812 -6.269531 C 4.554688 -6.390625 4.496094 -6.511719 4.417969 -6.636719 C 4.34375 -6.757812 4.28125 -6.878906 4.222656 -7 C 4.144531 -7.105469 4.070312 -7.226562 3.992188 -7.347656 C 3.917969 -7.46875 3.871094 -7.589844 3.796875 -7.714844 C 3.734375 -7.835938 3.628906 -7.925781 3.554688 -8.046875 C 3.476562 -8.152344 3.429688 -8.289062 3.355469 -8.394531 C 3.28125 -8.519531 3.1875 -8.625 3.113281 -8.746094 C 3.050781 -8.867188 2.976562 -8.988281 2.914062 -9.09375 C 2.824219 -9.261719 2.75 -9.351562 2.65625 -9.445312 C 2.550781 -9.535156 2.445312 -9.566406 2.277344 -9.582031 C 2.171875 -9.597656 2.019531 -9.597656 1.851562 -9.582031 C 1.609375 -9.597656 1.472656 -9.597656 1.382812 -9.597656 C 1.199219 -9.582031 1.183594 -9.519531 1.183594 -9.246094 C 1.183594 -9.109375 1.214844 -8.972656 1.214844 -8.835938 C 1.214844 -8.699219 1.214844 -8.5625 1.214844 -8.425781 C 1.214844 -8.289062 1.167969 -8.152344 1.167969 -8.015625 C 1.167969 -7.878906 1.183594 -7.742188 1.183594 -7.605469 C 1.183594 -7.46875 1.167969 -7.332031 1.183594 -7.195312 C 1.183594 -7.058594 1.199219 -6.921875 1.199219 -6.785156 C 1.199219 -6.648438 1.214844 -6.511719 1.214844 -6.375 C 1.214844 -6.242188 1.199219 -6.105469 1.199219 -5.96875 C 1.199219 -5.832031 1.167969 -5.695312 1.167969 -5.570312 C 1.183594 -5.4375 1.214844 -5.300781 1.214844 -5.164062 C 1.214844 -5.027344 1.230469 -4.890625 1.230469 -4.753906 C 1.230469 -4.617188 1.214844 -4.480469 1.214844 -4.34375 C 1.214844 -4.207031 1.214844 -4.070312 1.214844 -3.933594 C 1.214844 -3.8125 1.230469 -3.660156 1.230469 -3.523438 C 1.230469 -3.386719 1.214844 -3.25 1.214844 -3.097656 C 1.214844 -2.960938 1.214844 -2.824219 1.214844 -2.671875 C 1.214844 -2.535156 1.183594 -2.398438 1.183594 -2.246094 C 1.183594 -2.109375 1.214844 -1.972656 1.214844 -1.835938 C 1.214844 -1.683594 1.199219 -1.546875 1.183594 -1.410156 C 1.183594 -1.273438 1.199219 -1.125 1.199219 -0.988281 C 1.199219 -0.851562 1.183594 -0.699219 1.183594 -0.578125 C 1.183594 -0.394531 1.214844 -0.273438 1.273438 -0.183594 C 1.335938 -0.0742188 1.441406 0 1.59375 0.03125 C 1.699219 0.0625 1.835938 0.0742188 1.988281 0.0742188 C 2.15625 0.0742188 2.292969 0.0625 2.414062 0.03125 C 2.566406 0 2.6875 -0.0625 2.761719 -0.183594 C 2.824219 -0.273438 2.839844 -0.410156 2.855469 -0.578125 C 2.855469 -0.683594 2.855469 -0.820312 2.839844 -0.957031 C 2.839844 -1.09375 2.839844 -1.214844 2.839844 -1.351562 C 2.824219 -1.488281 2.824219 -1.625 2.824219 -1.730469 C 2.824219 -1.882812 2.824219 -2.035156 2.824219 -2.171875 C 2.808594 -2.324219 2.808594 -2.460938 2.808594 -2.597656 C 2.808594 -2.75 2.808594 -2.898438 2.808594 -3.035156 C 2.808594 -3.1875 2.824219 -3.324219 2.824219 -3.476562 C 2.824219 -3.613281 2.855469 -3.765625 2.855469 -3.902344 C 2.855469 -4.054688 2.824219 -4.191406 2.824219 -4.34375 C 2.824219 -4.480469 2.824219 -4.632812 2.824219 -4.78125 C 2.824219 -4.917969 2.824219 -5.054688 2.808594 -5.222656 C 2.824219 -5.390625 2.761719 -5.617188 2.929688 -5.585938 Z M 2.929688 -5.585938 "/></g></g></g><g fill="#000000" fill-opacity="1"><g transform="translate(148.373325, 128.582407)"><g><path d="M 3.050781 -1.714844 C 3.1875 -1.699219 3.324219 -1.671875 3.460938 -1.671875 C 3.613281 -1.671875 3.75 -1.671875 3.886719 -1.671875 C 4.023438 -1.671875 4.160156 -1.683594 4.296875 -1.683594 C 4.433594 -1.683594 4.570312 -1.683594 4.707031 -1.683594 C 4.84375 -1.699219 4.996094 -1.730469 5.148438 -1.730469 C 5.3125 -1.714844 5.464844 -1.699219 5.601562 -1.699219 C 5.859375 -1.683594 5.859375 -1.777344 6.058594 -1.683594 C 6.226562 -1.609375 6.117188 -1.535156 6.242188 -1.351562 C 6.300781 -1.261719 6.390625 -1.167969 6.453125 -1.046875 C 6.511719 -0.941406 6.558594 -0.835938 6.605469 -0.714844 C 6.664062 -0.605469 6.726562 -0.484375 6.742188 -0.378906 C 6.785156 -0.210938 6.863281 -0.136719 6.9375 -0.0742188 C 7.03125 -0.015625 7.136719 -0.015625 7.289062 -0.015625 C 7.394531 -0.015625 7.53125 0 7.667969 0 C 7.820312 0 7.941406 -0.03125 8.046875 -0.046875 C 8.214844 -0.0742188 8.320312 -0.121094 8.367188 -0.210938 C 8.410156 -0.304688 8.394531 -0.425781 8.335938 -0.59375 C 8.289062 -0.699219 8.246094 -0.835938 8.183594 -0.972656 C 8.136719 -1.09375 8.121094 -1.246094 8.0625 -1.367188 C 8.015625 -1.503906 7.925781 -1.609375 7.878906 -1.746094 C 7.820312 -1.882812 7.773438 -2.003906 7.714844 -2.140625 C 7.667969 -2.261719 7.652344 -2.414062 7.605469 -2.535156 C 7.546875 -2.671875 7.46875 -2.792969 7.425781 -2.914062 C 7.378906 -3.050781 7.304688 -3.171875 7.257812 -3.292969 C 7.210938 -3.417969 7.183594 -3.554688 7.136719 -3.675781 C 7.089844 -3.796875 7.015625 -3.917969 6.96875 -4.039062 C 6.921875 -4.175781 6.863281 -4.296875 6.816406 -4.417969 C 6.773438 -4.539062 6.742188 -4.675781 6.695312 -4.796875 C 6.648438 -4.933594 6.605469 -5.054688 6.558594 -5.175781 C 6.5 -5.300781 6.453125 -5.421875 6.390625 -5.558594 C 6.347656 -5.679688 6.332031 -5.816406 6.285156 -5.9375 C 6.242188 -6.074219 6.148438 -6.179688 6.105469 -6.300781 C 6.058594 -6.421875 6.027344 -6.558594 5.980469 -6.679688 C 5.921875 -6.816406 5.90625 -6.9375 5.859375 -7.074219 C 5.816406 -7.195312 5.738281 -7.316406 5.679688 -7.441406 C 5.632812 -7.5625 5.601562 -7.699219 5.558594 -7.820312 C 5.496094 -7.941406 5.449219 -8.0625 5.40625 -8.199219 C 5.359375 -8.320312 5.285156 -8.441406 5.238281 -8.5625 C 5.191406 -8.683594 5.132812 -8.804688 5.085938 -8.925781 C 5.011719 -9.125 4.996094 -9.277344 4.933594 -9.367188 C 4.8125 -9.550781 4.691406 -9.582031 4.539062 -9.597656 C 4.417969 -9.609375 4.28125 -9.609375 4.085938 -9.597656 C 3.949219 -9.597656 3.871094 -9.582031 3.75 -9.488281 C 3.691406 -9.429688 3.582031 -9.367188 3.492188 -9.230469 C 3.445312 -9.140625 3.429688 -9.019531 3.371094 -8.882812 C 3.324219 -8.777344 3.265625 -8.667969 3.21875 -8.546875 C 3.171875 -8.425781 3.144531 -8.289062 3.097656 -8.152344 C 3.050781 -8.03125 3.007812 -7.910156 2.960938 -7.773438 C 2.914062 -7.652344 2.871094 -7.515625 2.824219 -7.394531 C 2.777344 -7.257812 2.71875 -7.136719 2.671875 -7 C 2.625 -6.878906 2.625 -6.726562 2.582031 -6.605469 C 2.535156 -6.46875 2.460938 -6.363281 2.414062 -6.226562 C 2.367188 -6.105469 2.351562 -5.96875 2.308594 -5.832031 C 2.261719 -5.695312 2.1875 -5.585938 2.140625 -5.449219 C 2.109375 -5.328125 2.066406 -5.191406 2.019531 -5.054688 C 1.972656 -4.933594 1.945312 -4.796875 1.898438 -4.675781 C 1.851562 -4.539062 1.808594 -4.417969 1.761719 -4.28125 C 1.714844 -4.160156 1.683594 -4.023438 1.640625 -3.886719 C 1.59375 -3.765625 1.503906 -3.644531 1.457031 -3.523438 C 1.410156 -3.402344 1.425781 -3.25 1.382812 -3.113281 C 1.335938 -2.992188 1.289062 -2.871094 1.246094 -2.734375 C 1.199219 -2.613281 1.109375 -2.488281 1.0625 -2.367188 C 1.015625 -2.230469 1.015625 -2.09375 0.972656 -1.972656 C 0.925781 -1.835938 0.867188 -1.714844 0.820312 -1.59375 C 0.789062 -1.519531 0.730469 -1.351562 0.652344 -1.167969 C 0.605469 -1.03125 0.5625 -0.878906 0.5 -0.742188 C 0.441406 -0.546875 0.410156 -0.378906 0.410156 -0.304688 C 0.378906 -0.046875 0.46875 0.015625 0.667969 0.015625 C 0.804688 0.03125 0.972656 0 1.167969 0.015625 C 1.304688 0.03125 1.488281 0.03125 1.65625 0 C 1.820312 -0.03125 1.945312 -0.0898438 2.035156 -0.242188 C 2.09375 -0.363281 2.171875 -0.46875 2.214844 -0.59375 C 2.261719 -0.714844 2.308594 -0.835938 2.351562 -0.957031 C 2.398438 -1.078125 2.429688 -1.199219 2.488281 -1.320312 C 2.535156 -1.441406 2.566406 -1.578125 2.625 -1.699219 C 2.761719 -1.699219 2.914062 -1.714844 3.050781 -1.714844 Z M 3.25 -3.734375 C 3.292969 -3.871094 3.339844 -3.992188 3.386719 -4.113281 C 3.429688 -4.25 3.476562 -4.371094 3.523438 -4.507812 C 3.566406 -4.632812 3.613281 -4.753906 3.675781 -4.875 C 3.71875 -5.011719 3.75 -5.132812 3.8125 -5.253906 C 3.855469 -5.390625 3.949219 -5.496094 3.992188 -5.617188 C 4.039062 -5.738281 4.039062 -5.890625 4.085938 -6.027344 C 4.128906 -6.148438 4.207031 -6.285156 4.25 -6.421875 C 4.328125 -6.285156 4.371094 -6.132812 4.433594 -6.027344 C 4.507812 -5.890625 4.601562 -5.785156 4.660156 -5.664062 C 4.738281 -5.542969 4.78125 -5.40625 4.828125 -5.285156 C 4.890625 -5.164062 4.933594 -5.027344 4.980469 -4.902344 C 5.039062 -4.765625 5.101562 -4.644531 5.148438 -4.507812 C 5.207031 -4.386719 5.285156 -4.265625 5.328125 -4.144531 C 5.390625 -4.007812 5.40625 -3.871094 5.449219 -3.734375 C 5.511719 -3.613281 5.570312 -3.492188 5.632812 -3.355469 C 5.480469 -3.355469 5.359375 -3.339844 5.222656 -3.339844 C 5.070312 -3.339844 4.933594 -3.339844 4.796875 -3.339844 C 4.644531 -3.339844 4.507812 -3.371094 4.371094 -3.371094 C 4.234375 -3.371094 4.097656 -3.355469 3.949219 -3.355469 C 3.8125 -3.355469 3.675781 -3.355469 3.523438 -3.355469 C 3.386719 -3.355469 3.234375 -3.339844 3.082031 -3.339844 C 3.128906 -3.476562 3.203125 -3.613281 3.25 -3.734375 Z M 3.25 -3.734375 "/></g></g></g></svg>